M48
; DRILL file {KiCad (5.1.8)-1} date 11/23/20 21:40:17
; FORMAT={-:-/ absolute / inch / decimal}
; #@! TF.CreationDate,2020-11-23T21:40:17-08:00
; #@! TF.GenerationSoftware,Kicad,Pcbnew,(5.1.8)-1
; #@! TF.FileFunction,Plated,1,2,PTH
FMAT,2
INCH
T1C0.0236
T2C0.0394
%
G90
G05
T1
X4.75Y-5.35
X4.75Y-5.65
X4.85Y-5.8
X4.95Y-4.15
X5.05Y-4.15
T2
X4.3Y-5.0516
X4.3Y-5.15
X4.0Y-5.0516
X4.0Y-5.15
X4.05Y-5.4
X4.15Y-5.4
X4.6Y-3.95
X4.6Y-4.05
X4.6Y-4.15
X4.6Y-4.25
X4.6Y-4.35
X4.6Y-4.45
X4.6Y-4.55
X4.6Y-4.65
X4.6Y-4.75
X4.6Y-4.85
X4.6Y-4.95
X4.6Y-5.05
X4.6Y-5.15
X4.6Y-5.25
X4.6Y-5.35
X5.2Y-3.95
X5.2Y-4.05
X5.2Y-4.15
X5.2Y-4.25
X5.2Y-4.35
X5.2Y-4.45
X5.2Y-4.55
X5.2Y-4.65
X5.2Y-4.75
X5.2Y-4.85
X5.2Y-4.95
X5.2Y-5.05
X5.2Y-5.15
X5.2Y-5.25
X5.2Y-5.35
X4.85Y-6.0
X4.85Y-6.1
X4.85Y-6.2
X4.85Y-6.3
X4.95Y-6.0
X4.95Y-6.1
X4.95Y-6.2
X4.95Y-6.3
X4.05Y-3.95
X4.15Y-3.95
X4.25Y-3.95
X4.05Y-4.55
X4.05Y-4.6878
T0
M30
