%TF.GenerationSoftware,KiCad,Pcbnew,(5.1.8)-1*%
%TF.CreationDate,2020-11-19T18:48:43-08:00*%
%TF.ProjectId,ard_lightshow,6172645f-6c69-4676-9874-73686f772e6b,rev?*%
%TF.SameCoordinates,Original*%
%TF.FileFunction,Copper,L2,Bot*%
%TF.FilePolarity,Positive*%
%FSLAX46Y46*%
G04 Gerber Fmt 4.6, Leading zero omitted, Abs format (unit mm)*
G04 Created by KiCad (PCBNEW (5.1.8)-1) date 2020-11-19 18:48:43*
%MOMM*%
%LPD*%
G01*
G04 APERTURE LIST*
%TA.AperFunction,ComponentPad*%
%ADD10C,2.000000*%
%TD*%
%TA.AperFunction,ViaPad*%
%ADD11C,2.000000*%
%TD*%
%TA.AperFunction,Conductor*%
%ADD12C,2.000000*%
%TD*%
%TA.AperFunction,Conductor*%
%ADD13C,1.000000*%
%TD*%
%TA.AperFunction,Conductor*%
%ADD14C,0.500000*%
%TD*%
%TA.AperFunction,Conductor*%
%ADD15C,0.100000*%
%TD*%
G04 APERTURE END LIST*
D10*
%TO.P,U3,1*%
%TO.N,/VIN*%
X105410000Y-137160000D03*
%TO.P,U3,2*%
%TO.N,/GND*%
X102870000Y-137160000D03*
%TD*%
%TO.P,U2,1*%
%TO.N,Net-(R0-Pad2)*%
X107950000Y-100330000D03*
%TO.P,U2,2*%
%TO.N,/GND*%
X105410000Y-100330000D03*
%TO.P,U2,3*%
%TO.N,/5V0*%
X102870000Y-100330000D03*
%TD*%
%TO.P,U1,1*%
%TO.N,/GND*%
X125730000Y-160020000D03*
%TO.P,U1,2*%
%TO.N,/CE*%
X125730000Y-157480000D03*
%TO.P,U1,3*%
%TO.N,/SCK*%
X125730000Y-154940000D03*
%TO.P,U1,4*%
%TO.N,/MISO*%
X125730000Y-152400000D03*
%TO.P,U1,8*%
%TO.N,Net-(U1-Pad8)*%
X123190000Y-152400000D03*
%TO.P,U1,7*%
%TO.N,/MOSI*%
X123190000Y-154940000D03*
%TO.P,U1,6*%
%TO.N,/CSN*%
X123190000Y-157480000D03*
%TO.P,U1,5*%
%TO.N,/3V3*%
X123190000Y-160020000D03*
%TD*%
%TO.P,U0,28*%
%TO.N,Net-(U0-Pad28)*%
X132080000Y-130810000D03*
%TO.P,U0,27*%
%TO.N,/GND*%
X132080000Y-128270000D03*
%TO.P,U0,26*%
%TO.N,Net-(U0-Pad26)*%
X132080000Y-125730000D03*
%TO.P,U0,25*%
%TO.N,/IR_OUT*%
X132080000Y-123190000D03*
%TO.P,U0,24*%
%TO.N,Net-(U0-Pad24)*%
X132080000Y-120650000D03*
%TO.P,U0,23*%
%TO.N,Net-(U0-Pad23)*%
X132080000Y-118110000D03*
%TO.P,U0,22*%
%TO.N,Net-(U0-Pad22)*%
X132080000Y-115570000D03*
%TO.P,U0,21*%
%TO.N,Net-(U0-Pad21)*%
X132080000Y-113030000D03*
%TO.P,U0,20*%
%TO.N,/CSN*%
X132080000Y-110490000D03*
%TO.P,U0,19*%
%TO.N,/CE*%
X132080000Y-107950000D03*
%TO.P,U0,18*%
%TO.N,Net-(U0-Pad18)*%
X132080000Y-105410000D03*
%TO.P,U0,17*%
%TO.N,/MOSI*%
X132080000Y-102870000D03*
%TO.P,U0,16*%
%TO.N,/MISO*%
X132080000Y-100330000D03*
%TO.P,U0,15*%
%TO.N,/VIN*%
X116840000Y-135890000D03*
%TO.P,U0,14*%
%TO.N,/GND*%
X116840000Y-133350000D03*
%TO.P,U0,13*%
%TO.N,Net-(U0-Pad13)*%
X116840000Y-130810000D03*
%TO.P,U0,12*%
%TO.N,/5V0*%
X116840000Y-128270000D03*
%TO.P,U0,11*%
%TO.N,Net-(U0-Pad11)*%
X116840000Y-125730000D03*
%TO.P,U0,10*%
%TO.N,Net-(U0-Pad10)*%
X116840000Y-123190000D03*
%TO.P,U0,9*%
%TO.N,Net-(U0-Pad9)*%
X116840000Y-120650000D03*
%TO.P,U0,8*%
%TO.N,Net-(U0-Pad8)*%
X116840000Y-118110000D03*
%TO.P,U0,7*%
%TO.N,Net-(U0-Pad7)*%
X116840000Y-115570000D03*
%TO.P,U0,6*%
%TO.N,Net-(U0-Pad6)*%
X116840000Y-113030000D03*
%TO.P,U0,5*%
%TO.N,Net-(U0-Pad5)*%
X116840000Y-110490000D03*
%TO.P,U0,4*%
%TO.N,/MIC_OUT*%
X116840000Y-107950000D03*
%TO.P,U0,3*%
%TO.N,Net-(U0-Pad3)*%
X116840000Y-105410000D03*
%TO.P,U0,2*%
%TO.N,/3V3*%
X116840000Y-102870000D03*
%TO.P,U0,1*%
%TO.N,/SCK*%
X116840000Y-100330000D03*
%TO.P,U0,29*%
%TO.N,Net-(U0-Pad29)*%
X132080000Y-133350000D03*
%TO.P,U0,30*%
%TO.N,Net-(U0-Pad30)*%
X132080000Y-135890000D03*
%TD*%
%TO.P,C2,1*%
%TO.N,/VIN*%
X109220000Y-130810000D03*
%TO.P,C2,2*%
%TO.N,/GND*%
X109220000Y-128310000D03*
%TD*%
%TO.P,C1,1*%
%TO.N,/5V0*%
X102870000Y-115570000D03*
%TO.P,C1,2*%
%TO.N,/GND*%
X102870000Y-119070000D03*
%TD*%
%TO.P,C0,2*%
%TO.N,/GND*%
X101600000Y-128310000D03*
%TO.P,C0,1*%
%TO.N,/3V3*%
X101600000Y-130810000D03*
%TD*%
D11*
%TO.N,/SCK*%
X125730000Y-105410000D03*
%TO.N,/MISO*%
X123190000Y-147320000D03*
%TO.N,/CE*%
X120650000Y-143510000D03*
X120650000Y-135890000D03*
%TO.N,/IR_OUT*%
X128270000Y-105410000D03*
%TD*%
D12*
%TO.N,/3V3*%
X115570000Y-156210000D02*
X115570000Y-142240000D01*
X119380000Y-160020000D02*
X115570000Y-156210000D01*
X123190000Y-160020000D02*
X119380000Y-160020000D01*
X114300000Y-102870000D02*
X113030000Y-104140000D01*
X116840000Y-102870000D02*
X114300000Y-102870000D01*
X109855000Y-136525000D02*
X108585000Y-135255000D01*
X113030000Y-104140000D02*
X113030000Y-133350000D01*
X107950000Y-134620000D02*
X107315000Y-133985000D01*
X108585000Y-135255000D02*
X107315000Y-133985000D01*
X111760000Y-134620000D02*
X107950000Y-134620000D01*
X113030000Y-133350000D02*
X111760000Y-134620000D01*
X111760000Y-134620000D02*
X109855000Y-136525000D01*
X111760000Y-134620000D02*
X111760000Y-138430000D01*
X111760000Y-138430000D02*
X109855000Y-136525000D01*
X115570000Y-142240000D02*
X111760000Y-138430000D01*
X104140000Y-130810000D02*
X101600000Y-130810000D01*
X107315000Y-133985000D02*
X104140000Y-130810000D01*
D13*
%TO.N,/SCK*%
X127000000Y-154940000D02*
X125730000Y-154940000D01*
X128270000Y-153670000D02*
X127000000Y-154940000D01*
X128270000Y-132080000D02*
X128270000Y-153670000D01*
X125730000Y-129540000D02*
X128270000Y-132080000D01*
X125730000Y-105410000D02*
X125730000Y-129540000D01*
%TO.N,/MISO*%
X123190000Y-134620000D02*
X123190000Y-147320000D01*
X120650000Y-132080000D02*
X123190000Y-134620000D01*
X120650000Y-102870000D02*
X120650000Y-132080000D01*
X123190000Y-100330000D02*
X120650000Y-102870000D01*
X132080000Y-100330000D02*
X123190000Y-100330000D01*
%TO.N,/MOSI*%
X121920000Y-154940000D02*
X123190000Y-154940000D01*
X120650000Y-153670000D02*
X121920000Y-154940000D01*
X121920000Y-149860000D02*
X120650000Y-151130000D01*
X125730000Y-148590000D02*
X124460000Y-149860000D01*
X123190000Y-130810000D02*
X125730000Y-133350000D01*
X120650000Y-151130000D02*
X120650000Y-153670000D01*
X125730000Y-133350000D02*
X125730000Y-148590000D01*
X123190000Y-104140000D02*
X123190000Y-130810000D01*
X124460000Y-102870000D02*
X123190000Y-104140000D01*
X124460000Y-149860000D02*
X121920000Y-149860000D01*
X132080000Y-102870000D02*
X124460000Y-102870000D01*
%TO.N,/CE*%
X120650000Y-135890000D02*
X120650000Y-143510000D01*
%TO.N,/IR_OUT*%
X132080000Y-123190000D02*
X129540000Y-123190000D01*
X129540000Y-123190000D02*
X128270000Y-121920000D01*
X128270000Y-121920000D02*
X128270000Y-107950000D01*
X128270000Y-107950000D02*
X128270000Y-105410000D01*
X128270000Y-105410000D02*
X128270000Y-105410000D01*
%TD*%
D14*
%TO.N,/GND*%
X135090001Y-154608628D02*
X126668630Y-163030000D01*
X110740000Y-163030000D01*
X110740000Y-142240000D01*
X110735196Y-142191227D01*
X110720970Y-142144329D01*
X110697867Y-142101107D01*
X110666777Y-142063223D01*
X110628893Y-142032133D01*
X110585671Y-142009030D01*
X110538773Y-141994804D01*
X110490000Y-141990000D01*
X98590000Y-141990000D01*
X98590000Y-138433463D01*
X101950091Y-138433463D01*
X102049152Y-138715127D01*
X102368313Y-138845385D01*
X102706755Y-138910875D01*
X103051470Y-138909080D01*
X103389212Y-138840068D01*
X103690848Y-138715127D01*
X103789909Y-138433463D01*
X102870000Y-137513553D01*
X101950091Y-138433463D01*
X98590000Y-138433463D01*
X98590000Y-136996755D01*
X101119125Y-136996755D01*
X101120920Y-137341470D01*
X101189932Y-137679212D01*
X101314873Y-137980848D01*
X101596537Y-138079909D01*
X102516447Y-137160000D01*
X103223553Y-137160000D01*
X103725573Y-137662019D01*
X103727251Y-137670456D01*
X103859170Y-137988936D01*
X104050686Y-138275560D01*
X104294440Y-138519314D01*
X104581064Y-138710830D01*
X104899544Y-138842749D01*
X105237640Y-138910000D01*
X105582360Y-138910000D01*
X105920456Y-138842749D01*
X106238936Y-138710830D01*
X106525560Y-138519314D01*
X106769314Y-138275560D01*
X106960830Y-137988936D01*
X107092749Y-137670456D01*
X107160000Y-137332360D01*
X107160000Y-136987640D01*
X107092749Y-136649544D01*
X106960830Y-136331064D01*
X106769314Y-136044440D01*
X106525560Y-135800686D01*
X106238936Y-135609170D01*
X105920456Y-135477251D01*
X105582360Y-135410000D01*
X105237640Y-135410000D01*
X104899544Y-135477251D01*
X104581064Y-135609170D01*
X104294440Y-135800686D01*
X104050686Y-136044440D01*
X103859170Y-136331064D01*
X103727251Y-136649544D01*
X103725573Y-136657981D01*
X103223553Y-137160000D01*
X102516447Y-137160000D01*
X101596537Y-136240091D01*
X101314873Y-136339152D01*
X101184615Y-136658313D01*
X101119125Y-136996755D01*
X98590000Y-136996755D01*
X98590000Y-135886537D01*
X101950091Y-135886537D01*
X102870000Y-136806447D01*
X103789909Y-135886537D01*
X103690848Y-135604873D01*
X103371687Y-135474615D01*
X103033245Y-135409125D01*
X102688530Y-135410920D01*
X102350788Y-135479932D01*
X102049152Y-135604873D01*
X101950091Y-135886537D01*
X98590000Y-135886537D01*
X98590000Y-130810000D01*
X99841533Y-130810000D01*
X99850000Y-130895968D01*
X99850000Y-130982360D01*
X99866854Y-131067091D01*
X99875321Y-131153060D01*
X99900397Y-131235724D01*
X99917251Y-131320456D01*
X99950313Y-131400273D01*
X99975388Y-131482936D01*
X100016109Y-131559119D01*
X100049170Y-131638936D01*
X100097168Y-131710769D01*
X100137888Y-131786952D01*
X100192688Y-131853726D01*
X100240686Y-131925560D01*
X100301774Y-131986648D01*
X100356576Y-132053424D01*
X100423350Y-132108224D01*
X100484440Y-132169314D01*
X100556274Y-132217312D01*
X100623048Y-132272112D01*
X100699231Y-132312832D01*
X100771064Y-132360830D01*
X100850881Y-132393891D01*
X100927064Y-132434612D01*
X101009727Y-132459687D01*
X101089544Y-132492749D01*
X101174276Y-132509603D01*
X101256940Y-132534679D01*
X101342909Y-132543146D01*
X101427640Y-132560000D01*
X103415127Y-132560000D01*
X106138351Y-135283225D01*
X106138356Y-135283229D01*
X106651773Y-135796647D01*
X106706576Y-135863424D01*
X106773351Y-135918225D01*
X107408351Y-136553225D01*
X107408356Y-136553229D01*
X108556783Y-137701657D01*
X108611577Y-137768423D01*
X108678343Y-137823217D01*
X108678351Y-137823225D01*
X108678356Y-137823229D01*
X110461781Y-139606655D01*
X110516577Y-139673424D01*
X110583346Y-139728220D01*
X110583351Y-139728225D01*
X110583356Y-139728229D01*
X113820001Y-142964875D01*
X113820000Y-156124035D01*
X113811533Y-156210000D01*
X113820000Y-156295965D01*
X113820000Y-156295967D01*
X113845321Y-156553059D01*
X113945388Y-156882935D01*
X114021030Y-157024452D01*
X114107888Y-157186952D01*
X114206935Y-157307640D01*
X114326576Y-157453424D01*
X114393356Y-157508229D01*
X118081776Y-161196650D01*
X118136576Y-161263424D01*
X118203350Y-161318224D01*
X118203351Y-161318225D01*
X118403048Y-161482112D01*
X118707063Y-161644612D01*
X118783840Y-161667902D01*
X119036940Y-161744679D01*
X119294032Y-161770000D01*
X119294034Y-161770000D01*
X119380000Y-161778467D01*
X119465966Y-161770000D01*
X123362360Y-161770000D01*
X123447091Y-161753146D01*
X123533060Y-161744679D01*
X123615724Y-161719603D01*
X123700456Y-161702749D01*
X123780273Y-161669687D01*
X123862936Y-161644612D01*
X123939119Y-161603891D01*
X124018936Y-161570830D01*
X124090769Y-161522832D01*
X124166952Y-161482112D01*
X124233726Y-161427312D01*
X124305560Y-161379314D01*
X124366650Y-161318224D01*
X124396821Y-161293463D01*
X124810091Y-161293463D01*
X124909152Y-161575127D01*
X125228313Y-161705385D01*
X125566755Y-161770875D01*
X125911470Y-161769080D01*
X126249212Y-161700068D01*
X126550848Y-161575127D01*
X126649909Y-161293463D01*
X125730000Y-160373553D01*
X124810091Y-161293463D01*
X124396821Y-161293463D01*
X124433424Y-161263424D01*
X124488224Y-161196650D01*
X124549314Y-161135560D01*
X124597312Y-161063726D01*
X124652112Y-160996952D01*
X124692832Y-160920769D01*
X124740830Y-160848936D01*
X124773891Y-160769119D01*
X124814612Y-160692936D01*
X124839687Y-160610273D01*
X124872749Y-160530456D01*
X124874427Y-160522019D01*
X125376447Y-160020000D01*
X126083553Y-160020000D01*
X127003463Y-160939909D01*
X127285127Y-160840848D01*
X127415385Y-160521687D01*
X127480875Y-160183245D01*
X127479080Y-159838530D01*
X127410068Y-159500788D01*
X127285127Y-159199152D01*
X127003463Y-159100091D01*
X126083553Y-160020000D01*
X125376447Y-160020000D01*
X124874427Y-159517981D01*
X124872749Y-159509544D01*
X124839687Y-159429727D01*
X124814612Y-159347064D01*
X124773891Y-159270881D01*
X124740830Y-159191064D01*
X124692832Y-159119231D01*
X124652112Y-159043048D01*
X124597312Y-158976274D01*
X124549314Y-158904440D01*
X124488224Y-158843350D01*
X124433424Y-158776576D01*
X124397654Y-158747220D01*
X124460000Y-158684874D01*
X124614440Y-158839314D01*
X124901064Y-159030830D01*
X125219544Y-159162749D01*
X125227981Y-159164427D01*
X125730000Y-159666447D01*
X126232019Y-159164427D01*
X126240456Y-159162749D01*
X126558936Y-159030830D01*
X126845560Y-158839314D01*
X127089314Y-158595560D01*
X127280830Y-158308936D01*
X127412749Y-157990456D01*
X127480000Y-157652360D01*
X127480000Y-157307640D01*
X127412749Y-156969544D01*
X127280830Y-156651064D01*
X127089314Y-156364440D01*
X126934874Y-156210000D01*
X126953415Y-156191459D01*
X127000000Y-156196047D01*
X127061398Y-156190000D01*
X127061405Y-156190000D01*
X127245043Y-156171913D01*
X127480669Y-156100437D01*
X127697823Y-155984366D01*
X127888160Y-155828160D01*
X127927308Y-155780458D01*
X129110462Y-154597304D01*
X129158160Y-154558160D01*
X129314366Y-154367823D01*
X129430437Y-154150669D01*
X129501913Y-153915043D01*
X129520000Y-153731405D01*
X129520000Y-153731399D01*
X129526047Y-153670001D01*
X129520000Y-153608603D01*
X129520000Y-132141397D01*
X129526047Y-132079999D01*
X129520000Y-132018601D01*
X129520000Y-132018595D01*
X129501913Y-131834957D01*
X129430437Y-131599331D01*
X129314366Y-131382177D01*
X129158160Y-131191840D01*
X129110464Y-131152697D01*
X128595407Y-130637640D01*
X130330000Y-130637640D01*
X130330000Y-130982360D01*
X130397251Y-131320456D01*
X130529170Y-131638936D01*
X130720686Y-131925560D01*
X130875126Y-132080000D01*
X130720686Y-132234440D01*
X130529170Y-132521064D01*
X130397251Y-132839544D01*
X130330000Y-133177640D01*
X130330000Y-133522360D01*
X130397251Y-133860456D01*
X130529170Y-134178936D01*
X130720686Y-134465560D01*
X130875126Y-134620000D01*
X130720686Y-134774440D01*
X130529170Y-135061064D01*
X130397251Y-135379544D01*
X130330000Y-135717640D01*
X130330000Y-136062360D01*
X130397251Y-136400456D01*
X130529170Y-136718936D01*
X130720686Y-137005560D01*
X130964440Y-137249314D01*
X131251064Y-137440830D01*
X131569544Y-137572749D01*
X131907640Y-137640000D01*
X132252360Y-137640000D01*
X132590456Y-137572749D01*
X132908936Y-137440830D01*
X133195560Y-137249314D01*
X133439314Y-137005560D01*
X133630830Y-136718936D01*
X133762749Y-136400456D01*
X133830000Y-136062360D01*
X133830000Y-135717640D01*
X133762749Y-135379544D01*
X133630830Y-135061064D01*
X133439314Y-134774440D01*
X133284874Y-134620000D01*
X133439314Y-134465560D01*
X133630830Y-134178936D01*
X133762749Y-133860456D01*
X133830000Y-133522360D01*
X133830000Y-133177640D01*
X133762749Y-132839544D01*
X133630830Y-132521064D01*
X133439314Y-132234440D01*
X133284874Y-132080000D01*
X133439314Y-131925560D01*
X133630830Y-131638936D01*
X133762749Y-131320456D01*
X133830000Y-130982360D01*
X133830000Y-130637640D01*
X133762749Y-130299544D01*
X133630830Y-129981064D01*
X133439314Y-129694440D01*
X133195560Y-129450686D01*
X132908936Y-129259170D01*
X132590456Y-129127251D01*
X132582019Y-129125573D01*
X132080000Y-128623553D01*
X131577981Y-129125573D01*
X131569544Y-129127251D01*
X131251064Y-129259170D01*
X130964440Y-129450686D01*
X130720686Y-129694440D01*
X130529170Y-129981064D01*
X130397251Y-130299544D01*
X130330000Y-130637640D01*
X128595407Y-130637640D01*
X126980000Y-129022234D01*
X126980000Y-128106755D01*
X130329125Y-128106755D01*
X130330920Y-128451470D01*
X130399932Y-128789212D01*
X130524873Y-129090848D01*
X130806537Y-129189909D01*
X131726447Y-128270000D01*
X132433553Y-128270000D01*
X133353463Y-129189909D01*
X133635127Y-129090848D01*
X133765385Y-128771687D01*
X133830875Y-128433245D01*
X133829080Y-128088530D01*
X133760068Y-127750788D01*
X133635127Y-127449152D01*
X133353463Y-127350091D01*
X132433553Y-128270000D01*
X131726447Y-128270000D01*
X130806537Y-127350091D01*
X130524873Y-127449152D01*
X130394615Y-127768313D01*
X130329125Y-128106755D01*
X126980000Y-128106755D01*
X126980000Y-106634874D01*
X127000000Y-106614874D01*
X127020001Y-106634875D01*
X127020000Y-108011404D01*
X127020001Y-108011414D01*
X127020000Y-121858602D01*
X127013953Y-121920000D01*
X127020000Y-121981398D01*
X127020000Y-121981404D01*
X127038087Y-122165042D01*
X127109563Y-122400668D01*
X127225634Y-122617822D01*
X127381840Y-122808160D01*
X127429542Y-122847308D01*
X128612696Y-124030462D01*
X128651840Y-124078160D01*
X128842177Y-124234366D01*
X129059331Y-124350437D01*
X129294956Y-124421913D01*
X129320538Y-124424433D01*
X129478595Y-124440000D01*
X129478601Y-124440000D01*
X129539999Y-124446047D01*
X129601397Y-124440000D01*
X130855126Y-124440000D01*
X130875126Y-124460000D01*
X130720686Y-124614440D01*
X130529170Y-124901064D01*
X130397251Y-125219544D01*
X130330000Y-125557640D01*
X130330000Y-125902360D01*
X130397251Y-126240456D01*
X130529170Y-126558936D01*
X130720686Y-126845560D01*
X130964440Y-127089314D01*
X131251064Y-127280830D01*
X131569544Y-127412749D01*
X131577981Y-127414427D01*
X132080000Y-127916447D01*
X132582019Y-127414427D01*
X132590456Y-127412749D01*
X132908936Y-127280830D01*
X133195560Y-127089314D01*
X133439314Y-126845560D01*
X133630830Y-126558936D01*
X133762749Y-126240456D01*
X133830000Y-125902360D01*
X133830000Y-125557640D01*
X133762749Y-125219544D01*
X133630830Y-124901064D01*
X133439314Y-124614440D01*
X133284874Y-124460000D01*
X133439314Y-124305560D01*
X133630830Y-124018936D01*
X133762749Y-123700456D01*
X133830000Y-123362360D01*
X133830000Y-123017640D01*
X133762749Y-122679544D01*
X133630830Y-122361064D01*
X133439314Y-122074440D01*
X133284874Y-121920000D01*
X133439314Y-121765560D01*
X133630830Y-121478936D01*
X133762749Y-121160456D01*
X133830000Y-120822360D01*
X133830000Y-120477640D01*
X133762749Y-120139544D01*
X133630830Y-119821064D01*
X133439314Y-119534440D01*
X133284874Y-119380000D01*
X133439314Y-119225560D01*
X133630830Y-118938936D01*
X133762749Y-118620456D01*
X133830000Y-118282360D01*
X133830000Y-117937640D01*
X133762749Y-117599544D01*
X133630830Y-117281064D01*
X133439314Y-116994440D01*
X133284874Y-116840000D01*
X133439314Y-116685560D01*
X133630830Y-116398936D01*
X133762749Y-116080456D01*
X133830000Y-115742360D01*
X133830000Y-115397640D01*
X133762749Y-115059544D01*
X133630830Y-114741064D01*
X133439314Y-114454440D01*
X133284874Y-114300000D01*
X133439314Y-114145560D01*
X133630830Y-113858936D01*
X133762749Y-113540456D01*
X133830000Y-113202360D01*
X133830000Y-112857640D01*
X133762749Y-112519544D01*
X133630830Y-112201064D01*
X133439314Y-111914440D01*
X133284874Y-111760000D01*
X133439314Y-111605560D01*
X133630830Y-111318936D01*
X133762749Y-111000456D01*
X133830000Y-110662360D01*
X133830000Y-110317640D01*
X133762749Y-109979544D01*
X133630830Y-109661064D01*
X133439314Y-109374440D01*
X133284874Y-109220000D01*
X133439314Y-109065560D01*
X133630830Y-108778936D01*
X133762749Y-108460456D01*
X133830000Y-108122360D01*
X133830000Y-107777640D01*
X133762749Y-107439544D01*
X133630830Y-107121064D01*
X133439314Y-106834440D01*
X133284874Y-106680000D01*
X133439314Y-106525560D01*
X133630830Y-106238936D01*
X133762749Y-105920456D01*
X133830000Y-105582360D01*
X133830000Y-105237640D01*
X133762749Y-104899544D01*
X133630830Y-104581064D01*
X133439314Y-104294440D01*
X133284874Y-104140000D01*
X133439314Y-103985560D01*
X133630830Y-103698936D01*
X133762749Y-103380456D01*
X133830000Y-103042360D01*
X133830000Y-102697640D01*
X133762749Y-102359544D01*
X133630830Y-102041064D01*
X133439314Y-101754440D01*
X133284874Y-101600000D01*
X133439314Y-101445560D01*
X133630830Y-101158936D01*
X133762749Y-100840456D01*
X133830000Y-100502360D01*
X133830000Y-100157640D01*
X133762749Y-99819544D01*
X133630830Y-99501064D01*
X133439314Y-99214440D01*
X133195560Y-98970686D01*
X132908936Y-98779170D01*
X132590456Y-98647251D01*
X132252360Y-98580000D01*
X131907640Y-98580000D01*
X131569544Y-98647251D01*
X131251064Y-98779170D01*
X130964440Y-98970686D01*
X130855126Y-99080000D01*
X123251397Y-99080000D01*
X123189999Y-99073953D01*
X123128601Y-99080000D01*
X123128595Y-99080000D01*
X122970538Y-99095567D01*
X122944956Y-99098087D01*
X122890116Y-99114723D01*
X122709331Y-99169563D01*
X122492177Y-99285634D01*
X122301840Y-99441840D01*
X122262696Y-99489537D01*
X119809543Y-101942691D01*
X119761840Y-101981840D01*
X119605634Y-102172178D01*
X119489563Y-102389332D01*
X119418087Y-102624958D01*
X119400000Y-102808596D01*
X119400000Y-102808602D01*
X119393953Y-102870000D01*
X119400000Y-102931398D01*
X119400001Y-132018592D01*
X119393953Y-132080000D01*
X119418087Y-132325042D01*
X119489563Y-132560668D01*
X119489564Y-132560669D01*
X119605635Y-132777823D01*
X119761841Y-132968160D01*
X119809537Y-133007303D01*
X120971998Y-134169765D01*
X120822360Y-134140000D01*
X120477640Y-134140000D01*
X120139544Y-134207251D01*
X119821064Y-134339170D01*
X119534440Y-134530686D01*
X119290686Y-134774440D01*
X119099170Y-135061064D01*
X118967251Y-135379544D01*
X118900000Y-135717640D01*
X118900000Y-136062360D01*
X118967251Y-136400456D01*
X119099170Y-136718936D01*
X119290686Y-137005560D01*
X119400000Y-137114874D01*
X119400001Y-142285125D01*
X119290686Y-142394440D01*
X119099170Y-142681064D01*
X118967251Y-142999544D01*
X118900000Y-143337640D01*
X118900000Y-143682360D01*
X118967251Y-144020456D01*
X119099170Y-144338936D01*
X119290686Y-144625560D01*
X119534440Y-144869314D01*
X119821064Y-145060830D01*
X120139544Y-145192749D01*
X120477640Y-145260000D01*
X120822360Y-145260000D01*
X121160456Y-145192749D01*
X121478936Y-145060830D01*
X121765560Y-144869314D01*
X121940001Y-144694873D01*
X121940001Y-146095125D01*
X121830686Y-146204440D01*
X121639170Y-146491064D01*
X121507251Y-146809544D01*
X121440000Y-147147640D01*
X121440000Y-147492360D01*
X121507251Y-147830456D01*
X121639170Y-148148936D01*
X121830686Y-148435560D01*
X122005126Y-148610000D01*
X121981397Y-148610000D01*
X121919999Y-148603953D01*
X121858601Y-148610000D01*
X121858595Y-148610000D01*
X121700538Y-148625567D01*
X121674956Y-148628087D01*
X121598087Y-148651405D01*
X121439331Y-148699563D01*
X121222177Y-148815634D01*
X121031840Y-148971840D01*
X120992696Y-149019537D01*
X119809542Y-150202692D01*
X119761840Y-150241840D01*
X119605634Y-150432178D01*
X119489563Y-150649332D01*
X119418087Y-150884958D01*
X119400000Y-151068596D01*
X119400000Y-151068602D01*
X119393953Y-151130000D01*
X119400000Y-151191398D01*
X119400001Y-153608593D01*
X119393953Y-153670000D01*
X119418087Y-153915042D01*
X119489563Y-154150668D01*
X119489564Y-154150669D01*
X119605635Y-154367823D01*
X119761841Y-154558160D01*
X119809538Y-154597304D01*
X120992696Y-155780462D01*
X121031840Y-155828160D01*
X121222177Y-155984366D01*
X121439331Y-156100437D01*
X121674956Y-156171913D01*
X121700538Y-156174433D01*
X121858595Y-156190000D01*
X121858601Y-156190000D01*
X121919999Y-156196047D01*
X121966585Y-156191459D01*
X121985126Y-156210000D01*
X121830686Y-156364440D01*
X121639170Y-156651064D01*
X121507251Y-156969544D01*
X121440000Y-157307640D01*
X121440000Y-157652360D01*
X121507251Y-157990456D01*
X121623042Y-158270000D01*
X120104874Y-158270000D01*
X117320000Y-155485127D01*
X117320000Y-142325966D01*
X117328467Y-142240000D01*
X117307994Y-142032133D01*
X117294679Y-141896940D01*
X117194612Y-141567064D01*
X117194612Y-141567063D01*
X117032112Y-141263048D01*
X116868225Y-141063351D01*
X116868224Y-141063350D01*
X116813424Y-140996576D01*
X116746650Y-140941776D01*
X113510000Y-137705127D01*
X113510000Y-135717640D01*
X115090000Y-135717640D01*
X115090000Y-136062360D01*
X115157251Y-136400456D01*
X115289170Y-136718936D01*
X115480686Y-137005560D01*
X115724440Y-137249314D01*
X116011064Y-137440830D01*
X116329544Y-137572749D01*
X116667640Y-137640000D01*
X117012360Y-137640000D01*
X117350456Y-137572749D01*
X117668936Y-137440830D01*
X117955560Y-137249314D01*
X118199314Y-137005560D01*
X118390830Y-136718936D01*
X118522749Y-136400456D01*
X118590000Y-136062360D01*
X118590000Y-135717640D01*
X118522749Y-135379544D01*
X118390830Y-135061064D01*
X118199314Y-134774440D01*
X117955560Y-134530686D01*
X117668936Y-134339170D01*
X117350456Y-134207251D01*
X117342019Y-134205573D01*
X116840000Y-133703553D01*
X116337981Y-134205573D01*
X116329544Y-134207251D01*
X116011064Y-134339170D01*
X115724440Y-134530686D01*
X115480686Y-134774440D01*
X115289170Y-135061064D01*
X115157251Y-135379544D01*
X115090000Y-135717640D01*
X113510000Y-135717640D01*
X113510000Y-135344873D01*
X114206649Y-134648225D01*
X114273424Y-134593424D01*
X114341531Y-134510436D01*
X114492112Y-134326953D01*
X114592397Y-134139332D01*
X114654612Y-134022936D01*
X114754679Y-133693060D01*
X114780000Y-133435968D01*
X114780000Y-133435959D01*
X114788466Y-133350001D01*
X114780000Y-133264043D01*
X114780000Y-133186755D01*
X115089125Y-133186755D01*
X115090920Y-133531470D01*
X115159932Y-133869212D01*
X115284873Y-134170848D01*
X115566537Y-134269909D01*
X116486447Y-133350000D01*
X117193553Y-133350000D01*
X118113463Y-134269909D01*
X118395127Y-134170848D01*
X118525385Y-133851687D01*
X118590875Y-133513245D01*
X118589080Y-133168530D01*
X118520068Y-132830788D01*
X118395127Y-132529152D01*
X118113463Y-132430091D01*
X117193553Y-133350000D01*
X116486447Y-133350000D01*
X115566537Y-132430091D01*
X115284873Y-132529152D01*
X115154615Y-132848313D01*
X115089125Y-133186755D01*
X114780000Y-133186755D01*
X114780000Y-104864873D01*
X115024874Y-104620000D01*
X115273042Y-104620000D01*
X115157251Y-104899544D01*
X115090000Y-105237640D01*
X115090000Y-105582360D01*
X115157251Y-105920456D01*
X115289170Y-106238936D01*
X115480686Y-106525560D01*
X115635126Y-106680000D01*
X115480686Y-106834440D01*
X115289170Y-107121064D01*
X115157251Y-107439544D01*
X115090000Y-107777640D01*
X115090000Y-108122360D01*
X115157251Y-108460456D01*
X115289170Y-108778936D01*
X115480686Y-109065560D01*
X115635126Y-109220000D01*
X115480686Y-109374440D01*
X115289170Y-109661064D01*
X115157251Y-109979544D01*
X115090000Y-110317640D01*
X115090000Y-110662360D01*
X115157251Y-111000456D01*
X115289170Y-111318936D01*
X115480686Y-111605560D01*
X115635126Y-111760000D01*
X115480686Y-111914440D01*
X115289170Y-112201064D01*
X115157251Y-112519544D01*
X115090000Y-112857640D01*
X115090000Y-113202360D01*
X115157251Y-113540456D01*
X115289170Y-113858936D01*
X115480686Y-114145560D01*
X115635126Y-114300000D01*
X115480686Y-114454440D01*
X115289170Y-114741064D01*
X115157251Y-115059544D01*
X115090000Y-115397640D01*
X115090000Y-115742360D01*
X115157251Y-116080456D01*
X115289170Y-116398936D01*
X115480686Y-116685560D01*
X115635126Y-116840000D01*
X115480686Y-116994440D01*
X115289170Y-117281064D01*
X115157251Y-117599544D01*
X115090000Y-117937640D01*
X115090000Y-118282360D01*
X115157251Y-118620456D01*
X115289170Y-118938936D01*
X115480686Y-119225560D01*
X115635126Y-119380000D01*
X115480686Y-119534440D01*
X115289170Y-119821064D01*
X115157251Y-120139544D01*
X115090000Y-120477640D01*
X115090000Y-120822360D01*
X115157251Y-121160456D01*
X115289170Y-121478936D01*
X115480686Y-121765560D01*
X115635126Y-121920000D01*
X115480686Y-122074440D01*
X115289170Y-122361064D01*
X115157251Y-122679544D01*
X115090000Y-123017640D01*
X115090000Y-123362360D01*
X115157251Y-123700456D01*
X115289170Y-124018936D01*
X115480686Y-124305560D01*
X115635126Y-124460000D01*
X115480686Y-124614440D01*
X115289170Y-124901064D01*
X115157251Y-125219544D01*
X115090000Y-125557640D01*
X115090000Y-125902360D01*
X115157251Y-126240456D01*
X115289170Y-126558936D01*
X115480686Y-126845560D01*
X115635126Y-127000000D01*
X115480686Y-127154440D01*
X115289170Y-127441064D01*
X115157251Y-127759544D01*
X115090000Y-128097640D01*
X115090000Y-128442360D01*
X115157251Y-128780456D01*
X115289170Y-129098936D01*
X115480686Y-129385560D01*
X115635126Y-129540000D01*
X115480686Y-129694440D01*
X115289170Y-129981064D01*
X115157251Y-130299544D01*
X115090000Y-130637640D01*
X115090000Y-130982360D01*
X115157251Y-131320456D01*
X115289170Y-131638936D01*
X115480686Y-131925560D01*
X115724440Y-132169314D01*
X116011064Y-132360830D01*
X116329544Y-132492749D01*
X116337981Y-132494427D01*
X116840000Y-132996447D01*
X117342019Y-132494427D01*
X117350456Y-132492749D01*
X117668936Y-132360830D01*
X117955560Y-132169314D01*
X118199314Y-131925560D01*
X118390830Y-131638936D01*
X118522749Y-131320456D01*
X118590000Y-130982360D01*
X118590000Y-130637640D01*
X118522749Y-130299544D01*
X118390830Y-129981064D01*
X118199314Y-129694440D01*
X118044874Y-129540000D01*
X118199314Y-129385560D01*
X118390830Y-129098936D01*
X118522749Y-128780456D01*
X118590000Y-128442360D01*
X118590000Y-128097640D01*
X118522749Y-127759544D01*
X118390830Y-127441064D01*
X118199314Y-127154440D01*
X118044874Y-127000000D01*
X118199314Y-126845560D01*
X118390830Y-126558936D01*
X118522749Y-126240456D01*
X118590000Y-125902360D01*
X118590000Y-125557640D01*
X118522749Y-125219544D01*
X118390830Y-124901064D01*
X118199314Y-124614440D01*
X118044874Y-124460000D01*
X118199314Y-124305560D01*
X118390830Y-124018936D01*
X118522749Y-123700456D01*
X118590000Y-123362360D01*
X118590000Y-123017640D01*
X118522749Y-122679544D01*
X118390830Y-122361064D01*
X118199314Y-122074440D01*
X118044874Y-121920000D01*
X118199314Y-121765560D01*
X118390830Y-121478936D01*
X118522749Y-121160456D01*
X118590000Y-120822360D01*
X118590000Y-120477640D01*
X118522749Y-120139544D01*
X118390830Y-119821064D01*
X118199314Y-119534440D01*
X118044874Y-119380000D01*
X118199314Y-119225560D01*
X118390830Y-118938936D01*
X118522749Y-118620456D01*
X118590000Y-118282360D01*
X118590000Y-117937640D01*
X118522749Y-117599544D01*
X118390830Y-117281064D01*
X118199314Y-116994440D01*
X118044874Y-116840000D01*
X118199314Y-116685560D01*
X118390830Y-116398936D01*
X118522749Y-116080456D01*
X118590000Y-115742360D01*
X118590000Y-115397640D01*
X118522749Y-115059544D01*
X118390830Y-114741064D01*
X118199314Y-114454440D01*
X118044874Y-114300000D01*
X118199314Y-114145560D01*
X118390830Y-113858936D01*
X118522749Y-113540456D01*
X118590000Y-113202360D01*
X118590000Y-112857640D01*
X118522749Y-112519544D01*
X118390830Y-112201064D01*
X118199314Y-111914440D01*
X118044874Y-111760000D01*
X118199314Y-111605560D01*
X118390830Y-111318936D01*
X118522749Y-111000456D01*
X118590000Y-110662360D01*
X118590000Y-110317640D01*
X118522749Y-109979544D01*
X118390830Y-109661064D01*
X118199314Y-109374440D01*
X118044874Y-109220000D01*
X118199314Y-109065560D01*
X118390830Y-108778936D01*
X118522749Y-108460456D01*
X118590000Y-108122360D01*
X118590000Y-107777640D01*
X118522749Y-107439544D01*
X118390830Y-107121064D01*
X118199314Y-106834440D01*
X118044874Y-106680000D01*
X118199314Y-106525560D01*
X118390830Y-106238936D01*
X118522749Y-105920456D01*
X118590000Y-105582360D01*
X118590000Y-105237640D01*
X118522749Y-104899544D01*
X118390830Y-104581064D01*
X118199314Y-104294440D01*
X118047654Y-104142780D01*
X118083424Y-104113424D01*
X118138225Y-104046649D01*
X118199314Y-103985560D01*
X118247312Y-103913726D01*
X118302112Y-103846952D01*
X118342832Y-103770769D01*
X118390830Y-103698936D01*
X118423891Y-103619119D01*
X118464612Y-103542936D01*
X118489687Y-103460273D01*
X118522749Y-103380456D01*
X118539603Y-103295724D01*
X118564679Y-103213060D01*
X118573146Y-103127091D01*
X118590000Y-103042360D01*
X118590000Y-102955968D01*
X118598467Y-102870000D01*
X118590000Y-102784032D01*
X118590000Y-102697640D01*
X118573146Y-102612909D01*
X118564679Y-102526940D01*
X118539603Y-102444276D01*
X118522749Y-102359544D01*
X118489687Y-102279727D01*
X118464612Y-102197064D01*
X118423891Y-102120881D01*
X118390830Y-102041064D01*
X118342832Y-101969231D01*
X118302112Y-101893048D01*
X118247312Y-101826274D01*
X118199314Y-101754440D01*
X118138224Y-101693350D01*
X118083424Y-101626576D01*
X118047654Y-101597220D01*
X118199314Y-101445560D01*
X118390830Y-101158936D01*
X118522749Y-100840456D01*
X118590000Y-100502360D01*
X118590000Y-100157640D01*
X118522749Y-99819544D01*
X118390830Y-99501064D01*
X118199314Y-99214440D01*
X117955560Y-98970686D01*
X117668936Y-98779170D01*
X117350456Y-98647251D01*
X117012360Y-98580000D01*
X116667640Y-98580000D01*
X116329544Y-98647251D01*
X116011064Y-98779170D01*
X115724440Y-98970686D01*
X115480686Y-99214440D01*
X115289170Y-99501064D01*
X115157251Y-99819544D01*
X115090000Y-100157640D01*
X115090000Y-100502360D01*
X115157251Y-100840456D01*
X115273042Y-101120000D01*
X114385957Y-101120000D01*
X114299999Y-101111534D01*
X114214041Y-101120000D01*
X114214032Y-101120000D01*
X113956940Y-101145321D01*
X113627064Y-101245388D01*
X113489028Y-101319170D01*
X113323047Y-101407888D01*
X113197788Y-101510686D01*
X113056576Y-101626576D01*
X113001775Y-101693351D01*
X111853355Y-102841772D01*
X111786576Y-102896576D01*
X111731775Y-102963352D01*
X111567888Y-103163048D01*
X111541156Y-103213061D01*
X111405388Y-103467065D01*
X111305321Y-103796941D01*
X111293756Y-103914366D01*
X111271533Y-104140000D01*
X111280000Y-104225965D01*
X111280001Y-132625125D01*
X111035127Y-132870000D01*
X108674873Y-132870000D01*
X108613229Y-132808356D01*
X108613225Y-132808351D01*
X106442514Y-130637640D01*
X107470000Y-130637640D01*
X107470000Y-130982360D01*
X107537251Y-131320456D01*
X107669170Y-131638936D01*
X107860686Y-131925560D01*
X108104440Y-132169314D01*
X108391064Y-132360830D01*
X108709544Y-132492749D01*
X109047640Y-132560000D01*
X109392360Y-132560000D01*
X109730456Y-132492749D01*
X110048936Y-132360830D01*
X110335560Y-132169314D01*
X110579314Y-131925560D01*
X110770830Y-131638936D01*
X110902749Y-131320456D01*
X110970000Y-130982360D01*
X110970000Y-130637640D01*
X110902749Y-130299544D01*
X110770830Y-129981064D01*
X110579314Y-129694440D01*
X110335560Y-129450686D01*
X110048936Y-129259170D01*
X109730456Y-129127251D01*
X109672087Y-129115641D01*
X109220000Y-128663553D01*
X108767913Y-129115641D01*
X108709544Y-129127251D01*
X108391064Y-129259170D01*
X108104440Y-129450686D01*
X107860686Y-129694440D01*
X107669170Y-129981064D01*
X107537251Y-130299544D01*
X107470000Y-130637640D01*
X106442514Y-130637640D01*
X105438229Y-129633356D01*
X105383424Y-129566576D01*
X105116952Y-129347888D01*
X104812936Y-129185388D01*
X104483060Y-129085321D01*
X104225968Y-129060000D01*
X104225965Y-129060000D01*
X104140000Y-129051533D01*
X104054035Y-129060000D01*
X103184042Y-129060000D01*
X103285385Y-128811687D01*
X103350875Y-128473245D01*
X103349175Y-128146755D01*
X107469125Y-128146755D01*
X107470920Y-128491470D01*
X107539932Y-128829212D01*
X107664873Y-129130848D01*
X107946537Y-129229909D01*
X108866447Y-128310000D01*
X109573553Y-128310000D01*
X110493463Y-129229909D01*
X110775127Y-129130848D01*
X110905385Y-128811687D01*
X110970875Y-128473245D01*
X110969080Y-128128530D01*
X110900068Y-127790788D01*
X110775127Y-127489152D01*
X110493463Y-127390091D01*
X109573553Y-128310000D01*
X108866447Y-128310000D01*
X107946537Y-127390091D01*
X107664873Y-127489152D01*
X107534615Y-127808313D01*
X107469125Y-128146755D01*
X103349175Y-128146755D01*
X103349080Y-128128530D01*
X103280068Y-127790788D01*
X103155127Y-127489152D01*
X102873463Y-127390091D01*
X101953553Y-128310000D01*
X101967696Y-128324142D01*
X101614143Y-128677696D01*
X101600000Y-128663553D01*
X101147913Y-129115641D01*
X101089544Y-129127251D01*
X101009727Y-129160313D01*
X100927064Y-129185388D01*
X100850881Y-129226109D01*
X100771064Y-129259170D01*
X100699231Y-129307168D01*
X100623048Y-129347888D01*
X100556274Y-129402688D01*
X100484440Y-129450686D01*
X100423351Y-129511775D01*
X100356576Y-129566576D01*
X100301776Y-129633350D01*
X100240686Y-129694440D01*
X100192688Y-129766274D01*
X100137888Y-129833048D01*
X100097168Y-129909231D01*
X100049170Y-129981064D01*
X100016109Y-130060881D01*
X99975388Y-130137064D01*
X99950313Y-130219727D01*
X99917251Y-130299544D01*
X99900397Y-130384276D01*
X99875321Y-130466940D01*
X99866854Y-130552909D01*
X99850000Y-130637640D01*
X99850000Y-130724032D01*
X99841533Y-130810000D01*
X98590000Y-130810000D01*
X98590000Y-128146755D01*
X99849125Y-128146755D01*
X99850920Y-128491470D01*
X99919932Y-128829212D01*
X100044873Y-129130848D01*
X100326537Y-129229909D01*
X101246447Y-128310000D01*
X100326537Y-127390091D01*
X100044873Y-127489152D01*
X99914615Y-127808313D01*
X99849125Y-128146755D01*
X98590000Y-128146755D01*
X98590000Y-127036537D01*
X100680091Y-127036537D01*
X101600000Y-127956447D01*
X102519909Y-127036537D01*
X108300091Y-127036537D01*
X109220000Y-127956447D01*
X110139909Y-127036537D01*
X110040848Y-126754873D01*
X109721687Y-126624615D01*
X109383245Y-126559125D01*
X109038530Y-126560920D01*
X108700788Y-126629932D01*
X108399152Y-126754873D01*
X108300091Y-127036537D01*
X102519909Y-127036537D01*
X102420848Y-126754873D01*
X102101687Y-126624615D01*
X101763245Y-126559125D01*
X101418530Y-126560920D01*
X101080788Y-126629932D01*
X100779152Y-126754873D01*
X100680091Y-127036537D01*
X98590000Y-127036537D01*
X98590000Y-120343463D01*
X101950091Y-120343463D01*
X102049152Y-120625127D01*
X102368313Y-120755385D01*
X102706755Y-120820875D01*
X103051470Y-120819080D01*
X103389212Y-120750068D01*
X103690848Y-120625127D01*
X103789909Y-120343463D01*
X102870000Y-119423553D01*
X101950091Y-120343463D01*
X98590000Y-120343463D01*
X98590000Y-118906755D01*
X101119125Y-118906755D01*
X101120920Y-119251470D01*
X101189932Y-119589212D01*
X101314873Y-119890848D01*
X101596537Y-119989909D01*
X102516447Y-119070000D01*
X103223553Y-119070000D01*
X104143463Y-119989909D01*
X104425127Y-119890848D01*
X104555385Y-119571687D01*
X104620875Y-119233245D01*
X104619080Y-118888530D01*
X104550068Y-118550788D01*
X104425127Y-118249152D01*
X104143463Y-118150091D01*
X103223553Y-119070000D01*
X102516447Y-119070000D01*
X101596537Y-118150091D01*
X101314873Y-118249152D01*
X101184615Y-118568313D01*
X101119125Y-118906755D01*
X98590000Y-118906755D01*
X98590000Y-115397640D01*
X101120000Y-115397640D01*
X101120000Y-115742360D01*
X101187251Y-116080456D01*
X101319170Y-116398936D01*
X101510686Y-116685560D01*
X101754440Y-116929314D01*
X102041064Y-117120830D01*
X102359544Y-117252749D01*
X102697640Y-117320000D01*
X102865208Y-117320000D01*
X102688530Y-117320920D01*
X102350788Y-117389932D01*
X102049152Y-117514873D01*
X101950091Y-117796537D01*
X102870000Y-118716447D01*
X103789909Y-117796537D01*
X103690848Y-117514873D01*
X103371687Y-117384615D01*
X103037767Y-117320000D01*
X103042360Y-117320000D01*
X103380456Y-117252749D01*
X103698936Y-117120830D01*
X103985560Y-116929314D01*
X104229314Y-116685560D01*
X104420830Y-116398936D01*
X104552749Y-116080456D01*
X104620000Y-115742360D01*
X104620000Y-115397640D01*
X104552749Y-115059544D01*
X104420830Y-114741064D01*
X104229314Y-114454440D01*
X103985560Y-114210686D01*
X103698936Y-114019170D01*
X103380456Y-113887251D01*
X103042360Y-113820000D01*
X102697640Y-113820000D01*
X102359544Y-113887251D01*
X102041064Y-114019170D01*
X101754440Y-114210686D01*
X101510686Y-114454440D01*
X101319170Y-114741064D01*
X101187251Y-115059544D01*
X101120000Y-115397640D01*
X98590000Y-115397640D01*
X98590000Y-100157640D01*
X101120000Y-100157640D01*
X101120000Y-100502360D01*
X101187251Y-100840456D01*
X101319170Y-101158936D01*
X101510686Y-101445560D01*
X101754440Y-101689314D01*
X102041064Y-101880830D01*
X102359544Y-102012749D01*
X102697640Y-102080000D01*
X103042360Y-102080000D01*
X103380456Y-102012749D01*
X103698936Y-101880830D01*
X103985560Y-101689314D01*
X104071411Y-101603463D01*
X104490091Y-101603463D01*
X104589152Y-101885127D01*
X104908313Y-102015385D01*
X105246755Y-102080875D01*
X105591470Y-102079080D01*
X105929212Y-102010068D01*
X106230848Y-101885127D01*
X106329909Y-101603463D01*
X105410000Y-100683553D01*
X104490091Y-101603463D01*
X104071411Y-101603463D01*
X104229314Y-101445560D01*
X104420830Y-101158936D01*
X104552749Y-100840456D01*
X104554427Y-100832019D01*
X105056447Y-100330000D01*
X105763553Y-100330000D01*
X106265573Y-100832019D01*
X106267251Y-100840456D01*
X106399170Y-101158936D01*
X106590686Y-101445560D01*
X106834440Y-101689314D01*
X107121064Y-101880830D01*
X107439544Y-102012749D01*
X107777640Y-102080000D01*
X108122360Y-102080000D01*
X108460456Y-102012749D01*
X108778936Y-101880830D01*
X109065560Y-101689314D01*
X109309314Y-101445560D01*
X109500830Y-101158936D01*
X109632749Y-100840456D01*
X109700000Y-100502360D01*
X109700000Y-100157640D01*
X109632749Y-99819544D01*
X109500830Y-99501064D01*
X109309314Y-99214440D01*
X109065560Y-98970686D01*
X108778936Y-98779170D01*
X108460456Y-98647251D01*
X108122360Y-98580000D01*
X107777640Y-98580000D01*
X107439544Y-98647251D01*
X107121064Y-98779170D01*
X106834440Y-98970686D01*
X106590686Y-99214440D01*
X106399170Y-99501064D01*
X106267251Y-99819544D01*
X106265573Y-99827981D01*
X105763553Y-100330000D01*
X105056447Y-100330000D01*
X104554427Y-99827981D01*
X104552749Y-99819544D01*
X104420830Y-99501064D01*
X104229314Y-99214440D01*
X104071411Y-99056537D01*
X104490091Y-99056537D01*
X105410000Y-99976447D01*
X106329909Y-99056537D01*
X106230848Y-98774873D01*
X105911687Y-98644615D01*
X105573245Y-98579125D01*
X105228530Y-98580920D01*
X104890788Y-98649932D01*
X104589152Y-98774873D01*
X104490091Y-99056537D01*
X104071411Y-99056537D01*
X103985560Y-98970686D01*
X103698936Y-98779170D01*
X103380456Y-98647251D01*
X103042360Y-98580000D01*
X102697640Y-98580000D01*
X102359544Y-98647251D01*
X102041064Y-98779170D01*
X101754440Y-98970686D01*
X101510686Y-99214440D01*
X101319170Y-99501064D01*
X101187251Y-99819544D01*
X101120000Y-100157640D01*
X98590000Y-100157640D01*
X98590000Y-96050000D01*
X135090000Y-96050000D01*
X135090001Y-154608628D01*
%TA.AperFunction,Conductor*%
D15*
G36*
X135090001Y-154608628D02*
G01*
X126668630Y-163030000D01*
X110740000Y-163030000D01*
X110740000Y-142240000D01*
X110735196Y-142191227D01*
X110720970Y-142144329D01*
X110697867Y-142101107D01*
X110666777Y-142063223D01*
X110628893Y-142032133D01*
X110585671Y-142009030D01*
X110538773Y-141994804D01*
X110490000Y-141990000D01*
X98590000Y-141990000D01*
X98590000Y-138433463D01*
X101950091Y-138433463D01*
X102049152Y-138715127D01*
X102368313Y-138845385D01*
X102706755Y-138910875D01*
X103051470Y-138909080D01*
X103389212Y-138840068D01*
X103690848Y-138715127D01*
X103789909Y-138433463D01*
X102870000Y-137513553D01*
X101950091Y-138433463D01*
X98590000Y-138433463D01*
X98590000Y-136996755D01*
X101119125Y-136996755D01*
X101120920Y-137341470D01*
X101189932Y-137679212D01*
X101314873Y-137980848D01*
X101596537Y-138079909D01*
X102516447Y-137160000D01*
X103223553Y-137160000D01*
X103725573Y-137662019D01*
X103727251Y-137670456D01*
X103859170Y-137988936D01*
X104050686Y-138275560D01*
X104294440Y-138519314D01*
X104581064Y-138710830D01*
X104899544Y-138842749D01*
X105237640Y-138910000D01*
X105582360Y-138910000D01*
X105920456Y-138842749D01*
X106238936Y-138710830D01*
X106525560Y-138519314D01*
X106769314Y-138275560D01*
X106960830Y-137988936D01*
X107092749Y-137670456D01*
X107160000Y-137332360D01*
X107160000Y-136987640D01*
X107092749Y-136649544D01*
X106960830Y-136331064D01*
X106769314Y-136044440D01*
X106525560Y-135800686D01*
X106238936Y-135609170D01*
X105920456Y-135477251D01*
X105582360Y-135410000D01*
X105237640Y-135410000D01*
X104899544Y-135477251D01*
X104581064Y-135609170D01*
X104294440Y-135800686D01*
X104050686Y-136044440D01*
X103859170Y-136331064D01*
X103727251Y-136649544D01*
X103725573Y-136657981D01*
X103223553Y-137160000D01*
X102516447Y-137160000D01*
X101596537Y-136240091D01*
X101314873Y-136339152D01*
X101184615Y-136658313D01*
X101119125Y-136996755D01*
X98590000Y-136996755D01*
X98590000Y-135886537D01*
X101950091Y-135886537D01*
X102870000Y-136806447D01*
X103789909Y-135886537D01*
X103690848Y-135604873D01*
X103371687Y-135474615D01*
X103033245Y-135409125D01*
X102688530Y-135410920D01*
X102350788Y-135479932D01*
X102049152Y-135604873D01*
X101950091Y-135886537D01*
X98590000Y-135886537D01*
X98590000Y-130810000D01*
X99841533Y-130810000D01*
X99850000Y-130895968D01*
X99850000Y-130982360D01*
X99866854Y-131067091D01*
X99875321Y-131153060D01*
X99900397Y-131235724D01*
X99917251Y-131320456D01*
X99950313Y-131400273D01*
X99975388Y-131482936D01*
X100016109Y-131559119D01*
X100049170Y-131638936D01*
X100097168Y-131710769D01*
X100137888Y-131786952D01*
X100192688Y-131853726D01*
X100240686Y-131925560D01*
X100301774Y-131986648D01*
X100356576Y-132053424D01*
X100423350Y-132108224D01*
X100484440Y-132169314D01*
X100556274Y-132217312D01*
X100623048Y-132272112D01*
X100699231Y-132312832D01*
X100771064Y-132360830D01*
X100850881Y-132393891D01*
X100927064Y-132434612D01*
X101009727Y-132459687D01*
X101089544Y-132492749D01*
X101174276Y-132509603D01*
X101256940Y-132534679D01*
X101342909Y-132543146D01*
X101427640Y-132560000D01*
X103415127Y-132560000D01*
X106138351Y-135283225D01*
X106138356Y-135283229D01*
X106651773Y-135796647D01*
X106706576Y-135863424D01*
X106773351Y-135918225D01*
X107408351Y-136553225D01*
X107408356Y-136553229D01*
X108556783Y-137701657D01*
X108611577Y-137768423D01*
X108678343Y-137823217D01*
X108678351Y-137823225D01*
X108678356Y-137823229D01*
X110461781Y-139606655D01*
X110516577Y-139673424D01*
X110583346Y-139728220D01*
X110583351Y-139728225D01*
X110583356Y-139728229D01*
X113820001Y-142964875D01*
X113820000Y-156124035D01*
X113811533Y-156210000D01*
X113820000Y-156295965D01*
X113820000Y-156295967D01*
X113845321Y-156553059D01*
X113945388Y-156882935D01*
X114021030Y-157024452D01*
X114107888Y-157186952D01*
X114206935Y-157307640D01*
X114326576Y-157453424D01*
X114393356Y-157508229D01*
X118081776Y-161196650D01*
X118136576Y-161263424D01*
X118203350Y-161318224D01*
X118203351Y-161318225D01*
X118403048Y-161482112D01*
X118707063Y-161644612D01*
X118783840Y-161667902D01*
X119036940Y-161744679D01*
X119294032Y-161770000D01*
X119294034Y-161770000D01*
X119380000Y-161778467D01*
X119465966Y-161770000D01*
X123362360Y-161770000D01*
X123447091Y-161753146D01*
X123533060Y-161744679D01*
X123615724Y-161719603D01*
X123700456Y-161702749D01*
X123780273Y-161669687D01*
X123862936Y-161644612D01*
X123939119Y-161603891D01*
X124018936Y-161570830D01*
X124090769Y-161522832D01*
X124166952Y-161482112D01*
X124233726Y-161427312D01*
X124305560Y-161379314D01*
X124366650Y-161318224D01*
X124396821Y-161293463D01*
X124810091Y-161293463D01*
X124909152Y-161575127D01*
X125228313Y-161705385D01*
X125566755Y-161770875D01*
X125911470Y-161769080D01*
X126249212Y-161700068D01*
X126550848Y-161575127D01*
X126649909Y-161293463D01*
X125730000Y-160373553D01*
X124810091Y-161293463D01*
X124396821Y-161293463D01*
X124433424Y-161263424D01*
X124488224Y-161196650D01*
X124549314Y-161135560D01*
X124597312Y-161063726D01*
X124652112Y-160996952D01*
X124692832Y-160920769D01*
X124740830Y-160848936D01*
X124773891Y-160769119D01*
X124814612Y-160692936D01*
X124839687Y-160610273D01*
X124872749Y-160530456D01*
X124874427Y-160522019D01*
X125376447Y-160020000D01*
X126083553Y-160020000D01*
X127003463Y-160939909D01*
X127285127Y-160840848D01*
X127415385Y-160521687D01*
X127480875Y-160183245D01*
X127479080Y-159838530D01*
X127410068Y-159500788D01*
X127285127Y-159199152D01*
X127003463Y-159100091D01*
X126083553Y-160020000D01*
X125376447Y-160020000D01*
X124874427Y-159517981D01*
X124872749Y-159509544D01*
X124839687Y-159429727D01*
X124814612Y-159347064D01*
X124773891Y-159270881D01*
X124740830Y-159191064D01*
X124692832Y-159119231D01*
X124652112Y-159043048D01*
X124597312Y-158976274D01*
X124549314Y-158904440D01*
X124488224Y-158843350D01*
X124433424Y-158776576D01*
X124397654Y-158747220D01*
X124460000Y-158684874D01*
X124614440Y-158839314D01*
X124901064Y-159030830D01*
X125219544Y-159162749D01*
X125227981Y-159164427D01*
X125730000Y-159666447D01*
X126232019Y-159164427D01*
X126240456Y-159162749D01*
X126558936Y-159030830D01*
X126845560Y-158839314D01*
X127089314Y-158595560D01*
X127280830Y-158308936D01*
X127412749Y-157990456D01*
X127480000Y-157652360D01*
X127480000Y-157307640D01*
X127412749Y-156969544D01*
X127280830Y-156651064D01*
X127089314Y-156364440D01*
X126934874Y-156210000D01*
X126953415Y-156191459D01*
X127000000Y-156196047D01*
X127061398Y-156190000D01*
X127061405Y-156190000D01*
X127245043Y-156171913D01*
X127480669Y-156100437D01*
X127697823Y-155984366D01*
X127888160Y-155828160D01*
X127927308Y-155780458D01*
X129110462Y-154597304D01*
X129158160Y-154558160D01*
X129314366Y-154367823D01*
X129430437Y-154150669D01*
X129501913Y-153915043D01*
X129520000Y-153731405D01*
X129520000Y-153731399D01*
X129526047Y-153670001D01*
X129520000Y-153608603D01*
X129520000Y-132141397D01*
X129526047Y-132079999D01*
X129520000Y-132018601D01*
X129520000Y-132018595D01*
X129501913Y-131834957D01*
X129430437Y-131599331D01*
X129314366Y-131382177D01*
X129158160Y-131191840D01*
X129110464Y-131152697D01*
X128595407Y-130637640D01*
X130330000Y-130637640D01*
X130330000Y-130982360D01*
X130397251Y-131320456D01*
X130529170Y-131638936D01*
X130720686Y-131925560D01*
X130875126Y-132080000D01*
X130720686Y-132234440D01*
X130529170Y-132521064D01*
X130397251Y-132839544D01*
X130330000Y-133177640D01*
X130330000Y-133522360D01*
X130397251Y-133860456D01*
X130529170Y-134178936D01*
X130720686Y-134465560D01*
X130875126Y-134620000D01*
X130720686Y-134774440D01*
X130529170Y-135061064D01*
X130397251Y-135379544D01*
X130330000Y-135717640D01*
X130330000Y-136062360D01*
X130397251Y-136400456D01*
X130529170Y-136718936D01*
X130720686Y-137005560D01*
X130964440Y-137249314D01*
X131251064Y-137440830D01*
X131569544Y-137572749D01*
X131907640Y-137640000D01*
X132252360Y-137640000D01*
X132590456Y-137572749D01*
X132908936Y-137440830D01*
X133195560Y-137249314D01*
X133439314Y-137005560D01*
X133630830Y-136718936D01*
X133762749Y-136400456D01*
X133830000Y-136062360D01*
X133830000Y-135717640D01*
X133762749Y-135379544D01*
X133630830Y-135061064D01*
X133439314Y-134774440D01*
X133284874Y-134620000D01*
X133439314Y-134465560D01*
X133630830Y-134178936D01*
X133762749Y-133860456D01*
X133830000Y-133522360D01*
X133830000Y-133177640D01*
X133762749Y-132839544D01*
X133630830Y-132521064D01*
X133439314Y-132234440D01*
X133284874Y-132080000D01*
X133439314Y-131925560D01*
X133630830Y-131638936D01*
X133762749Y-131320456D01*
X133830000Y-130982360D01*
X133830000Y-130637640D01*
X133762749Y-130299544D01*
X133630830Y-129981064D01*
X133439314Y-129694440D01*
X133195560Y-129450686D01*
X132908936Y-129259170D01*
X132590456Y-129127251D01*
X132582019Y-129125573D01*
X132080000Y-128623553D01*
X131577981Y-129125573D01*
X131569544Y-129127251D01*
X131251064Y-129259170D01*
X130964440Y-129450686D01*
X130720686Y-129694440D01*
X130529170Y-129981064D01*
X130397251Y-130299544D01*
X130330000Y-130637640D01*
X128595407Y-130637640D01*
X126980000Y-129022234D01*
X126980000Y-128106755D01*
X130329125Y-128106755D01*
X130330920Y-128451470D01*
X130399932Y-128789212D01*
X130524873Y-129090848D01*
X130806537Y-129189909D01*
X131726447Y-128270000D01*
X132433553Y-128270000D01*
X133353463Y-129189909D01*
X133635127Y-129090848D01*
X133765385Y-128771687D01*
X133830875Y-128433245D01*
X133829080Y-128088530D01*
X133760068Y-127750788D01*
X133635127Y-127449152D01*
X133353463Y-127350091D01*
X132433553Y-128270000D01*
X131726447Y-128270000D01*
X130806537Y-127350091D01*
X130524873Y-127449152D01*
X130394615Y-127768313D01*
X130329125Y-128106755D01*
X126980000Y-128106755D01*
X126980000Y-106634874D01*
X127000000Y-106614874D01*
X127020001Y-106634875D01*
X127020000Y-108011404D01*
X127020001Y-108011414D01*
X127020000Y-121858602D01*
X127013953Y-121920000D01*
X127020000Y-121981398D01*
X127020000Y-121981404D01*
X127038087Y-122165042D01*
X127109563Y-122400668D01*
X127225634Y-122617822D01*
X127381840Y-122808160D01*
X127429542Y-122847308D01*
X128612696Y-124030462D01*
X128651840Y-124078160D01*
X128842177Y-124234366D01*
X129059331Y-124350437D01*
X129294956Y-124421913D01*
X129320538Y-124424433D01*
X129478595Y-124440000D01*
X129478601Y-124440000D01*
X129539999Y-124446047D01*
X129601397Y-124440000D01*
X130855126Y-124440000D01*
X130875126Y-124460000D01*
X130720686Y-124614440D01*
X130529170Y-124901064D01*
X130397251Y-125219544D01*
X130330000Y-125557640D01*
X130330000Y-125902360D01*
X130397251Y-126240456D01*
X130529170Y-126558936D01*
X130720686Y-126845560D01*
X130964440Y-127089314D01*
X131251064Y-127280830D01*
X131569544Y-127412749D01*
X131577981Y-127414427D01*
X132080000Y-127916447D01*
X132582019Y-127414427D01*
X132590456Y-127412749D01*
X132908936Y-127280830D01*
X133195560Y-127089314D01*
X133439314Y-126845560D01*
X133630830Y-126558936D01*
X133762749Y-126240456D01*
X133830000Y-125902360D01*
X133830000Y-125557640D01*
X133762749Y-125219544D01*
X133630830Y-124901064D01*
X133439314Y-124614440D01*
X133284874Y-124460000D01*
X133439314Y-124305560D01*
X133630830Y-124018936D01*
X133762749Y-123700456D01*
X133830000Y-123362360D01*
X133830000Y-123017640D01*
X133762749Y-122679544D01*
X133630830Y-122361064D01*
X133439314Y-122074440D01*
X133284874Y-121920000D01*
X133439314Y-121765560D01*
X133630830Y-121478936D01*
X133762749Y-121160456D01*
X133830000Y-120822360D01*
X133830000Y-120477640D01*
X133762749Y-120139544D01*
X133630830Y-119821064D01*
X133439314Y-119534440D01*
X133284874Y-119380000D01*
X133439314Y-119225560D01*
X133630830Y-118938936D01*
X133762749Y-118620456D01*
X133830000Y-118282360D01*
X133830000Y-117937640D01*
X133762749Y-117599544D01*
X133630830Y-117281064D01*
X133439314Y-116994440D01*
X133284874Y-116840000D01*
X133439314Y-116685560D01*
X133630830Y-116398936D01*
X133762749Y-116080456D01*
X133830000Y-115742360D01*
X133830000Y-115397640D01*
X133762749Y-115059544D01*
X133630830Y-114741064D01*
X133439314Y-114454440D01*
X133284874Y-114300000D01*
X133439314Y-114145560D01*
X133630830Y-113858936D01*
X133762749Y-113540456D01*
X133830000Y-113202360D01*
X133830000Y-112857640D01*
X133762749Y-112519544D01*
X133630830Y-112201064D01*
X133439314Y-111914440D01*
X133284874Y-111760000D01*
X133439314Y-111605560D01*
X133630830Y-111318936D01*
X133762749Y-111000456D01*
X133830000Y-110662360D01*
X133830000Y-110317640D01*
X133762749Y-109979544D01*
X133630830Y-109661064D01*
X133439314Y-109374440D01*
X133284874Y-109220000D01*
X133439314Y-109065560D01*
X133630830Y-108778936D01*
X133762749Y-108460456D01*
X133830000Y-108122360D01*
X133830000Y-107777640D01*
X133762749Y-107439544D01*
X133630830Y-107121064D01*
X133439314Y-106834440D01*
X133284874Y-106680000D01*
X133439314Y-106525560D01*
X133630830Y-106238936D01*
X133762749Y-105920456D01*
X133830000Y-105582360D01*
X133830000Y-105237640D01*
X133762749Y-104899544D01*
X133630830Y-104581064D01*
X133439314Y-104294440D01*
X133284874Y-104140000D01*
X133439314Y-103985560D01*
X133630830Y-103698936D01*
X133762749Y-103380456D01*
X133830000Y-103042360D01*
X133830000Y-102697640D01*
X133762749Y-102359544D01*
X133630830Y-102041064D01*
X133439314Y-101754440D01*
X133284874Y-101600000D01*
X133439314Y-101445560D01*
X133630830Y-101158936D01*
X133762749Y-100840456D01*
X133830000Y-100502360D01*
X133830000Y-100157640D01*
X133762749Y-99819544D01*
X133630830Y-99501064D01*
X133439314Y-99214440D01*
X133195560Y-98970686D01*
X132908936Y-98779170D01*
X132590456Y-98647251D01*
X132252360Y-98580000D01*
X131907640Y-98580000D01*
X131569544Y-98647251D01*
X131251064Y-98779170D01*
X130964440Y-98970686D01*
X130855126Y-99080000D01*
X123251397Y-99080000D01*
X123189999Y-99073953D01*
X123128601Y-99080000D01*
X123128595Y-99080000D01*
X122970538Y-99095567D01*
X122944956Y-99098087D01*
X122890116Y-99114723D01*
X122709331Y-99169563D01*
X122492177Y-99285634D01*
X122301840Y-99441840D01*
X122262696Y-99489537D01*
X119809543Y-101942691D01*
X119761840Y-101981840D01*
X119605634Y-102172178D01*
X119489563Y-102389332D01*
X119418087Y-102624958D01*
X119400000Y-102808596D01*
X119400000Y-102808602D01*
X119393953Y-102870000D01*
X119400000Y-102931398D01*
X119400001Y-132018592D01*
X119393953Y-132080000D01*
X119418087Y-132325042D01*
X119489563Y-132560668D01*
X119489564Y-132560669D01*
X119605635Y-132777823D01*
X119761841Y-132968160D01*
X119809537Y-133007303D01*
X120971998Y-134169765D01*
X120822360Y-134140000D01*
X120477640Y-134140000D01*
X120139544Y-134207251D01*
X119821064Y-134339170D01*
X119534440Y-134530686D01*
X119290686Y-134774440D01*
X119099170Y-135061064D01*
X118967251Y-135379544D01*
X118900000Y-135717640D01*
X118900000Y-136062360D01*
X118967251Y-136400456D01*
X119099170Y-136718936D01*
X119290686Y-137005560D01*
X119400000Y-137114874D01*
X119400001Y-142285125D01*
X119290686Y-142394440D01*
X119099170Y-142681064D01*
X118967251Y-142999544D01*
X118900000Y-143337640D01*
X118900000Y-143682360D01*
X118967251Y-144020456D01*
X119099170Y-144338936D01*
X119290686Y-144625560D01*
X119534440Y-144869314D01*
X119821064Y-145060830D01*
X120139544Y-145192749D01*
X120477640Y-145260000D01*
X120822360Y-145260000D01*
X121160456Y-145192749D01*
X121478936Y-145060830D01*
X121765560Y-144869314D01*
X121940001Y-144694873D01*
X121940001Y-146095125D01*
X121830686Y-146204440D01*
X121639170Y-146491064D01*
X121507251Y-146809544D01*
X121440000Y-147147640D01*
X121440000Y-147492360D01*
X121507251Y-147830456D01*
X121639170Y-148148936D01*
X121830686Y-148435560D01*
X122005126Y-148610000D01*
X121981397Y-148610000D01*
X121919999Y-148603953D01*
X121858601Y-148610000D01*
X121858595Y-148610000D01*
X121700538Y-148625567D01*
X121674956Y-148628087D01*
X121598087Y-148651405D01*
X121439331Y-148699563D01*
X121222177Y-148815634D01*
X121031840Y-148971840D01*
X120992696Y-149019537D01*
X119809542Y-150202692D01*
X119761840Y-150241840D01*
X119605634Y-150432178D01*
X119489563Y-150649332D01*
X119418087Y-150884958D01*
X119400000Y-151068596D01*
X119400000Y-151068602D01*
X119393953Y-151130000D01*
X119400000Y-151191398D01*
X119400001Y-153608593D01*
X119393953Y-153670000D01*
X119418087Y-153915042D01*
X119489563Y-154150668D01*
X119489564Y-154150669D01*
X119605635Y-154367823D01*
X119761841Y-154558160D01*
X119809538Y-154597304D01*
X120992696Y-155780462D01*
X121031840Y-155828160D01*
X121222177Y-155984366D01*
X121439331Y-156100437D01*
X121674956Y-156171913D01*
X121700538Y-156174433D01*
X121858595Y-156190000D01*
X121858601Y-156190000D01*
X121919999Y-156196047D01*
X121966585Y-156191459D01*
X121985126Y-156210000D01*
X121830686Y-156364440D01*
X121639170Y-156651064D01*
X121507251Y-156969544D01*
X121440000Y-157307640D01*
X121440000Y-157652360D01*
X121507251Y-157990456D01*
X121623042Y-158270000D01*
X120104874Y-158270000D01*
X117320000Y-155485127D01*
X117320000Y-142325966D01*
X117328467Y-142240000D01*
X117307994Y-142032133D01*
X117294679Y-141896940D01*
X117194612Y-141567064D01*
X117194612Y-141567063D01*
X117032112Y-141263048D01*
X116868225Y-141063351D01*
X116868224Y-141063350D01*
X116813424Y-140996576D01*
X116746650Y-140941776D01*
X113510000Y-137705127D01*
X113510000Y-135717640D01*
X115090000Y-135717640D01*
X115090000Y-136062360D01*
X115157251Y-136400456D01*
X115289170Y-136718936D01*
X115480686Y-137005560D01*
X115724440Y-137249314D01*
X116011064Y-137440830D01*
X116329544Y-137572749D01*
X116667640Y-137640000D01*
X117012360Y-137640000D01*
X117350456Y-137572749D01*
X117668936Y-137440830D01*
X117955560Y-137249314D01*
X118199314Y-137005560D01*
X118390830Y-136718936D01*
X118522749Y-136400456D01*
X118590000Y-136062360D01*
X118590000Y-135717640D01*
X118522749Y-135379544D01*
X118390830Y-135061064D01*
X118199314Y-134774440D01*
X117955560Y-134530686D01*
X117668936Y-134339170D01*
X117350456Y-134207251D01*
X117342019Y-134205573D01*
X116840000Y-133703553D01*
X116337981Y-134205573D01*
X116329544Y-134207251D01*
X116011064Y-134339170D01*
X115724440Y-134530686D01*
X115480686Y-134774440D01*
X115289170Y-135061064D01*
X115157251Y-135379544D01*
X115090000Y-135717640D01*
X113510000Y-135717640D01*
X113510000Y-135344873D01*
X114206649Y-134648225D01*
X114273424Y-134593424D01*
X114341531Y-134510436D01*
X114492112Y-134326953D01*
X114592397Y-134139332D01*
X114654612Y-134022936D01*
X114754679Y-133693060D01*
X114780000Y-133435968D01*
X114780000Y-133435959D01*
X114788466Y-133350001D01*
X114780000Y-133264043D01*
X114780000Y-133186755D01*
X115089125Y-133186755D01*
X115090920Y-133531470D01*
X115159932Y-133869212D01*
X115284873Y-134170848D01*
X115566537Y-134269909D01*
X116486447Y-133350000D01*
X117193553Y-133350000D01*
X118113463Y-134269909D01*
X118395127Y-134170848D01*
X118525385Y-133851687D01*
X118590875Y-133513245D01*
X118589080Y-133168530D01*
X118520068Y-132830788D01*
X118395127Y-132529152D01*
X118113463Y-132430091D01*
X117193553Y-133350000D01*
X116486447Y-133350000D01*
X115566537Y-132430091D01*
X115284873Y-132529152D01*
X115154615Y-132848313D01*
X115089125Y-133186755D01*
X114780000Y-133186755D01*
X114780000Y-104864873D01*
X115024874Y-104620000D01*
X115273042Y-104620000D01*
X115157251Y-104899544D01*
X115090000Y-105237640D01*
X115090000Y-105582360D01*
X115157251Y-105920456D01*
X115289170Y-106238936D01*
X115480686Y-106525560D01*
X115635126Y-106680000D01*
X115480686Y-106834440D01*
X115289170Y-107121064D01*
X115157251Y-107439544D01*
X115090000Y-107777640D01*
X115090000Y-108122360D01*
X115157251Y-108460456D01*
X115289170Y-108778936D01*
X115480686Y-109065560D01*
X115635126Y-109220000D01*
X115480686Y-109374440D01*
X115289170Y-109661064D01*
X115157251Y-109979544D01*
X115090000Y-110317640D01*
X115090000Y-110662360D01*
X115157251Y-111000456D01*
X115289170Y-111318936D01*
X115480686Y-111605560D01*
X115635126Y-111760000D01*
X115480686Y-111914440D01*
X115289170Y-112201064D01*
X115157251Y-112519544D01*
X115090000Y-112857640D01*
X115090000Y-113202360D01*
X115157251Y-113540456D01*
X115289170Y-113858936D01*
X115480686Y-114145560D01*
X115635126Y-114300000D01*
X115480686Y-114454440D01*
X115289170Y-114741064D01*
X115157251Y-115059544D01*
X115090000Y-115397640D01*
X115090000Y-115742360D01*
X115157251Y-116080456D01*
X115289170Y-116398936D01*
X115480686Y-116685560D01*
X115635126Y-116840000D01*
X115480686Y-116994440D01*
X115289170Y-117281064D01*
X115157251Y-117599544D01*
X115090000Y-117937640D01*
X115090000Y-118282360D01*
X115157251Y-118620456D01*
X115289170Y-118938936D01*
X115480686Y-119225560D01*
X115635126Y-119380000D01*
X115480686Y-119534440D01*
X115289170Y-119821064D01*
X115157251Y-120139544D01*
X115090000Y-120477640D01*
X115090000Y-120822360D01*
X115157251Y-121160456D01*
X115289170Y-121478936D01*
X115480686Y-121765560D01*
X115635126Y-121920000D01*
X115480686Y-122074440D01*
X115289170Y-122361064D01*
X115157251Y-122679544D01*
X115090000Y-123017640D01*
X115090000Y-123362360D01*
X115157251Y-123700456D01*
X115289170Y-124018936D01*
X115480686Y-124305560D01*
X115635126Y-124460000D01*
X115480686Y-124614440D01*
X115289170Y-124901064D01*
X115157251Y-125219544D01*
X115090000Y-125557640D01*
X115090000Y-125902360D01*
X115157251Y-126240456D01*
X115289170Y-126558936D01*
X115480686Y-126845560D01*
X115635126Y-127000000D01*
X115480686Y-127154440D01*
X115289170Y-127441064D01*
X115157251Y-127759544D01*
X115090000Y-128097640D01*
X115090000Y-128442360D01*
X115157251Y-128780456D01*
X115289170Y-129098936D01*
X115480686Y-129385560D01*
X115635126Y-129540000D01*
X115480686Y-129694440D01*
X115289170Y-129981064D01*
X115157251Y-130299544D01*
X115090000Y-130637640D01*
X115090000Y-130982360D01*
X115157251Y-131320456D01*
X115289170Y-131638936D01*
X115480686Y-131925560D01*
X115724440Y-132169314D01*
X116011064Y-132360830D01*
X116329544Y-132492749D01*
X116337981Y-132494427D01*
X116840000Y-132996447D01*
X117342019Y-132494427D01*
X117350456Y-132492749D01*
X117668936Y-132360830D01*
X117955560Y-132169314D01*
X118199314Y-131925560D01*
X118390830Y-131638936D01*
X118522749Y-131320456D01*
X118590000Y-130982360D01*
X118590000Y-130637640D01*
X118522749Y-130299544D01*
X118390830Y-129981064D01*
X118199314Y-129694440D01*
X118044874Y-129540000D01*
X118199314Y-129385560D01*
X118390830Y-129098936D01*
X118522749Y-128780456D01*
X118590000Y-128442360D01*
X118590000Y-128097640D01*
X118522749Y-127759544D01*
X118390830Y-127441064D01*
X118199314Y-127154440D01*
X118044874Y-127000000D01*
X118199314Y-126845560D01*
X118390830Y-126558936D01*
X118522749Y-126240456D01*
X118590000Y-125902360D01*
X118590000Y-125557640D01*
X118522749Y-125219544D01*
X118390830Y-124901064D01*
X118199314Y-124614440D01*
X118044874Y-124460000D01*
X118199314Y-124305560D01*
X118390830Y-124018936D01*
X118522749Y-123700456D01*
X118590000Y-123362360D01*
X118590000Y-123017640D01*
X118522749Y-122679544D01*
X118390830Y-122361064D01*
X118199314Y-122074440D01*
X118044874Y-121920000D01*
X118199314Y-121765560D01*
X118390830Y-121478936D01*
X118522749Y-121160456D01*
X118590000Y-120822360D01*
X118590000Y-120477640D01*
X118522749Y-120139544D01*
X118390830Y-119821064D01*
X118199314Y-119534440D01*
X118044874Y-119380000D01*
X118199314Y-119225560D01*
X118390830Y-118938936D01*
X118522749Y-118620456D01*
X118590000Y-118282360D01*
X118590000Y-117937640D01*
X118522749Y-117599544D01*
X118390830Y-117281064D01*
X118199314Y-116994440D01*
X118044874Y-116840000D01*
X118199314Y-116685560D01*
X118390830Y-116398936D01*
X118522749Y-116080456D01*
X118590000Y-115742360D01*
X118590000Y-115397640D01*
X118522749Y-115059544D01*
X118390830Y-114741064D01*
X118199314Y-114454440D01*
X118044874Y-114300000D01*
X118199314Y-114145560D01*
X118390830Y-113858936D01*
X118522749Y-113540456D01*
X118590000Y-113202360D01*
X118590000Y-112857640D01*
X118522749Y-112519544D01*
X118390830Y-112201064D01*
X118199314Y-111914440D01*
X118044874Y-111760000D01*
X118199314Y-111605560D01*
X118390830Y-111318936D01*
X118522749Y-111000456D01*
X118590000Y-110662360D01*
X118590000Y-110317640D01*
X118522749Y-109979544D01*
X118390830Y-109661064D01*
X118199314Y-109374440D01*
X118044874Y-109220000D01*
X118199314Y-109065560D01*
X118390830Y-108778936D01*
X118522749Y-108460456D01*
X118590000Y-108122360D01*
X118590000Y-107777640D01*
X118522749Y-107439544D01*
X118390830Y-107121064D01*
X118199314Y-106834440D01*
X118044874Y-106680000D01*
X118199314Y-106525560D01*
X118390830Y-106238936D01*
X118522749Y-105920456D01*
X118590000Y-105582360D01*
X118590000Y-105237640D01*
X118522749Y-104899544D01*
X118390830Y-104581064D01*
X118199314Y-104294440D01*
X118047654Y-104142780D01*
X118083424Y-104113424D01*
X118138225Y-104046649D01*
X118199314Y-103985560D01*
X118247312Y-103913726D01*
X118302112Y-103846952D01*
X118342832Y-103770769D01*
X118390830Y-103698936D01*
X118423891Y-103619119D01*
X118464612Y-103542936D01*
X118489687Y-103460273D01*
X118522749Y-103380456D01*
X118539603Y-103295724D01*
X118564679Y-103213060D01*
X118573146Y-103127091D01*
X118590000Y-103042360D01*
X118590000Y-102955968D01*
X118598467Y-102870000D01*
X118590000Y-102784032D01*
X118590000Y-102697640D01*
X118573146Y-102612909D01*
X118564679Y-102526940D01*
X118539603Y-102444276D01*
X118522749Y-102359544D01*
X118489687Y-102279727D01*
X118464612Y-102197064D01*
X118423891Y-102120881D01*
X118390830Y-102041064D01*
X118342832Y-101969231D01*
X118302112Y-101893048D01*
X118247312Y-101826274D01*
X118199314Y-101754440D01*
X118138224Y-101693350D01*
X118083424Y-101626576D01*
X118047654Y-101597220D01*
X118199314Y-101445560D01*
X118390830Y-101158936D01*
X118522749Y-100840456D01*
X118590000Y-100502360D01*
X118590000Y-100157640D01*
X118522749Y-99819544D01*
X118390830Y-99501064D01*
X118199314Y-99214440D01*
X117955560Y-98970686D01*
X117668936Y-98779170D01*
X117350456Y-98647251D01*
X117012360Y-98580000D01*
X116667640Y-98580000D01*
X116329544Y-98647251D01*
X116011064Y-98779170D01*
X115724440Y-98970686D01*
X115480686Y-99214440D01*
X115289170Y-99501064D01*
X115157251Y-99819544D01*
X115090000Y-100157640D01*
X115090000Y-100502360D01*
X115157251Y-100840456D01*
X115273042Y-101120000D01*
X114385957Y-101120000D01*
X114299999Y-101111534D01*
X114214041Y-101120000D01*
X114214032Y-101120000D01*
X113956940Y-101145321D01*
X113627064Y-101245388D01*
X113489028Y-101319170D01*
X113323047Y-101407888D01*
X113197788Y-101510686D01*
X113056576Y-101626576D01*
X113001775Y-101693351D01*
X111853355Y-102841772D01*
X111786576Y-102896576D01*
X111731775Y-102963352D01*
X111567888Y-103163048D01*
X111541156Y-103213061D01*
X111405388Y-103467065D01*
X111305321Y-103796941D01*
X111293756Y-103914366D01*
X111271533Y-104140000D01*
X111280000Y-104225965D01*
X111280001Y-132625125D01*
X111035127Y-132870000D01*
X108674873Y-132870000D01*
X108613229Y-132808356D01*
X108613225Y-132808351D01*
X106442514Y-130637640D01*
X107470000Y-130637640D01*
X107470000Y-130982360D01*
X107537251Y-131320456D01*
X107669170Y-131638936D01*
X107860686Y-131925560D01*
X108104440Y-132169314D01*
X108391064Y-132360830D01*
X108709544Y-132492749D01*
X109047640Y-132560000D01*
X109392360Y-132560000D01*
X109730456Y-132492749D01*
X110048936Y-132360830D01*
X110335560Y-132169314D01*
X110579314Y-131925560D01*
X110770830Y-131638936D01*
X110902749Y-131320456D01*
X110970000Y-130982360D01*
X110970000Y-130637640D01*
X110902749Y-130299544D01*
X110770830Y-129981064D01*
X110579314Y-129694440D01*
X110335560Y-129450686D01*
X110048936Y-129259170D01*
X109730456Y-129127251D01*
X109672087Y-129115641D01*
X109220000Y-128663553D01*
X108767913Y-129115641D01*
X108709544Y-129127251D01*
X108391064Y-129259170D01*
X108104440Y-129450686D01*
X107860686Y-129694440D01*
X107669170Y-129981064D01*
X107537251Y-130299544D01*
X107470000Y-130637640D01*
X106442514Y-130637640D01*
X105438229Y-129633356D01*
X105383424Y-129566576D01*
X105116952Y-129347888D01*
X104812936Y-129185388D01*
X104483060Y-129085321D01*
X104225968Y-129060000D01*
X104225965Y-129060000D01*
X104140000Y-129051533D01*
X104054035Y-129060000D01*
X103184042Y-129060000D01*
X103285385Y-128811687D01*
X103350875Y-128473245D01*
X103349175Y-128146755D01*
X107469125Y-128146755D01*
X107470920Y-128491470D01*
X107539932Y-128829212D01*
X107664873Y-129130848D01*
X107946537Y-129229909D01*
X108866447Y-128310000D01*
X109573553Y-128310000D01*
X110493463Y-129229909D01*
X110775127Y-129130848D01*
X110905385Y-128811687D01*
X110970875Y-128473245D01*
X110969080Y-128128530D01*
X110900068Y-127790788D01*
X110775127Y-127489152D01*
X110493463Y-127390091D01*
X109573553Y-128310000D01*
X108866447Y-128310000D01*
X107946537Y-127390091D01*
X107664873Y-127489152D01*
X107534615Y-127808313D01*
X107469125Y-128146755D01*
X103349175Y-128146755D01*
X103349080Y-128128530D01*
X103280068Y-127790788D01*
X103155127Y-127489152D01*
X102873463Y-127390091D01*
X101953553Y-128310000D01*
X101967696Y-128324142D01*
X101614143Y-128677696D01*
X101600000Y-128663553D01*
X101147913Y-129115641D01*
X101089544Y-129127251D01*
X101009727Y-129160313D01*
X100927064Y-129185388D01*
X100850881Y-129226109D01*
X100771064Y-129259170D01*
X100699231Y-129307168D01*
X100623048Y-129347888D01*
X100556274Y-129402688D01*
X100484440Y-129450686D01*
X100423351Y-129511775D01*
X100356576Y-129566576D01*
X100301776Y-129633350D01*
X100240686Y-129694440D01*
X100192688Y-129766274D01*
X100137888Y-129833048D01*
X100097168Y-129909231D01*
X100049170Y-129981064D01*
X100016109Y-130060881D01*
X99975388Y-130137064D01*
X99950313Y-130219727D01*
X99917251Y-130299544D01*
X99900397Y-130384276D01*
X99875321Y-130466940D01*
X99866854Y-130552909D01*
X99850000Y-130637640D01*
X99850000Y-130724032D01*
X99841533Y-130810000D01*
X98590000Y-130810000D01*
X98590000Y-128146755D01*
X99849125Y-128146755D01*
X99850920Y-128491470D01*
X99919932Y-128829212D01*
X100044873Y-129130848D01*
X100326537Y-129229909D01*
X101246447Y-128310000D01*
X100326537Y-127390091D01*
X100044873Y-127489152D01*
X99914615Y-127808313D01*
X99849125Y-128146755D01*
X98590000Y-128146755D01*
X98590000Y-127036537D01*
X100680091Y-127036537D01*
X101600000Y-127956447D01*
X102519909Y-127036537D01*
X108300091Y-127036537D01*
X109220000Y-127956447D01*
X110139909Y-127036537D01*
X110040848Y-126754873D01*
X109721687Y-126624615D01*
X109383245Y-126559125D01*
X109038530Y-126560920D01*
X108700788Y-126629932D01*
X108399152Y-126754873D01*
X108300091Y-127036537D01*
X102519909Y-127036537D01*
X102420848Y-126754873D01*
X102101687Y-126624615D01*
X101763245Y-126559125D01*
X101418530Y-126560920D01*
X101080788Y-126629932D01*
X100779152Y-126754873D01*
X100680091Y-127036537D01*
X98590000Y-127036537D01*
X98590000Y-120343463D01*
X101950091Y-120343463D01*
X102049152Y-120625127D01*
X102368313Y-120755385D01*
X102706755Y-120820875D01*
X103051470Y-120819080D01*
X103389212Y-120750068D01*
X103690848Y-120625127D01*
X103789909Y-120343463D01*
X102870000Y-119423553D01*
X101950091Y-120343463D01*
X98590000Y-120343463D01*
X98590000Y-118906755D01*
X101119125Y-118906755D01*
X101120920Y-119251470D01*
X101189932Y-119589212D01*
X101314873Y-119890848D01*
X101596537Y-119989909D01*
X102516447Y-119070000D01*
X103223553Y-119070000D01*
X104143463Y-119989909D01*
X104425127Y-119890848D01*
X104555385Y-119571687D01*
X104620875Y-119233245D01*
X104619080Y-118888530D01*
X104550068Y-118550788D01*
X104425127Y-118249152D01*
X104143463Y-118150091D01*
X103223553Y-119070000D01*
X102516447Y-119070000D01*
X101596537Y-118150091D01*
X101314873Y-118249152D01*
X101184615Y-118568313D01*
X101119125Y-118906755D01*
X98590000Y-118906755D01*
X98590000Y-115397640D01*
X101120000Y-115397640D01*
X101120000Y-115742360D01*
X101187251Y-116080456D01*
X101319170Y-116398936D01*
X101510686Y-116685560D01*
X101754440Y-116929314D01*
X102041064Y-117120830D01*
X102359544Y-117252749D01*
X102697640Y-117320000D01*
X102865208Y-117320000D01*
X102688530Y-117320920D01*
X102350788Y-117389932D01*
X102049152Y-117514873D01*
X101950091Y-117796537D01*
X102870000Y-118716447D01*
X103789909Y-117796537D01*
X103690848Y-117514873D01*
X103371687Y-117384615D01*
X103037767Y-117320000D01*
X103042360Y-117320000D01*
X103380456Y-117252749D01*
X103698936Y-117120830D01*
X103985560Y-116929314D01*
X104229314Y-116685560D01*
X104420830Y-116398936D01*
X104552749Y-116080456D01*
X104620000Y-115742360D01*
X104620000Y-115397640D01*
X104552749Y-115059544D01*
X104420830Y-114741064D01*
X104229314Y-114454440D01*
X103985560Y-114210686D01*
X103698936Y-114019170D01*
X103380456Y-113887251D01*
X103042360Y-113820000D01*
X102697640Y-113820000D01*
X102359544Y-113887251D01*
X102041064Y-114019170D01*
X101754440Y-114210686D01*
X101510686Y-114454440D01*
X101319170Y-114741064D01*
X101187251Y-115059544D01*
X101120000Y-115397640D01*
X98590000Y-115397640D01*
X98590000Y-100157640D01*
X101120000Y-100157640D01*
X101120000Y-100502360D01*
X101187251Y-100840456D01*
X101319170Y-101158936D01*
X101510686Y-101445560D01*
X101754440Y-101689314D01*
X102041064Y-101880830D01*
X102359544Y-102012749D01*
X102697640Y-102080000D01*
X103042360Y-102080000D01*
X103380456Y-102012749D01*
X103698936Y-101880830D01*
X103985560Y-101689314D01*
X104071411Y-101603463D01*
X104490091Y-101603463D01*
X104589152Y-101885127D01*
X104908313Y-102015385D01*
X105246755Y-102080875D01*
X105591470Y-102079080D01*
X105929212Y-102010068D01*
X106230848Y-101885127D01*
X106329909Y-101603463D01*
X105410000Y-100683553D01*
X104490091Y-101603463D01*
X104071411Y-101603463D01*
X104229314Y-101445560D01*
X104420830Y-101158936D01*
X104552749Y-100840456D01*
X104554427Y-100832019D01*
X105056447Y-100330000D01*
X105763553Y-100330000D01*
X106265573Y-100832019D01*
X106267251Y-100840456D01*
X106399170Y-101158936D01*
X106590686Y-101445560D01*
X106834440Y-101689314D01*
X107121064Y-101880830D01*
X107439544Y-102012749D01*
X107777640Y-102080000D01*
X108122360Y-102080000D01*
X108460456Y-102012749D01*
X108778936Y-101880830D01*
X109065560Y-101689314D01*
X109309314Y-101445560D01*
X109500830Y-101158936D01*
X109632749Y-100840456D01*
X109700000Y-100502360D01*
X109700000Y-100157640D01*
X109632749Y-99819544D01*
X109500830Y-99501064D01*
X109309314Y-99214440D01*
X109065560Y-98970686D01*
X108778936Y-98779170D01*
X108460456Y-98647251D01*
X108122360Y-98580000D01*
X107777640Y-98580000D01*
X107439544Y-98647251D01*
X107121064Y-98779170D01*
X106834440Y-98970686D01*
X106590686Y-99214440D01*
X106399170Y-99501064D01*
X106267251Y-99819544D01*
X106265573Y-99827981D01*
X105763553Y-100330000D01*
X105056447Y-100330000D01*
X104554427Y-99827981D01*
X104552749Y-99819544D01*
X104420830Y-99501064D01*
X104229314Y-99214440D01*
X104071411Y-99056537D01*
X104490091Y-99056537D01*
X105410000Y-99976447D01*
X106329909Y-99056537D01*
X106230848Y-98774873D01*
X105911687Y-98644615D01*
X105573245Y-98579125D01*
X105228530Y-98580920D01*
X104890788Y-98649932D01*
X104589152Y-98774873D01*
X104490091Y-99056537D01*
X104071411Y-99056537D01*
X103985560Y-98970686D01*
X103698936Y-98779170D01*
X103380456Y-98647251D01*
X103042360Y-98580000D01*
X102697640Y-98580000D01*
X102359544Y-98647251D01*
X102041064Y-98779170D01*
X101754440Y-98970686D01*
X101510686Y-99214440D01*
X101319170Y-99501064D01*
X101187251Y-99819544D01*
X101120000Y-100157640D01*
X98590000Y-100157640D01*
X98590000Y-96050000D01*
X135090000Y-96050000D01*
X135090001Y-154608628D01*
G37*
%TD.AperFunction*%
%TD*%
M02*
