%TF.GenerationSoftware,KiCad,Pcbnew,(5.1.8)-1*%
%TF.CreationDate,2020-11-23T21:40:14-08:00*%
%TF.ProjectId,ard_lightshow,6172645f-6c69-4676-9874-73686f772e6b,rev?*%
%TF.SameCoordinates,Original*%
%TF.FileFunction,Soldermask,Top*%
%TF.FilePolarity,Negative*%
%FSLAX46Y46*%
G04 Gerber Fmt 4.6, Leading zero omitted, Abs format (unit mm)*
G04 Created by KiCad (PCBNEW (5.1.8)-1) date 2020-11-23 21:40:14*
%MOMM*%
%LPD*%
G01*
G04 APERTURE LIST*
%ADD10C,4.000000*%
G04 APERTURE END LIST*
D10*
%TO.C,U0*%
X132080000Y-130810000D03*
X132080000Y-128270000D03*
X132080000Y-125730000D03*
X132080000Y-123190000D03*
X132080000Y-120650000D03*
X132080000Y-118110000D03*
X132080000Y-115570000D03*
X132080000Y-113030000D03*
X132080000Y-110490000D03*
X132080000Y-107950000D03*
X132080000Y-105410000D03*
X132080000Y-102870000D03*
X132080000Y-100330000D03*
X116840000Y-135890000D03*
X116840000Y-133350000D03*
X116840000Y-130810000D03*
X116840000Y-128270000D03*
X116840000Y-125730000D03*
X116840000Y-123190000D03*
X116840000Y-120650000D03*
X116840000Y-118110000D03*
X116840000Y-115570000D03*
X116840000Y-113030000D03*
X116840000Y-110490000D03*
X116840000Y-107950000D03*
X116840000Y-105410000D03*
X116840000Y-102870000D03*
X116840000Y-100330000D03*
X132080000Y-133350000D03*
X132080000Y-135890000D03*
%TD*%
%TO.C,U3*%
X105410000Y-137160000D03*
X102870000Y-137160000D03*
%TD*%
%TO.C,C2*%
X109220000Y-128310000D03*
X109220000Y-130810000D03*
%TD*%
%TO.C,C0*%
X101600000Y-128310000D03*
X101600000Y-130810000D03*
%TD*%
%TO.C,C1*%
X102870000Y-115570000D03*
X102870000Y-119070000D03*
%TD*%
%TO.C,U2*%
X107950000Y-100330000D03*
X105410000Y-100330000D03*
X102870000Y-100330000D03*
%TD*%
%TO.C,U1*%
X125730000Y-160020000D03*
X125730000Y-157480000D03*
X125730000Y-154940000D03*
X125730000Y-152400000D03*
X123190000Y-152400000D03*
X123190000Y-154940000D03*
X123190000Y-157480000D03*
X123190000Y-160020000D03*
%TD*%
%TO.C,R1*%
G36*
G01*
X110730000Y-98440000D02*
X110730000Y-97140000D01*
G75*
G02*
X111730000Y-96140000I1000000J0D01*
G01*
X112430000Y-96140000D01*
G75*
G02*
X113430000Y-97140000I0J-1000000D01*
G01*
X113430000Y-98440000D01*
G75*
G02*
X112430000Y-99440000I-1000000J0D01*
G01*
X111730000Y-99440000D01*
G75*
G02*
X110730000Y-98440000I0J1000000D01*
G01*
G37*
G36*
G01*
X112630000Y-98440000D02*
X112630000Y-97140000D01*
G75*
G02*
X113630000Y-96140000I1000000J0D01*
G01*
X114330000Y-96140000D01*
G75*
G02*
X115330000Y-97140000I0J-1000000D01*
G01*
X115330000Y-98440000D01*
G75*
G02*
X114330000Y-99440000I-1000000J0D01*
G01*
X113630000Y-99440000D01*
G75*
G02*
X112630000Y-98440000I0J1000000D01*
G01*
G37*
%TD*%
%TO.C,R0*%
G36*
G01*
X115330000Y-107300000D02*
X115330000Y-108600000D01*
G75*
G02*
X114330000Y-109600000I-1000000J0D01*
G01*
X113630000Y-109600000D01*
G75*
G02*
X112630000Y-108600000I0J1000000D01*
G01*
X112630000Y-107300000D01*
G75*
G02*
X113630000Y-106300000I1000000J0D01*
G01*
X114330000Y-106300000D01*
G75*
G02*
X115330000Y-107300000I0J-1000000D01*
G01*
G37*
G36*
G01*
X113430000Y-107300000D02*
X113430000Y-108600000D01*
G75*
G02*
X112430000Y-109600000I-1000000J0D01*
G01*
X111730000Y-109600000D01*
G75*
G02*
X110730000Y-108600000I0J1000000D01*
G01*
X110730000Y-107300000D01*
G75*
G02*
X111730000Y-106300000I1000000J0D01*
G01*
X112430000Y-106300000D01*
G75*
G02*
X113430000Y-107300000I0J-1000000D01*
G01*
G37*
%TD*%
M02*
