%TF.GenerationSoftware,KiCad,Pcbnew,(5.1.8)-1*%
%TF.CreationDate,2020-11-19T18:48:43-08:00*%
%TF.ProjectId,ard_lightshow,6172645f-6c69-4676-9874-73686f772e6b,rev?*%
%TF.SameCoordinates,Original*%
%TF.FileFunction,Legend,Top*%
%TF.FilePolarity,Positive*%
%FSLAX46Y46*%
G04 Gerber Fmt 4.6, Leading zero omitted, Abs format (unit mm)*
G04 Created by KiCad (PCBNEW (5.1.8)-1) date 2020-11-19 18:48:43*
%MOMM*%
%LPD*%
G01*
G04 APERTURE LIST*
%ADD10C,0.150000*%
%ADD11C,0.120000*%
G04 APERTURE END LIST*
D10*
X112847380Y-124822976D02*
X112371190Y-125156309D01*
X112847380Y-125394404D02*
X111847380Y-125394404D01*
X111847380Y-125013452D01*
X111895000Y-124918214D01*
X111942619Y-124870595D01*
X112037857Y-124822976D01*
X112180714Y-124822976D01*
X112275952Y-124870595D01*
X112323571Y-124918214D01*
X112371190Y-125013452D01*
X112371190Y-125394404D01*
X112323571Y-124394404D02*
X112323571Y-124061071D01*
X112847380Y-123918214D02*
X112847380Y-124394404D01*
X111847380Y-124394404D01*
X111847380Y-123918214D01*
X111847380Y-123632500D02*
X112847380Y-123299166D01*
X111847380Y-122965833D01*
X112847380Y-121346785D02*
X112847380Y-121918214D01*
X112847380Y-121632500D02*
X111847380Y-121632500D01*
X111990238Y-121727738D01*
X112085476Y-121822976D01*
X112133095Y-121918214D01*
X112752142Y-120918214D02*
X112799761Y-120870595D01*
X112847380Y-120918214D01*
X112799761Y-120965833D01*
X112752142Y-120918214D01*
X112847380Y-120918214D01*
X112847380Y-119918214D02*
X112847380Y-120489642D01*
X112847380Y-120203928D02*
X111847380Y-120203928D01*
X111990238Y-120299166D01*
X112085476Y-120394404D01*
X112133095Y-120489642D01*
X110656666Y-125442023D02*
X110656666Y-124965833D01*
X110942380Y-125537261D02*
X109942380Y-125203928D01*
X110942380Y-124870595D01*
X110942380Y-123965833D02*
X110466190Y-124299166D01*
X110942380Y-124537261D02*
X109942380Y-124537261D01*
X109942380Y-124156309D01*
X109990000Y-124061071D01*
X110037619Y-124013452D01*
X110132857Y-123965833D01*
X110275714Y-123965833D01*
X110370952Y-124013452D01*
X110418571Y-124061071D01*
X110466190Y-124156309D01*
X110466190Y-124537261D01*
X110942380Y-123537261D02*
X109942380Y-123537261D01*
X109942380Y-123299166D01*
X109990000Y-123156309D01*
X110085238Y-123061071D01*
X110180476Y-123013452D01*
X110370952Y-122965833D01*
X110513809Y-122965833D01*
X110704285Y-123013452D01*
X110799523Y-123061071D01*
X110894761Y-123156309D01*
X110942380Y-123299166D01*
X110942380Y-123537261D01*
X110561428Y-122537261D02*
X110561428Y-121775357D01*
X110942380Y-120822976D02*
X110942380Y-121299166D01*
X109942380Y-121299166D01*
X110942380Y-120489642D02*
X109942380Y-120489642D01*
X109990000Y-119489642D02*
X109942380Y-119584880D01*
X109942380Y-119727738D01*
X109990000Y-119870595D01*
X110085238Y-119965833D01*
X110180476Y-120013452D01*
X110370952Y-120061071D01*
X110513809Y-120061071D01*
X110704285Y-120013452D01*
X110799523Y-119965833D01*
X110894761Y-119870595D01*
X110942380Y-119727738D01*
X110942380Y-119632500D01*
X110894761Y-119489642D01*
X110847142Y-119442023D01*
X110513809Y-119442023D01*
X110513809Y-119632500D01*
X110942380Y-119013452D02*
X109942380Y-119013452D01*
X110418571Y-119013452D02*
X110418571Y-118442023D01*
X110942380Y-118442023D02*
X109942380Y-118442023D01*
X109942380Y-118108690D02*
X109942380Y-117537261D01*
X110942380Y-117822976D02*
X109942380Y-117822976D01*
X110894761Y-117251547D02*
X110942380Y-117108690D01*
X110942380Y-116870595D01*
X110894761Y-116775357D01*
X110847142Y-116727738D01*
X110751904Y-116680119D01*
X110656666Y-116680119D01*
X110561428Y-116727738D01*
X110513809Y-116775357D01*
X110466190Y-116870595D01*
X110418571Y-117061071D01*
X110370952Y-117156309D01*
X110323333Y-117203928D01*
X110228095Y-117251547D01*
X110132857Y-117251547D01*
X110037619Y-117203928D01*
X109990000Y-117156309D01*
X109942380Y-117061071D01*
X109942380Y-116822976D01*
X109990000Y-116680119D01*
X110942380Y-116251547D02*
X109942380Y-116251547D01*
X110418571Y-116251547D02*
X110418571Y-115680119D01*
X110942380Y-115680119D02*
X109942380Y-115680119D01*
X109942380Y-115013452D02*
X109942380Y-114822976D01*
X109990000Y-114727738D01*
X110085238Y-114632500D01*
X110275714Y-114584880D01*
X110609047Y-114584880D01*
X110799523Y-114632500D01*
X110894761Y-114727738D01*
X110942380Y-114822976D01*
X110942380Y-115013452D01*
X110894761Y-115108690D01*
X110799523Y-115203928D01*
X110609047Y-115251547D01*
X110275714Y-115251547D01*
X110085238Y-115203928D01*
X109990000Y-115108690D01*
X109942380Y-115013452D01*
X109942380Y-114251547D02*
X110942380Y-114013452D01*
X110228095Y-113822976D01*
X110942380Y-113632500D01*
X109942380Y-113394404D01*
%TO.C,U3*%
X106680000Y-140970000D02*
G75*
G03*
X109220000Y-138430000I0J2540000D01*
G01*
X99060000Y-138430000D02*
G75*
G03*
X101600000Y-140970000I2540000J0D01*
G01*
X101600000Y-133350000D02*
G75*
G03*
X99060000Y-135890000I0J-2540000D01*
G01*
X109220000Y-135890000D02*
G75*
G03*
X106680000Y-133350000I-2540000J0D01*
G01*
%TO.C,U2*%
X109220000Y-111760000D02*
G75*
G03*
X111760000Y-109220000I0J2540000D01*
G01*
X99060000Y-109220000D02*
G75*
G03*
X101600000Y-111760000I2540000J0D01*
G01*
X101600000Y-96520000D02*
G75*
G03*
X99060000Y-99060000I0J-2540000D01*
G01*
X111760000Y-99060000D02*
G75*
G03*
X109220000Y-96520000I-2540000J0D01*
G01*
%TO.C,U1*%
X99060000Y-160020000D02*
G75*
G03*
X101600000Y-162560000I2540000J0D01*
G01*
X101600000Y-142240000D02*
G75*
G03*
X99060000Y-144780000I0J-2540000D01*
G01*
X128270000Y-144780000D02*
G75*
G03*
X125730000Y-142240000I-2540000J0D01*
G01*
X125730000Y-162560000D02*
G75*
G03*
X128270000Y-160020000I0J2540000D01*
G01*
%TO.C,U0*%
X116840000Y-96520000D02*
G75*
G03*
X114300000Y-99060000I0J-2540000D01*
G01*
X134620000Y-99060000D02*
G75*
G03*
X132080000Y-96520000I-2540000J0D01*
G01*
X132080000Y-139700000D02*
G75*
G03*
X134620000Y-137160000I0J2540000D01*
G01*
X114300000Y-137160000D02*
G75*
G03*
X116840000Y-139700000I2540000J0D01*
G01*
D11*
%TO.C,C2*%
X106670000Y-129560000D02*
X111770000Y-129560000D01*
X106670000Y-129520000D02*
X111770000Y-129520000D01*
X106671000Y-129480000D02*
X111769000Y-129480000D01*
X106672000Y-129440000D02*
X111768000Y-129440000D01*
X106674000Y-129400000D02*
X111766000Y-129400000D01*
X106677000Y-129360000D02*
X111763000Y-129360000D01*
X106681000Y-129320000D02*
X111759000Y-129320000D01*
X106685000Y-129280000D02*
X108240000Y-129280000D01*
X110200000Y-129280000D02*
X111755000Y-129280000D01*
X106689000Y-129240000D02*
X108240000Y-129240000D01*
X110200000Y-129240000D02*
X111751000Y-129240000D01*
X106695000Y-129200000D02*
X108240000Y-129200000D01*
X110200000Y-129200000D02*
X111745000Y-129200000D01*
X106701000Y-129160000D02*
X108240000Y-129160000D01*
X110200000Y-129160000D02*
X111739000Y-129160000D01*
X106707000Y-129120000D02*
X108240000Y-129120000D01*
X110200000Y-129120000D02*
X111733000Y-129120000D01*
X106714000Y-129080000D02*
X108240000Y-129080000D01*
X110200000Y-129080000D02*
X111726000Y-129080000D01*
X106722000Y-129040000D02*
X108240000Y-129040000D01*
X110200000Y-129040000D02*
X111718000Y-129040000D01*
X106731000Y-129000000D02*
X108240000Y-129000000D01*
X110200000Y-129000000D02*
X111709000Y-129000000D01*
X106740000Y-128960000D02*
X108240000Y-128960000D01*
X110200000Y-128960000D02*
X111700000Y-128960000D01*
X106750000Y-128920000D02*
X108240000Y-128920000D01*
X110200000Y-128920000D02*
X111690000Y-128920000D01*
X106760000Y-128880000D02*
X108240000Y-128880000D01*
X110200000Y-128880000D02*
X111680000Y-128880000D01*
X106772000Y-128839000D02*
X108240000Y-128839000D01*
X110200000Y-128839000D02*
X111668000Y-128839000D01*
X106784000Y-128799000D02*
X108240000Y-128799000D01*
X110200000Y-128799000D02*
X111656000Y-128799000D01*
X106796000Y-128759000D02*
X108240000Y-128759000D01*
X110200000Y-128759000D02*
X111644000Y-128759000D01*
X106810000Y-128719000D02*
X108240000Y-128719000D01*
X110200000Y-128719000D02*
X111630000Y-128719000D01*
X106824000Y-128679000D02*
X108240000Y-128679000D01*
X110200000Y-128679000D02*
X111616000Y-128679000D01*
X106838000Y-128639000D02*
X108240000Y-128639000D01*
X110200000Y-128639000D02*
X111602000Y-128639000D01*
X106854000Y-128599000D02*
X108240000Y-128599000D01*
X110200000Y-128599000D02*
X111586000Y-128599000D01*
X106870000Y-128559000D02*
X108240000Y-128559000D01*
X110200000Y-128559000D02*
X111570000Y-128559000D01*
X106887000Y-128519000D02*
X108240000Y-128519000D01*
X110200000Y-128519000D02*
X111553000Y-128519000D01*
X106905000Y-128479000D02*
X108240000Y-128479000D01*
X110200000Y-128479000D02*
X111535000Y-128479000D01*
X106924000Y-128439000D02*
X108240000Y-128439000D01*
X110200000Y-128439000D02*
X111516000Y-128439000D01*
X106944000Y-128399000D02*
X108240000Y-128399000D01*
X110200000Y-128399000D02*
X111496000Y-128399000D01*
X106964000Y-128359000D02*
X108240000Y-128359000D01*
X110200000Y-128359000D02*
X111476000Y-128359000D01*
X106986000Y-128319000D02*
X108240000Y-128319000D01*
X110200000Y-128319000D02*
X111454000Y-128319000D01*
X107008000Y-128279000D02*
X108240000Y-128279000D01*
X110200000Y-128279000D02*
X111432000Y-128279000D01*
X107031000Y-128239000D02*
X108240000Y-128239000D01*
X110200000Y-128239000D02*
X111409000Y-128239000D01*
X107055000Y-128199000D02*
X108240000Y-128199000D01*
X110200000Y-128199000D02*
X111385000Y-128199000D01*
X107080000Y-128159000D02*
X108240000Y-128159000D01*
X110200000Y-128159000D02*
X111360000Y-128159000D01*
X107107000Y-128119000D02*
X108240000Y-128119000D01*
X110200000Y-128119000D02*
X111333000Y-128119000D01*
X107134000Y-128079000D02*
X108240000Y-128079000D01*
X110200000Y-128079000D02*
X111306000Y-128079000D01*
X107162000Y-128039000D02*
X108240000Y-128039000D01*
X110200000Y-128039000D02*
X111278000Y-128039000D01*
X107192000Y-127999000D02*
X108240000Y-127999000D01*
X110200000Y-127999000D02*
X111248000Y-127999000D01*
X107223000Y-127959000D02*
X108240000Y-127959000D01*
X110200000Y-127959000D02*
X111217000Y-127959000D01*
X107255000Y-127919000D02*
X108240000Y-127919000D01*
X110200000Y-127919000D02*
X111185000Y-127919000D01*
X107288000Y-127879000D02*
X108240000Y-127879000D01*
X110200000Y-127879000D02*
X111152000Y-127879000D01*
X107323000Y-127839000D02*
X108240000Y-127839000D01*
X110200000Y-127839000D02*
X111117000Y-127839000D01*
X107359000Y-127799000D02*
X108240000Y-127799000D01*
X110200000Y-127799000D02*
X111081000Y-127799000D01*
X107397000Y-127759000D02*
X108240000Y-127759000D01*
X110200000Y-127759000D02*
X111043000Y-127759000D01*
X107437000Y-127719000D02*
X108240000Y-127719000D01*
X110200000Y-127719000D02*
X111003000Y-127719000D01*
X107478000Y-127679000D02*
X108240000Y-127679000D01*
X110200000Y-127679000D02*
X110962000Y-127679000D01*
X107521000Y-127639000D02*
X108240000Y-127639000D01*
X110200000Y-127639000D02*
X110919000Y-127639000D01*
X107566000Y-127599000D02*
X108240000Y-127599000D01*
X110200000Y-127599000D02*
X110874000Y-127599000D01*
X107614000Y-127559000D02*
X108240000Y-127559000D01*
X110200000Y-127559000D02*
X110826000Y-127559000D01*
X107664000Y-127519000D02*
X108240000Y-127519000D01*
X110200000Y-127519000D02*
X110776000Y-127519000D01*
X107716000Y-127479000D02*
X108240000Y-127479000D01*
X110200000Y-127479000D02*
X110724000Y-127479000D01*
X107772000Y-127439000D02*
X108240000Y-127439000D01*
X110200000Y-127439000D02*
X110668000Y-127439000D01*
X107830000Y-127399000D02*
X108240000Y-127399000D01*
X110200000Y-127399000D02*
X110610000Y-127399000D01*
X107893000Y-127359000D02*
X108240000Y-127359000D01*
X110200000Y-127359000D02*
X110547000Y-127359000D01*
X107959000Y-127319000D02*
X110481000Y-127319000D01*
X108031000Y-127279000D02*
X110409000Y-127279000D01*
X108108000Y-127239000D02*
X110332000Y-127239000D01*
X108192000Y-127199000D02*
X110248000Y-127199000D01*
X108286000Y-127159000D02*
X110154000Y-127159000D01*
X108391000Y-127119000D02*
X110049000Y-127119000D01*
X108513000Y-127079000D02*
X109927000Y-127079000D01*
X108661000Y-127039000D02*
X109779000Y-127039000D01*
X108866000Y-126999000D02*
X109574000Y-126999000D01*
X109220000Y-133010000D02*
X109220000Y-131810000D01*
X108570000Y-132410000D02*
X109870000Y-132410000D01*
X108040277Y-127254278D02*
G75*
G03*
X108040000Y-131865580I1179723J-2305722D01*
G01*
X110399723Y-127254278D02*
G75*
G02*
X110400000Y-131865580I-1179723J-2305722D01*
G01*
X110399723Y-127254278D02*
G75*
G03*
X108040000Y-127254420I-1179723J-2305722D01*
G01*
%TO.C,R1*%
X113280000Y-97260000D02*
X112780000Y-97260000D01*
X112780000Y-98320000D02*
X113280000Y-98320000D01*
%TO.C,R0*%
X112780000Y-108480000D02*
X113280000Y-108480000D01*
X113280000Y-107420000D02*
X112780000Y-107420000D01*
D10*
%TO.C, *%
X129144700Y-142690560D02*
X129045640Y-143290000D01*
X129243760Y-142289240D02*
X129144700Y-142690560D01*
X129546020Y-141788860D02*
X129243760Y-142289240D01*
X130043860Y-141291020D02*
X129546020Y-141788860D01*
X130544240Y-140988760D02*
X130043860Y-141291020D01*
X131146220Y-140790640D02*
X130544240Y-140988760D01*
X131745660Y-140790640D02*
X131146220Y-140790640D01*
X132345100Y-140889700D02*
X131745660Y-140790640D01*
X133046140Y-141291020D02*
X132345100Y-140889700D01*
X133543980Y-141788860D02*
X133046140Y-141291020D01*
X133846240Y-142390840D02*
X133543980Y-141788860D01*
X134044360Y-142990280D02*
X133846240Y-142390840D01*
X134044360Y-143790380D02*
X134044360Y-142990280D01*
X133744640Y-144488880D02*
X134044360Y-143790380D01*
X133345860Y-144989260D02*
X133744640Y-144488880D01*
X132644820Y-145591240D02*
X133345860Y-144989260D01*
X131844720Y-145789360D02*
X132644820Y-145591240D01*
X131245280Y-145789360D02*
X131844720Y-145789360D01*
X130744900Y-145690300D02*
X131245280Y-145789360D01*
X130346120Y-145489640D02*
X130744900Y-145690300D01*
X129744140Y-144989260D02*
X130346120Y-145489640D01*
X129345360Y-144488880D02*
X129744140Y-144989260D01*
X129144700Y-143991040D02*
X129345360Y-144488880D01*
X129045640Y-143389060D02*
X129144700Y-143991040D01*
X129045640Y-143290000D02*
X129045640Y-143389060D01*
X130395000Y-143540000D02*
X130345000Y-143290000D01*
X130595000Y-143790000D02*
X130395000Y-143540000D01*
X131095000Y-143940000D02*
X130595000Y-143790000D01*
X131595000Y-144040000D02*
X131095000Y-143940000D01*
X132145000Y-143940000D02*
X131595000Y-144040000D01*
X132545000Y-143790000D02*
X132145000Y-143940000D01*
X132795000Y-143540000D02*
X132545000Y-143790000D01*
X132845000Y-143240000D02*
X132795000Y-143540000D01*
X132645000Y-142940000D02*
X132845000Y-143240000D01*
X132395000Y-142790000D02*
X132645000Y-142940000D01*
X131945000Y-142590000D02*
X132395000Y-142790000D01*
X131595000Y-142590000D02*
X131945000Y-142590000D01*
X131145000Y-142590000D02*
X131595000Y-142590000D01*
X130745000Y-142740000D02*
X131145000Y-142590000D01*
X130445000Y-142990000D02*
X130745000Y-142740000D01*
X130345000Y-143290000D02*
X130445000Y-142990000D01*
X129094700Y-148540560D02*
X128995640Y-149140000D01*
X129193760Y-148139240D02*
X129094700Y-148540560D01*
X129496020Y-147638860D02*
X129193760Y-148139240D01*
X129993860Y-147141020D02*
X129496020Y-147638860D01*
X130494240Y-146838760D02*
X129993860Y-147141020D01*
X131096220Y-146640640D02*
X130494240Y-146838760D01*
X131695660Y-146640640D02*
X131096220Y-146640640D01*
X132295100Y-146739700D02*
X131695660Y-146640640D01*
X132996140Y-147141020D02*
X132295100Y-146739700D01*
X133493980Y-147638860D02*
X132996140Y-147141020D01*
X133796240Y-148240840D02*
X133493980Y-147638860D01*
X133994360Y-148840280D02*
X133796240Y-148240840D01*
X133994360Y-149640380D02*
X133994360Y-148840280D01*
X133694640Y-150338880D02*
X133994360Y-149640380D01*
X133295860Y-150839260D02*
X133694640Y-150338880D01*
X132594820Y-151441240D02*
X133295860Y-150839260D01*
X131794720Y-151639360D02*
X132594820Y-151441240D01*
X131195280Y-151639360D02*
X131794720Y-151639360D01*
X130694900Y-151540300D02*
X131195280Y-151639360D01*
X130296120Y-151339640D02*
X130694900Y-151540300D01*
X129694140Y-150839260D02*
X130296120Y-151339640D01*
X129295360Y-150338880D02*
X129694140Y-150839260D01*
X129094700Y-149841040D02*
X129295360Y-150338880D01*
X128995640Y-149239060D02*
X129094700Y-149841040D01*
X128995640Y-149140000D02*
X128995640Y-149239060D01*
X132495760Y-149739440D02*
X132295100Y-149538780D01*
X132495760Y-150140760D02*
X132495760Y-149739440D01*
X132394160Y-150440480D02*
X132495760Y-150140760D01*
X132094440Y-150641140D02*
X132394160Y-150440480D01*
X131594060Y-150740200D02*
X132094440Y-150641140D01*
X131195280Y-150740200D02*
X131594060Y-150740200D01*
X130793960Y-150641140D02*
X131195280Y-150740200D01*
X130595840Y-150338880D02*
X130793960Y-150641140D01*
X130494240Y-149940100D02*
X130595840Y-150338880D01*
X130595840Y-149640380D02*
X130494240Y-149940100D01*
X130694900Y-149538780D02*
X130595840Y-149640380D01*
X132495760Y-147638860D02*
X132295100Y-147539800D01*
X132495760Y-147941120D02*
X132495760Y-147638860D01*
X132495760Y-148139240D02*
X132495760Y-147941120D01*
X132295100Y-148540560D02*
X132495760Y-148139240D01*
X131893780Y-148741220D02*
X132295100Y-148540560D01*
X131495000Y-148741220D02*
X131893780Y-148741220D01*
X130994620Y-148639620D02*
X131495000Y-148741220D01*
X130595840Y-148438960D02*
X130994620Y-148639620D01*
X130494240Y-148139240D02*
X130595840Y-148438960D01*
X130494240Y-147839520D02*
X130494240Y-148139240D01*
X130595840Y-147638860D02*
X130494240Y-147839520D01*
X130694900Y-147539800D02*
X130595840Y-147638860D01*
X130745000Y-142740000D02*
X132295000Y-143790000D01*
D11*
%TO.C,C1*%
X106960000Y-117320000D02*
G75*
G03*
X106960000Y-117320000I-4090000J0D01*
G01*
X106920000Y-117320000D02*
X98820000Y-117320000D01*
X106920000Y-117360000D02*
X98820000Y-117360000D01*
X106920000Y-117400000D02*
X98820000Y-117400000D01*
X106919000Y-117440000D02*
X98821000Y-117440000D01*
X106917000Y-117480000D02*
X98823000Y-117480000D01*
X106916000Y-117520000D02*
X98824000Y-117520000D01*
X106913000Y-117560000D02*
X98827000Y-117560000D01*
X106911000Y-117600000D02*
X98829000Y-117600000D01*
X106908000Y-117640000D02*
X98832000Y-117640000D01*
X106905000Y-117680000D02*
X98835000Y-117680000D01*
X106901000Y-117720000D02*
X98839000Y-117720000D01*
X106897000Y-117760000D02*
X98843000Y-117760000D01*
X106892000Y-117800000D02*
X98848000Y-117800000D01*
X106887000Y-117840000D02*
X98853000Y-117840000D01*
X106882000Y-117880000D02*
X98858000Y-117880000D01*
X106876000Y-117920000D02*
X98864000Y-117920000D01*
X106870000Y-117960000D02*
X98870000Y-117960000D01*
X106864000Y-118000000D02*
X98876000Y-118000000D01*
X106857000Y-118041000D02*
X98883000Y-118041000D01*
X106849000Y-118081000D02*
X98891000Y-118081000D01*
X106841000Y-118121000D02*
X103850000Y-118121000D01*
X101890000Y-118121000D02*
X98899000Y-118121000D01*
X106833000Y-118161000D02*
X103850000Y-118161000D01*
X101890000Y-118161000D02*
X98907000Y-118161000D01*
X106825000Y-118201000D02*
X103850000Y-118201000D01*
X101890000Y-118201000D02*
X98915000Y-118201000D01*
X106816000Y-118241000D02*
X103850000Y-118241000D01*
X101890000Y-118241000D02*
X98924000Y-118241000D01*
X106806000Y-118281000D02*
X103850000Y-118281000D01*
X101890000Y-118281000D02*
X98934000Y-118281000D01*
X106796000Y-118321000D02*
X103850000Y-118321000D01*
X101890000Y-118321000D02*
X98944000Y-118321000D01*
X106786000Y-118361000D02*
X103850000Y-118361000D01*
X101890000Y-118361000D02*
X98954000Y-118361000D01*
X106775000Y-118401000D02*
X103850000Y-118401000D01*
X101890000Y-118401000D02*
X98965000Y-118401000D01*
X106764000Y-118441000D02*
X103850000Y-118441000D01*
X101890000Y-118441000D02*
X98976000Y-118441000D01*
X106753000Y-118481000D02*
X103850000Y-118481000D01*
X101890000Y-118481000D02*
X98987000Y-118481000D01*
X106740000Y-118521000D02*
X103850000Y-118521000D01*
X101890000Y-118521000D02*
X99000000Y-118521000D01*
X106728000Y-118561000D02*
X103850000Y-118561000D01*
X101890000Y-118561000D02*
X99012000Y-118561000D01*
X106715000Y-118601000D02*
X103850000Y-118601000D01*
X101890000Y-118601000D02*
X99025000Y-118601000D01*
X106702000Y-118641000D02*
X103850000Y-118641000D01*
X101890000Y-118641000D02*
X99038000Y-118641000D01*
X106688000Y-118681000D02*
X103850000Y-118681000D01*
X101890000Y-118681000D02*
X99052000Y-118681000D01*
X106673000Y-118721000D02*
X103850000Y-118721000D01*
X101890000Y-118721000D02*
X99067000Y-118721000D01*
X106659000Y-118761000D02*
X103850000Y-118761000D01*
X101890000Y-118761000D02*
X99081000Y-118761000D01*
X106643000Y-118801000D02*
X103850000Y-118801000D01*
X101890000Y-118801000D02*
X99097000Y-118801000D01*
X106628000Y-118841000D02*
X103850000Y-118841000D01*
X101890000Y-118841000D02*
X99112000Y-118841000D01*
X106611000Y-118881000D02*
X103850000Y-118881000D01*
X101890000Y-118881000D02*
X99129000Y-118881000D01*
X106595000Y-118921000D02*
X103850000Y-118921000D01*
X101890000Y-118921000D02*
X99145000Y-118921000D01*
X106577000Y-118961000D02*
X103850000Y-118961000D01*
X101890000Y-118961000D02*
X99163000Y-118961000D01*
X106560000Y-119001000D02*
X103850000Y-119001000D01*
X101890000Y-119001000D02*
X99180000Y-119001000D01*
X106541000Y-119041000D02*
X103850000Y-119041000D01*
X101890000Y-119041000D02*
X99199000Y-119041000D01*
X106522000Y-119081000D02*
X103850000Y-119081000D01*
X101890000Y-119081000D02*
X99218000Y-119081000D01*
X106503000Y-119121000D02*
X103850000Y-119121000D01*
X101890000Y-119121000D02*
X99237000Y-119121000D01*
X106483000Y-119161000D02*
X103850000Y-119161000D01*
X101890000Y-119161000D02*
X99257000Y-119161000D01*
X106463000Y-119201000D02*
X103850000Y-119201000D01*
X101890000Y-119201000D02*
X99277000Y-119201000D01*
X106442000Y-119241000D02*
X103850000Y-119241000D01*
X101890000Y-119241000D02*
X99298000Y-119241000D01*
X106420000Y-119281000D02*
X103850000Y-119281000D01*
X101890000Y-119281000D02*
X99320000Y-119281000D01*
X106398000Y-119321000D02*
X103850000Y-119321000D01*
X101890000Y-119321000D02*
X99342000Y-119321000D01*
X106375000Y-119361000D02*
X103850000Y-119361000D01*
X101890000Y-119361000D02*
X99365000Y-119361000D01*
X106352000Y-119401000D02*
X103850000Y-119401000D01*
X101890000Y-119401000D02*
X99388000Y-119401000D01*
X106328000Y-119441000D02*
X103850000Y-119441000D01*
X101890000Y-119441000D02*
X99412000Y-119441000D01*
X106304000Y-119481000D02*
X103850000Y-119481000D01*
X101890000Y-119481000D02*
X99436000Y-119481000D01*
X106278000Y-119521000D02*
X103850000Y-119521000D01*
X101890000Y-119521000D02*
X99462000Y-119521000D01*
X106253000Y-119561000D02*
X103850000Y-119561000D01*
X101890000Y-119561000D02*
X99487000Y-119561000D01*
X106226000Y-119601000D02*
X103850000Y-119601000D01*
X101890000Y-119601000D02*
X99514000Y-119601000D01*
X106199000Y-119641000D02*
X103850000Y-119641000D01*
X101890000Y-119641000D02*
X99541000Y-119641000D01*
X106171000Y-119681000D02*
X103850000Y-119681000D01*
X101890000Y-119681000D02*
X99569000Y-119681000D01*
X106142000Y-119721000D02*
X103850000Y-119721000D01*
X101890000Y-119721000D02*
X99598000Y-119721000D01*
X106113000Y-119761000D02*
X103850000Y-119761000D01*
X101890000Y-119761000D02*
X99627000Y-119761000D01*
X106083000Y-119801000D02*
X103850000Y-119801000D01*
X101890000Y-119801000D02*
X99657000Y-119801000D01*
X106052000Y-119841000D02*
X103850000Y-119841000D01*
X101890000Y-119841000D02*
X99688000Y-119841000D01*
X106020000Y-119881000D02*
X103850000Y-119881000D01*
X101890000Y-119881000D02*
X99720000Y-119881000D01*
X105988000Y-119921000D02*
X103850000Y-119921000D01*
X101890000Y-119921000D02*
X99752000Y-119921000D01*
X105954000Y-119961000D02*
X103850000Y-119961000D01*
X101890000Y-119961000D02*
X99786000Y-119961000D01*
X105920000Y-120001000D02*
X103850000Y-120001000D01*
X101890000Y-120001000D02*
X99820000Y-120001000D01*
X105885000Y-120041000D02*
X103850000Y-120041000D01*
X101890000Y-120041000D02*
X99855000Y-120041000D01*
X105849000Y-120081000D02*
X99891000Y-120081000D01*
X105812000Y-120121000D02*
X99928000Y-120121000D01*
X105774000Y-120161000D02*
X99966000Y-120161000D01*
X105735000Y-120201000D02*
X100005000Y-120201000D01*
X105694000Y-120241000D02*
X100046000Y-120241000D01*
X105653000Y-120281000D02*
X100087000Y-120281000D01*
X105610000Y-120321000D02*
X100130000Y-120321000D01*
X105567000Y-120361000D02*
X100173000Y-120361000D01*
X105522000Y-120401000D02*
X100218000Y-120401000D01*
X105475000Y-120441000D02*
X100265000Y-120441000D01*
X105427000Y-120481000D02*
X100313000Y-120481000D01*
X105378000Y-120521000D02*
X100362000Y-120521000D01*
X105327000Y-120561000D02*
X100413000Y-120561000D01*
X105274000Y-120601000D02*
X100466000Y-120601000D01*
X105219000Y-120641000D02*
X100521000Y-120641000D01*
X105163000Y-120681000D02*
X100577000Y-120681000D01*
X105104000Y-120721000D02*
X100636000Y-120721000D01*
X105043000Y-120761000D02*
X100697000Y-120761000D01*
X104979000Y-120801000D02*
X100761000Y-120801000D01*
X104913000Y-120841000D02*
X100827000Y-120841000D01*
X104844000Y-120881000D02*
X100896000Y-120881000D01*
X104772000Y-120921000D02*
X100968000Y-120921000D01*
X104696000Y-120961000D02*
X101044000Y-120961000D01*
X104615000Y-121001000D02*
X101125000Y-121001000D01*
X104530000Y-121041000D02*
X101210000Y-121041000D01*
X104440000Y-121081000D02*
X101300000Y-121081000D01*
X104343000Y-121121000D02*
X101397000Y-121121000D01*
X104239000Y-121161000D02*
X101501000Y-121161000D01*
X104124000Y-121201000D02*
X101616000Y-121201000D01*
X103997000Y-121241000D02*
X101743000Y-121241000D01*
X103853000Y-121281000D02*
X101887000Y-121281000D01*
X103684000Y-121321000D02*
X102056000Y-121321000D01*
X103468000Y-121361000D02*
X102272000Y-121361000D01*
X103116000Y-121401000D02*
X102624000Y-121401000D01*
X102870000Y-113370000D02*
X102870000Y-114570000D01*
X103520000Y-113970000D02*
X102220000Y-113970000D01*
%TO.C,C0*%
X100950000Y-132410000D02*
X102250000Y-132410000D01*
X101600000Y-133010000D02*
X101600000Y-131810000D01*
X101246000Y-126999000D02*
X101954000Y-126999000D01*
X101041000Y-127039000D02*
X102159000Y-127039000D01*
X100893000Y-127079000D02*
X102307000Y-127079000D01*
X100771000Y-127119000D02*
X102429000Y-127119000D01*
X100666000Y-127159000D02*
X102534000Y-127159000D01*
X100572000Y-127199000D02*
X102628000Y-127199000D01*
X100488000Y-127239000D02*
X102712000Y-127239000D01*
X100411000Y-127279000D02*
X102789000Y-127279000D01*
X100339000Y-127319000D02*
X102861000Y-127319000D01*
X102580000Y-127359000D02*
X102927000Y-127359000D01*
X100273000Y-127359000D02*
X100620000Y-127359000D01*
X102580000Y-127399000D02*
X102990000Y-127399000D01*
X100210000Y-127399000D02*
X100620000Y-127399000D01*
X102580000Y-127439000D02*
X103048000Y-127439000D01*
X100152000Y-127439000D02*
X100620000Y-127439000D01*
X102580000Y-127479000D02*
X103104000Y-127479000D01*
X100096000Y-127479000D02*
X100620000Y-127479000D01*
X102580000Y-127519000D02*
X103156000Y-127519000D01*
X100044000Y-127519000D02*
X100620000Y-127519000D01*
X102580000Y-127559000D02*
X103206000Y-127559000D01*
X99994000Y-127559000D02*
X100620000Y-127559000D01*
X102580000Y-127599000D02*
X103254000Y-127599000D01*
X99946000Y-127599000D02*
X100620000Y-127599000D01*
X102580000Y-127639000D02*
X103299000Y-127639000D01*
X99901000Y-127639000D02*
X100620000Y-127639000D01*
X102580000Y-127679000D02*
X103342000Y-127679000D01*
X99858000Y-127679000D02*
X100620000Y-127679000D01*
X102580000Y-127719000D02*
X103383000Y-127719000D01*
X99817000Y-127719000D02*
X100620000Y-127719000D01*
X102580000Y-127759000D02*
X103423000Y-127759000D01*
X99777000Y-127759000D02*
X100620000Y-127759000D01*
X102580000Y-127799000D02*
X103461000Y-127799000D01*
X99739000Y-127799000D02*
X100620000Y-127799000D01*
X102580000Y-127839000D02*
X103497000Y-127839000D01*
X99703000Y-127839000D02*
X100620000Y-127839000D01*
X102580000Y-127879000D02*
X103532000Y-127879000D01*
X99668000Y-127879000D02*
X100620000Y-127879000D01*
X102580000Y-127919000D02*
X103565000Y-127919000D01*
X99635000Y-127919000D02*
X100620000Y-127919000D01*
X102580000Y-127959000D02*
X103597000Y-127959000D01*
X99603000Y-127959000D02*
X100620000Y-127959000D01*
X102580000Y-127999000D02*
X103628000Y-127999000D01*
X99572000Y-127999000D02*
X100620000Y-127999000D01*
X102580000Y-128039000D02*
X103658000Y-128039000D01*
X99542000Y-128039000D02*
X100620000Y-128039000D01*
X102580000Y-128079000D02*
X103686000Y-128079000D01*
X99514000Y-128079000D02*
X100620000Y-128079000D01*
X102580000Y-128119000D02*
X103713000Y-128119000D01*
X99487000Y-128119000D02*
X100620000Y-128119000D01*
X102580000Y-128159000D02*
X103740000Y-128159000D01*
X99460000Y-128159000D02*
X100620000Y-128159000D01*
X102580000Y-128199000D02*
X103765000Y-128199000D01*
X99435000Y-128199000D02*
X100620000Y-128199000D01*
X102580000Y-128239000D02*
X103789000Y-128239000D01*
X99411000Y-128239000D02*
X100620000Y-128239000D01*
X102580000Y-128279000D02*
X103812000Y-128279000D01*
X99388000Y-128279000D02*
X100620000Y-128279000D01*
X102580000Y-128319000D02*
X103834000Y-128319000D01*
X99366000Y-128319000D02*
X100620000Y-128319000D01*
X102580000Y-128359000D02*
X103856000Y-128359000D01*
X99344000Y-128359000D02*
X100620000Y-128359000D01*
X102580000Y-128399000D02*
X103876000Y-128399000D01*
X99324000Y-128399000D02*
X100620000Y-128399000D01*
X102580000Y-128439000D02*
X103896000Y-128439000D01*
X99304000Y-128439000D02*
X100620000Y-128439000D01*
X102580000Y-128479000D02*
X103915000Y-128479000D01*
X99285000Y-128479000D02*
X100620000Y-128479000D01*
X102580000Y-128519000D02*
X103933000Y-128519000D01*
X99267000Y-128519000D02*
X100620000Y-128519000D01*
X102580000Y-128559000D02*
X103950000Y-128559000D01*
X99250000Y-128559000D02*
X100620000Y-128559000D01*
X102580000Y-128599000D02*
X103966000Y-128599000D01*
X99234000Y-128599000D02*
X100620000Y-128599000D01*
X102580000Y-128639000D02*
X103982000Y-128639000D01*
X99218000Y-128639000D02*
X100620000Y-128639000D01*
X102580000Y-128679000D02*
X103996000Y-128679000D01*
X99204000Y-128679000D02*
X100620000Y-128679000D01*
X102580000Y-128719000D02*
X104010000Y-128719000D01*
X99190000Y-128719000D02*
X100620000Y-128719000D01*
X102580000Y-128759000D02*
X104024000Y-128759000D01*
X99176000Y-128759000D02*
X100620000Y-128759000D01*
X102580000Y-128799000D02*
X104036000Y-128799000D01*
X99164000Y-128799000D02*
X100620000Y-128799000D01*
X102580000Y-128839000D02*
X104048000Y-128839000D01*
X99152000Y-128839000D02*
X100620000Y-128839000D01*
X102580000Y-128880000D02*
X104060000Y-128880000D01*
X99140000Y-128880000D02*
X100620000Y-128880000D01*
X102580000Y-128920000D02*
X104070000Y-128920000D01*
X99130000Y-128920000D02*
X100620000Y-128920000D01*
X102580000Y-128960000D02*
X104080000Y-128960000D01*
X99120000Y-128960000D02*
X100620000Y-128960000D01*
X102580000Y-129000000D02*
X104089000Y-129000000D01*
X99111000Y-129000000D02*
X100620000Y-129000000D01*
X102580000Y-129040000D02*
X104098000Y-129040000D01*
X99102000Y-129040000D02*
X100620000Y-129040000D01*
X102580000Y-129080000D02*
X104106000Y-129080000D01*
X99094000Y-129080000D02*
X100620000Y-129080000D01*
X102580000Y-129120000D02*
X104113000Y-129120000D01*
X99087000Y-129120000D02*
X100620000Y-129120000D01*
X102580000Y-129160000D02*
X104119000Y-129160000D01*
X99081000Y-129160000D02*
X100620000Y-129160000D01*
X102580000Y-129200000D02*
X104125000Y-129200000D01*
X99075000Y-129200000D02*
X100620000Y-129200000D01*
X102580000Y-129240000D02*
X104131000Y-129240000D01*
X99069000Y-129240000D02*
X100620000Y-129240000D01*
X102580000Y-129280000D02*
X104135000Y-129280000D01*
X99065000Y-129280000D02*
X100620000Y-129280000D01*
X99061000Y-129320000D02*
X104139000Y-129320000D01*
X99057000Y-129360000D02*
X104143000Y-129360000D01*
X99054000Y-129400000D02*
X104146000Y-129400000D01*
X99052000Y-129440000D02*
X104148000Y-129440000D01*
X99051000Y-129480000D02*
X104149000Y-129480000D01*
X99050000Y-129520000D02*
X104150000Y-129520000D01*
X99050000Y-129560000D02*
X104150000Y-129560000D01*
X102779723Y-127254278D02*
G75*
G03*
X100420000Y-127254420I-1179723J-2305722D01*
G01*
X102779723Y-127254278D02*
G75*
G02*
X102780000Y-131865580I-1179723J-2305722D01*
G01*
X100420277Y-127254278D02*
G75*
G03*
X100420000Y-131865580I1179723J-2305722D01*
G01*
%TO.C,U3*%
D10*
X103378095Y-133572380D02*
X103378095Y-134381904D01*
X103425714Y-134477142D01*
X103473333Y-134524761D01*
X103568571Y-134572380D01*
X103759047Y-134572380D01*
X103854285Y-134524761D01*
X103901904Y-134477142D01*
X103949523Y-134381904D01*
X103949523Y-133572380D01*
X104330476Y-133572380D02*
X104949523Y-133572380D01*
X104616190Y-133953333D01*
X104759047Y-133953333D01*
X104854285Y-134000952D01*
X104901904Y-134048571D01*
X104949523Y-134143809D01*
X104949523Y-134381904D01*
X104901904Y-134477142D01*
X104854285Y-134524761D01*
X104759047Y-134572380D01*
X104473333Y-134572380D01*
X104378095Y-134524761D01*
X104330476Y-134477142D01*
%TO.C,U2*%
X105918095Y-96742380D02*
X105918095Y-97551904D01*
X105965714Y-97647142D01*
X106013333Y-97694761D01*
X106108571Y-97742380D01*
X106299047Y-97742380D01*
X106394285Y-97694761D01*
X106441904Y-97647142D01*
X106489523Y-97551904D01*
X106489523Y-96742380D01*
X106918095Y-96837619D02*
X106965714Y-96790000D01*
X107060952Y-96742380D01*
X107299047Y-96742380D01*
X107394285Y-96790000D01*
X107441904Y-96837619D01*
X107489523Y-96932857D01*
X107489523Y-97028095D01*
X107441904Y-97170952D01*
X106870476Y-97742380D01*
X107489523Y-97742380D01*
%TO.C,U1*%
X128222380Y-159684404D02*
X129031904Y-159684404D01*
X129127142Y-159636785D01*
X129174761Y-159589166D01*
X129222380Y-159493928D01*
X129222380Y-159303452D01*
X129174761Y-159208214D01*
X129127142Y-159160595D01*
X129031904Y-159112976D01*
X128222380Y-159112976D01*
X129222380Y-158112976D02*
X129222380Y-158684404D01*
X129222380Y-158398690D02*
X128222380Y-158398690D01*
X128365238Y-158493928D01*
X128460476Y-158589166D01*
X128508095Y-158684404D01*
%TO.C,U0*%
X118618095Y-139652380D02*
X118618095Y-140461904D01*
X118665714Y-140557142D01*
X118713333Y-140604761D01*
X118808571Y-140652380D01*
X118999047Y-140652380D01*
X119094285Y-140604761D01*
X119141904Y-140557142D01*
X119189523Y-140461904D01*
X119189523Y-139652380D01*
X119856190Y-139652380D02*
X119951428Y-139652380D01*
X120046666Y-139700000D01*
X120094285Y-139747619D01*
X120141904Y-139842857D01*
X120189523Y-140033333D01*
X120189523Y-140271428D01*
X120141904Y-140461904D01*
X120094285Y-140557142D01*
X120046666Y-140604761D01*
X119951428Y-140652380D01*
X119856190Y-140652380D01*
X119760952Y-140604761D01*
X119713333Y-140557142D01*
X119665714Y-140461904D01*
X119618095Y-140271428D01*
X119618095Y-140033333D01*
X119665714Y-139842857D01*
X119713333Y-139747619D01*
X119760952Y-139700000D01*
X119856190Y-139652380D01*
%TO.C,C2*%
X107783333Y-126087142D02*
X107735714Y-126134761D01*
X107592857Y-126182380D01*
X107497619Y-126182380D01*
X107354761Y-126134761D01*
X107259523Y-126039523D01*
X107211904Y-125944285D01*
X107164285Y-125753809D01*
X107164285Y-125610952D01*
X107211904Y-125420476D01*
X107259523Y-125325238D01*
X107354761Y-125230000D01*
X107497619Y-125182380D01*
X107592857Y-125182380D01*
X107735714Y-125230000D01*
X107783333Y-125277619D01*
X108164285Y-125277619D02*
X108211904Y-125230000D01*
X108307142Y-125182380D01*
X108545238Y-125182380D01*
X108640476Y-125230000D01*
X108688095Y-125277619D01*
X108735714Y-125372857D01*
X108735714Y-125468095D01*
X108688095Y-125610952D01*
X108116666Y-126182380D01*
X108735714Y-126182380D01*
%TO.C,R1*%
X112863333Y-96892380D02*
X112530000Y-96416190D01*
X112291904Y-96892380D02*
X112291904Y-95892380D01*
X112672857Y-95892380D01*
X112768095Y-95940000D01*
X112815714Y-95987619D01*
X112863333Y-96082857D01*
X112863333Y-96225714D01*
X112815714Y-96320952D01*
X112768095Y-96368571D01*
X112672857Y-96416190D01*
X112291904Y-96416190D01*
X113815714Y-96892380D02*
X113244285Y-96892380D01*
X113530000Y-96892380D02*
X113530000Y-95892380D01*
X113434761Y-96035238D01*
X113339523Y-96130476D01*
X113244285Y-96178095D01*
%TO.C,R0*%
X112863333Y-109752380D02*
X112530000Y-109276190D01*
X112291904Y-109752380D02*
X112291904Y-108752380D01*
X112672857Y-108752380D01*
X112768095Y-108800000D01*
X112815714Y-108847619D01*
X112863333Y-108942857D01*
X112863333Y-109085714D01*
X112815714Y-109180952D01*
X112768095Y-109228571D01*
X112672857Y-109276190D01*
X112291904Y-109276190D01*
X113482380Y-108752380D02*
X113577619Y-108752380D01*
X113672857Y-108800000D01*
X113720476Y-108847619D01*
X113768095Y-108942857D01*
X113815714Y-109133333D01*
X113815714Y-109371428D01*
X113768095Y-109561904D01*
X113720476Y-109657142D01*
X113672857Y-109704761D01*
X113577619Y-109752380D01*
X113482380Y-109752380D01*
X113387142Y-109704761D01*
X113339523Y-109657142D01*
X113291904Y-109561904D01*
X113244285Y-109371428D01*
X113244285Y-109133333D01*
X113291904Y-108942857D01*
X113339523Y-108847619D01*
X113387142Y-108800000D01*
X113482380Y-108752380D01*
%TO.C, *%
%TO.C,C1*%
X100163333Y-123547142D02*
X100115714Y-123594761D01*
X99972857Y-123642380D01*
X99877619Y-123642380D01*
X99734761Y-123594761D01*
X99639523Y-123499523D01*
X99591904Y-123404285D01*
X99544285Y-123213809D01*
X99544285Y-123070952D01*
X99591904Y-122880476D01*
X99639523Y-122785238D01*
X99734761Y-122690000D01*
X99877619Y-122642380D01*
X99972857Y-122642380D01*
X100115714Y-122690000D01*
X100163333Y-122737619D01*
X101115714Y-123642380D02*
X100544285Y-123642380D01*
X100830000Y-123642380D02*
X100830000Y-122642380D01*
X100734761Y-122785238D01*
X100639523Y-122880476D01*
X100544285Y-122928095D01*
%TO.C,C0*%
X100163333Y-126087142D02*
X100115714Y-126134761D01*
X99972857Y-126182380D01*
X99877619Y-126182380D01*
X99734761Y-126134761D01*
X99639523Y-126039523D01*
X99591904Y-125944285D01*
X99544285Y-125753809D01*
X99544285Y-125610952D01*
X99591904Y-125420476D01*
X99639523Y-125325238D01*
X99734761Y-125230000D01*
X99877619Y-125182380D01*
X99972857Y-125182380D01*
X100115714Y-125230000D01*
X100163333Y-125277619D01*
X100782380Y-125182380D02*
X100877619Y-125182380D01*
X100972857Y-125230000D01*
X101020476Y-125277619D01*
X101068095Y-125372857D01*
X101115714Y-125563333D01*
X101115714Y-125801428D01*
X101068095Y-125991904D01*
X101020476Y-126087142D01*
X100972857Y-126134761D01*
X100877619Y-126182380D01*
X100782380Y-126182380D01*
X100687142Y-126134761D01*
X100639523Y-126087142D01*
X100591904Y-125991904D01*
X100544285Y-125801428D01*
X100544285Y-125563333D01*
X100591904Y-125372857D01*
X100639523Y-125277619D01*
X100687142Y-125230000D01*
X100782380Y-125182380D01*
%TD*%
M02*
