%TF.GenerationSoftware,KiCad,Pcbnew,(5.1.8)-1*%
%TF.CreationDate,2020-11-21T17:08:59-08:00*%
%TF.ProjectId,ard_lightshow,6172645f-6c69-4676-9874-73686f772e6b,rev?*%
%TF.SameCoordinates,Original*%
%TF.FileFunction,Copper,L1,Top*%
%TF.FilePolarity,Positive*%
%FSLAX46Y46*%
G04 Gerber Fmt 4.6, Leading zero omitted, Abs format (unit mm)*
G04 Created by KiCad (PCBNEW (5.1.8)-1) date 2020-11-21 17:08:59*
%MOMM*%
%LPD*%
G01*
G04 APERTURE LIST*
%TA.AperFunction,ComponentPad*%
%ADD10C,2.000000*%
%TD*%
%TA.AperFunction,SMDPad,CuDef*%
%ADD11R,0.700000X1.300000*%
%TD*%
%TA.AperFunction,ViaPad*%
%ADD12C,2.000000*%
%TD*%
%TA.AperFunction,Conductor*%
%ADD13C,2.000000*%
%TD*%
%TA.AperFunction,Conductor*%
%ADD14C,1.000000*%
%TD*%
%TA.AperFunction,Conductor*%
%ADD15C,0.500000*%
%TD*%
%TA.AperFunction,Conductor*%
%ADD16C,0.100000*%
%TD*%
G04 APERTURE END LIST*
D10*
%TO.P,C1,1*%
%TO.N,/5V0*%
X102870000Y-115570000D03*
%TO.P,C1,2*%
%TO.N,/GND*%
X102870000Y-119070000D03*
%TD*%
%TO.P,C0,2*%
%TO.N,/GND*%
X101600000Y-128310000D03*
%TO.P,C0,1*%
%TO.N,/3V3*%
X101600000Y-130810000D03*
%TD*%
%TO.P,C2,2*%
%TO.N,/GND*%
X109220000Y-128310000D03*
%TO.P,C2,1*%
%TO.N,/VIN*%
X109220000Y-130810000D03*
%TD*%
D11*
%TO.P,R1,1*%
%TO.N,Net-(R0-Pad2)*%
X112080000Y-97790000D03*
%TO.P,R1,2*%
%TO.N,/IR_OUT*%
X113980000Y-97790000D03*
%TD*%
%TO.P,R0,1*%
%TO.N,/MIC_OUT*%
X113980000Y-107950000D03*
%TO.P,R0,2*%
%TO.N,Net-(R0-Pad2)*%
X112080000Y-107950000D03*
%TD*%
D10*
%TO.P,U2,1*%
%TO.N,Net-(R0-Pad2)*%
X107950000Y-100330000D03*
%TO.P,U2,2*%
%TO.N,/GND*%
X105410000Y-100330000D03*
%TO.P,U2,3*%
%TO.N,/5V0*%
X102870000Y-100330000D03*
%TD*%
%TO.P,U0,28*%
%TO.N,Net-(U0-Pad28)*%
X132080000Y-130810000D03*
%TO.P,U0,27*%
%TO.N,/GND*%
X132080000Y-128270000D03*
%TO.P,U0,26*%
%TO.N,Net-(U0-Pad26)*%
X132080000Y-125730000D03*
%TO.P,U0,25*%
%TO.N,/IR_OUT*%
X132080000Y-123190000D03*
%TO.P,U0,24*%
%TO.N,Net-(U0-Pad24)*%
X132080000Y-120650000D03*
%TO.P,U0,23*%
%TO.N,Net-(U0-Pad23)*%
X132080000Y-118110000D03*
%TO.P,U0,22*%
%TO.N,Net-(U0-Pad22)*%
X132080000Y-115570000D03*
%TO.P,U0,21*%
%TO.N,Net-(U0-Pad21)*%
X132080000Y-113030000D03*
%TO.P,U0,20*%
%TO.N,/CSN*%
X132080000Y-110490000D03*
%TO.P,U0,19*%
%TO.N,/CE*%
X132080000Y-107950000D03*
%TO.P,U0,18*%
%TO.N,Net-(U0-Pad18)*%
X132080000Y-105410000D03*
%TO.P,U0,17*%
%TO.N,/MOSI*%
X132080000Y-102870000D03*
%TO.P,U0,16*%
%TO.N,/MISO*%
X132080000Y-100330000D03*
%TO.P,U0,15*%
%TO.N,/VIN*%
X116840000Y-135890000D03*
%TO.P,U0,14*%
%TO.N,/GND*%
X116840000Y-133350000D03*
%TO.P,U0,13*%
%TO.N,Net-(U0-Pad13)*%
X116840000Y-130810000D03*
%TO.P,U0,12*%
%TO.N,/5V0*%
X116840000Y-128270000D03*
%TO.P,U0,11*%
%TO.N,Net-(U0-Pad11)*%
X116840000Y-125730000D03*
%TO.P,U0,10*%
%TO.N,Net-(U0-Pad10)*%
X116840000Y-123190000D03*
%TO.P,U0,9*%
%TO.N,Net-(U0-Pad9)*%
X116840000Y-120650000D03*
%TO.P,U0,8*%
%TO.N,Net-(U0-Pad8)*%
X116840000Y-118110000D03*
%TO.P,U0,7*%
%TO.N,Net-(U0-Pad7)*%
X116840000Y-115570000D03*
%TO.P,U0,6*%
%TO.N,Net-(U0-Pad6)*%
X116840000Y-113030000D03*
%TO.P,U0,5*%
%TO.N,Net-(U0-Pad5)*%
X116840000Y-110490000D03*
%TO.P,U0,4*%
%TO.N,/MIC_OUT*%
X116840000Y-107950000D03*
%TO.P,U0,3*%
%TO.N,Net-(U0-Pad3)*%
X116840000Y-105410000D03*
%TO.P,U0,2*%
%TO.N,/3V3*%
X116840000Y-102870000D03*
%TO.P,U0,1*%
%TO.N,/SCK*%
X116840000Y-100330000D03*
%TO.P,U0,29*%
%TO.N,Net-(U0-Pad29)*%
X132080000Y-133350000D03*
%TO.P,U0,30*%
%TO.N,Net-(U0-Pad30)*%
X132080000Y-135890000D03*
%TD*%
%TO.P,U3,1*%
%TO.N,/VIN*%
X105410000Y-137160000D03*
%TO.P,U3,2*%
%TO.N,/GND*%
X102870000Y-137160000D03*
%TD*%
%TO.P,U1,1*%
%TO.N,/GND*%
X125730000Y-160020000D03*
%TO.P,U1,2*%
%TO.N,/CE*%
X125730000Y-157480000D03*
%TO.P,U1,3*%
%TO.N,/SCK*%
X125730000Y-154940000D03*
%TO.P,U1,4*%
%TO.N,/MISO*%
X125730000Y-152400000D03*
%TO.P,U1,8*%
%TO.N,Net-(U1-Pad8)*%
X123190000Y-152400000D03*
%TO.P,U1,7*%
%TO.N,/MOSI*%
X123190000Y-154940000D03*
%TO.P,U1,6*%
%TO.N,/CSN*%
X123190000Y-157480000D03*
%TO.P,U1,5*%
%TO.N,/3V3*%
X123190000Y-160020000D03*
%TD*%
D12*
%TO.N,/SCK*%
X125730000Y-105410000D03*
%TO.N,/MISO*%
X123190000Y-147320000D03*
%TO.N,/CE*%
X120650000Y-143510000D03*
X120650000Y-135890000D03*
%TO.N,/IR_OUT*%
X128270000Y-105410000D03*
%TD*%
D13*
%TO.N,/5V0*%
X102870000Y-115570000D02*
X104140000Y-115570000D01*
X104140000Y-115570000D02*
X105410000Y-116840000D01*
X104140000Y-115570000D02*
X105410000Y-114300000D01*
X105410000Y-114300000D02*
X105410000Y-116840000D01*
X116840000Y-128270000D02*
X115570000Y-128270000D01*
X105410000Y-116840000D02*
X105410000Y-118110000D01*
X102870000Y-105410000D02*
X102870000Y-100330000D01*
X105410000Y-114300000D02*
X105410000Y-107950000D01*
X105410000Y-107950000D02*
X102870000Y-105410000D01*
X115570000Y-128270000D02*
X105410000Y-118110000D01*
D14*
%TO.N,/SCK*%
X125730000Y-105410000D02*
X125730000Y-105410000D01*
X120650000Y-100330000D02*
X116840000Y-100330000D01*
X125730000Y-105410000D02*
X125730000Y-105410000D01*
X125730000Y-105410000D02*
X120650000Y-100330000D01*
%TO.N,/MISO*%
X123190000Y-147320000D02*
X123190000Y-147320000D01*
X125730000Y-149860000D02*
X125730000Y-152400000D01*
X123190000Y-147320000D02*
X123190000Y-147320000D01*
X123190000Y-147320000D02*
X125730000Y-149860000D01*
%TO.N,/CE*%
X121920000Y-144780000D02*
X120650000Y-143510000D01*
X124460000Y-144780000D02*
X121920000Y-144780000D01*
X130810000Y-151130000D02*
X124460000Y-144780000D01*
X130810000Y-154940000D02*
X130810000Y-151130000D01*
X128270000Y-157480000D02*
X130810000Y-154940000D01*
X125730000Y-157480000D02*
X128270000Y-157480000D01*
X130810000Y-107950000D02*
X132080000Y-107950000D01*
X130079999Y-108680001D02*
X130810000Y-107950000D01*
X126269999Y-108680001D02*
X130079999Y-108680001D01*
X123190000Y-111760000D02*
X126269999Y-108680001D01*
X123190000Y-133350000D02*
X123190000Y-111760000D01*
X121920000Y-134620000D02*
X123190000Y-133350000D01*
X121920000Y-134620000D02*
X120650000Y-135890000D01*
X120650000Y-135890000D02*
X120650000Y-135890000D01*
X120650000Y-143510000D02*
X120650000Y-143510000D01*
X120650000Y-135890000D02*
X120650000Y-135890000D01*
X120650000Y-143510000D02*
X120650000Y-143510000D01*
X120650000Y-135890000D02*
X120650000Y-135890000D01*
%TO.N,/CSN*%
X128270000Y-110490000D02*
X132080000Y-110490000D01*
X125730000Y-113030000D02*
X128270000Y-110490000D01*
X118110000Y-142240000D02*
X125730000Y-134620000D01*
X125730000Y-134620000D02*
X125730000Y-113030000D01*
X118110000Y-154940000D02*
X118110000Y-142240000D01*
X123190000Y-157480000D02*
X120650000Y-157480000D01*
X120650000Y-157480000D02*
X118110000Y-154940000D01*
%TO.N,/IR_OUT*%
X128270000Y-105410000D02*
X128270000Y-105410000D01*
X128270000Y-103995787D02*
X122064213Y-97790000D01*
X128270000Y-105410000D02*
X128270000Y-105410000D01*
X128270000Y-105410000D02*
X128270000Y-103995787D01*
X122064213Y-97790000D02*
X114300000Y-97790000D01*
D13*
%TO.N,/VIN*%
X109220000Y-133350000D02*
X109220000Y-130810000D01*
X111760000Y-135890000D02*
X116840000Y-135890000D01*
X110490000Y-134620000D02*
X107950000Y-134620000D01*
X107950000Y-134620000D02*
X109220000Y-133350000D01*
X109220000Y-133350000D02*
X110490000Y-134620000D01*
X110490000Y-134620000D02*
X111760000Y-135890000D01*
X111760000Y-135890000D02*
X106680000Y-135890000D01*
X106680000Y-135890000D02*
X107950000Y-134620000D01*
X105410000Y-137160000D02*
X106680000Y-135890000D01*
X115570000Y-137160000D02*
X116840000Y-135890000D01*
X105410000Y-137160000D02*
X115570000Y-137160000D01*
X109220000Y-130810000D02*
X107950000Y-132080000D01*
X107950000Y-132080000D02*
X107950000Y-134620000D01*
X109220000Y-130810000D02*
X110490000Y-132080000D01*
X110490000Y-132080000D02*
X110490000Y-134620000D01*
D14*
%TO.N,/MIC_OUT*%
X116840000Y-107950000D02*
X114300000Y-107950000D01*
%TO.N,Net-(R0-Pad2)*%
X107950000Y-100330000D02*
X110490000Y-97790000D01*
X107950000Y-100330000D02*
X107950000Y-104140000D01*
X107950000Y-104140000D02*
X111760000Y-107950000D01*
X110490000Y-97790000D02*
X111760000Y-97790000D01*
%TD*%
D15*
%TO.N,/GND*%
X109191776Y-96613350D02*
X107724315Y-98080811D01*
X107293699Y-98166466D01*
X106884225Y-98336076D01*
X106515708Y-98582311D01*
X106202311Y-98895708D01*
X105956076Y-99264225D01*
X105786466Y-99673699D01*
X105700000Y-100108394D01*
X105700000Y-100551606D01*
X105786466Y-100986301D01*
X105956076Y-101395775D01*
X106200000Y-101760834D01*
X106200001Y-104054025D01*
X106191533Y-104140000D01*
X106207715Y-104304292D01*
X106225322Y-104483060D01*
X106307420Y-104753699D01*
X106325389Y-104812936D01*
X106487888Y-105116952D01*
X106633198Y-105294012D01*
X106706577Y-105383424D01*
X106773351Y-105438224D01*
X110583351Y-109248225D01*
X110771963Y-109403015D01*
X110841840Y-109488160D01*
X111032177Y-109644366D01*
X111249331Y-109760437D01*
X111484957Y-109831913D01*
X111730000Y-109856048D01*
X112430000Y-109856048D01*
X112675043Y-109831913D01*
X112910669Y-109760437D01*
X113030000Y-109696653D01*
X113149331Y-109760437D01*
X113384957Y-109831913D01*
X113630000Y-109856048D01*
X114330000Y-109856048D01*
X114575043Y-109831913D01*
X114691887Y-109796469D01*
X114676466Y-109833699D01*
X114590000Y-110268394D01*
X114590000Y-110711606D01*
X114676466Y-111146301D01*
X114846076Y-111555775D01*
X114982535Y-111760000D01*
X114846076Y-111964225D01*
X114676466Y-112373699D01*
X114590000Y-112808394D01*
X114590000Y-113251606D01*
X114676466Y-113686301D01*
X114846076Y-114095775D01*
X114982535Y-114300000D01*
X114846076Y-114504225D01*
X114676466Y-114913699D01*
X114590000Y-115348394D01*
X114590000Y-115791606D01*
X114676466Y-116226301D01*
X114846076Y-116635775D01*
X114982535Y-116840000D01*
X114846076Y-117044225D01*
X114676466Y-117453699D01*
X114590000Y-117888394D01*
X114590000Y-118331606D01*
X114676466Y-118766301D01*
X114846076Y-119175775D01*
X114982535Y-119380000D01*
X114846076Y-119584225D01*
X114676466Y-119993699D01*
X114590000Y-120428394D01*
X114590000Y-120871606D01*
X114676466Y-121306301D01*
X114846076Y-121715775D01*
X114982535Y-121920000D01*
X114846076Y-122124225D01*
X114676466Y-122533699D01*
X114590000Y-122968394D01*
X114590000Y-123411606D01*
X114676466Y-123846301D01*
X114846076Y-124255775D01*
X114982535Y-124460000D01*
X114966291Y-124484310D01*
X107660000Y-117178020D01*
X107660000Y-116950525D01*
X107670886Y-116839999D01*
X107660000Y-116729472D01*
X107660000Y-114410527D01*
X107670886Y-114300001D01*
X107660000Y-114189472D01*
X107660000Y-108060517D01*
X107670885Y-107949999D01*
X107660000Y-107839481D01*
X107660000Y-107839472D01*
X107627444Y-107508923D01*
X107498786Y-107084796D01*
X107289858Y-106693919D01*
X107008688Y-106351312D01*
X106922837Y-106280856D01*
X105120000Y-104478020D01*
X105120000Y-100108394D01*
X105098330Y-99999451D01*
X105087444Y-99888923D01*
X105055204Y-99782644D01*
X105033534Y-99673699D01*
X104991025Y-99571074D01*
X104958786Y-99464796D01*
X104906433Y-99366850D01*
X104863924Y-99264225D01*
X104802212Y-99171866D01*
X104749858Y-99073919D01*
X104679402Y-98988068D01*
X104617689Y-98895708D01*
X104539144Y-98817163D01*
X104468688Y-98731312D01*
X104382837Y-98660856D01*
X104304292Y-98582311D01*
X104211932Y-98520598D01*
X104126081Y-98450142D01*
X104028134Y-98397788D01*
X103935775Y-98336076D01*
X103833150Y-98293567D01*
X103735204Y-98241214D01*
X103628926Y-98208975D01*
X103526301Y-98166466D01*
X103417356Y-98144796D01*
X103311077Y-98112556D01*
X103200549Y-98101670D01*
X103091606Y-98080000D01*
X102980528Y-98080000D01*
X102870000Y-98069114D01*
X102759472Y-98080000D01*
X102648394Y-98080000D01*
X102539451Y-98101670D01*
X102428924Y-98112556D01*
X102322646Y-98144795D01*
X102213699Y-98166466D01*
X102111071Y-98208976D01*
X102004797Y-98241214D01*
X101906854Y-98293566D01*
X101804225Y-98336076D01*
X101711862Y-98397791D01*
X101613920Y-98450142D01*
X101528073Y-98520595D01*
X101435708Y-98582311D01*
X101357159Y-98660860D01*
X101271313Y-98731312D01*
X101200861Y-98817158D01*
X101122311Y-98895708D01*
X101060594Y-98988074D01*
X100990143Y-99073919D01*
X100937793Y-99171859D01*
X100876076Y-99264225D01*
X100833564Y-99366858D01*
X100781215Y-99464796D01*
X100748979Y-99571064D01*
X100706466Y-99673699D01*
X100684794Y-99782653D01*
X100652557Y-99888923D01*
X100641672Y-99999441D01*
X100620000Y-100108394D01*
X100620000Y-100551606D01*
X100620001Y-100551611D01*
X100620000Y-105299474D01*
X100609114Y-105410000D01*
X100620000Y-105520525D01*
X100620000Y-105520527D01*
X100652556Y-105851076D01*
X100781214Y-106275203D01*
X100990142Y-106666081D01*
X101271312Y-107008688D01*
X101357168Y-107079148D01*
X103160001Y-108881982D01*
X103160000Y-113320000D01*
X102648394Y-113320000D01*
X102539451Y-113341670D01*
X102428923Y-113352556D01*
X102322644Y-113384796D01*
X102213699Y-113406466D01*
X102111074Y-113448975D01*
X102004796Y-113481214D01*
X101906850Y-113533567D01*
X101804225Y-113576076D01*
X101711866Y-113637788D01*
X101613919Y-113690142D01*
X101528068Y-113760598D01*
X101435708Y-113822311D01*
X101357164Y-113900855D01*
X101271312Y-113971312D01*
X101200856Y-114057163D01*
X101122311Y-114135708D01*
X101060598Y-114228068D01*
X100990142Y-114313919D01*
X100937788Y-114411866D01*
X100876076Y-114504225D01*
X100833567Y-114606850D01*
X100781214Y-114704796D01*
X100748975Y-114811074D01*
X100706466Y-114913699D01*
X100684796Y-115022644D01*
X100652556Y-115128923D01*
X100641670Y-115239451D01*
X100620000Y-115348394D01*
X100620000Y-115459472D01*
X100609114Y-115570000D01*
X100620000Y-115680528D01*
X100620000Y-115791606D01*
X100641670Y-115900549D01*
X100652556Y-116011077D01*
X100684796Y-116117356D01*
X100706466Y-116226301D01*
X100748975Y-116328926D01*
X100781214Y-116435204D01*
X100833567Y-116533150D01*
X100876076Y-116635775D01*
X100937788Y-116728134D01*
X100990142Y-116826081D01*
X101060598Y-116911932D01*
X101122311Y-117004292D01*
X101200854Y-117082835D01*
X101271312Y-117168688D01*
X101357163Y-117239144D01*
X101435708Y-117317689D01*
X101528068Y-117379402D01*
X101613919Y-117449858D01*
X101711866Y-117502212D01*
X101804225Y-117563924D01*
X101906850Y-117606433D01*
X101999528Y-117655970D01*
X101950091Y-117796537D01*
X102870000Y-118716447D01*
X102884143Y-118702305D01*
X103237696Y-119055858D01*
X103223553Y-119070000D01*
X103578232Y-119424678D01*
X103740855Y-119622835D01*
X103811313Y-119708688D01*
X103897164Y-119779144D01*
X113900856Y-129782837D01*
X113971312Y-129868688D01*
X114057163Y-129939144D01*
X114057164Y-129939145D01*
X114313918Y-130149858D01*
X114509358Y-130254322D01*
X114642315Y-130325389D01*
X114590000Y-130588394D01*
X114590000Y-131031606D01*
X114676466Y-131466301D01*
X114846076Y-131875775D01*
X115092311Y-132244292D01*
X115405708Y-132557689D01*
X115774225Y-132803924D01*
X116183699Y-132973534D01*
X116618394Y-133060000D01*
X117061606Y-133060000D01*
X117496301Y-132973534D01*
X117905775Y-132803924D01*
X118274292Y-132557689D01*
X118587689Y-132244292D01*
X118833924Y-131875775D01*
X119003534Y-131466301D01*
X119090000Y-131031606D01*
X119090000Y-130588394D01*
X119003534Y-130153699D01*
X118833924Y-129744225D01*
X118702388Y-129547368D01*
X118719858Y-129526081D01*
X118772212Y-129428134D01*
X118833924Y-129335775D01*
X118876433Y-129233150D01*
X118928786Y-129135204D01*
X118961025Y-129028926D01*
X119003534Y-128926301D01*
X119025204Y-128817356D01*
X119057444Y-128711077D01*
X119068330Y-128600549D01*
X119090000Y-128491606D01*
X119090000Y-128380528D01*
X119100886Y-128270000D01*
X119090000Y-128159472D01*
X119090000Y-128048394D01*
X119068330Y-127939451D01*
X119057444Y-127828923D01*
X119025204Y-127722644D01*
X119003534Y-127613699D01*
X118961025Y-127511074D01*
X118928786Y-127404796D01*
X118876433Y-127306850D01*
X118833924Y-127204225D01*
X118772212Y-127111866D01*
X118719858Y-127013919D01*
X118702388Y-126992632D01*
X118833924Y-126795775D01*
X119003534Y-126386301D01*
X119090000Y-125951606D01*
X119090000Y-125508394D01*
X119003534Y-125073699D01*
X118833924Y-124664225D01*
X118697465Y-124460000D01*
X118833924Y-124255775D01*
X119003534Y-123846301D01*
X119090000Y-123411606D01*
X119090000Y-122968394D01*
X119003534Y-122533699D01*
X118833924Y-122124225D01*
X118697465Y-121920000D01*
X118833924Y-121715775D01*
X119003534Y-121306301D01*
X119090000Y-120871606D01*
X119090000Y-120428394D01*
X119003534Y-119993699D01*
X118833924Y-119584225D01*
X118697465Y-119380000D01*
X118833924Y-119175775D01*
X119003534Y-118766301D01*
X119090000Y-118331606D01*
X119090000Y-117888394D01*
X119003534Y-117453699D01*
X118833924Y-117044225D01*
X118697465Y-116840000D01*
X118833924Y-116635775D01*
X119003534Y-116226301D01*
X119090000Y-115791606D01*
X119090000Y-115348394D01*
X119003534Y-114913699D01*
X118833924Y-114504225D01*
X118697465Y-114300000D01*
X118833924Y-114095775D01*
X119003534Y-113686301D01*
X119090000Y-113251606D01*
X119090000Y-112808394D01*
X119003534Y-112373699D01*
X118833924Y-111964225D01*
X118697465Y-111760000D01*
X118833924Y-111555775D01*
X119003534Y-111146301D01*
X119090000Y-110711606D01*
X119090000Y-110268394D01*
X119003534Y-109833699D01*
X118833924Y-109424225D01*
X118697465Y-109220000D01*
X118833924Y-109015775D01*
X119003534Y-108606301D01*
X119090000Y-108171606D01*
X119090000Y-107728394D01*
X119003534Y-107293699D01*
X118833924Y-106884225D01*
X118697465Y-106680000D01*
X118833924Y-106475775D01*
X119003534Y-106066301D01*
X119090000Y-105631606D01*
X119090000Y-105188394D01*
X119003534Y-104753699D01*
X118833924Y-104344225D01*
X118697465Y-104140000D01*
X118833924Y-103935775D01*
X119003534Y-103526301D01*
X119090000Y-103091606D01*
X119090000Y-102648394D01*
X119003534Y-102213699D01*
X118948154Y-102080000D01*
X119925127Y-102080000D01*
X123480811Y-105635685D01*
X123566466Y-106066301D01*
X123736076Y-106475775D01*
X123982311Y-106844292D01*
X124295708Y-107157689D01*
X124664225Y-107403924D01*
X124952001Y-107523125D01*
X122013351Y-110461776D01*
X121946577Y-110516576D01*
X121891777Y-110583350D01*
X121891775Y-110583352D01*
X121727888Y-110783048D01*
X121565389Y-111087064D01*
X121468827Y-111405388D01*
X121465322Y-111416941D01*
X121431533Y-111760000D01*
X121440001Y-111845975D01*
X121440000Y-132625126D01*
X120743356Y-133321771D01*
X120743351Y-133321775D01*
X120424315Y-133640811D01*
X119993699Y-133726466D01*
X119584225Y-133896076D01*
X119215708Y-134142311D01*
X118902311Y-134455708D01*
X118748024Y-134686615D01*
X118719858Y-134633919D01*
X118649402Y-134548068D01*
X118587689Y-134455708D01*
X118509144Y-134377163D01*
X118438688Y-134291312D01*
X118352836Y-134220855D01*
X118274292Y-134142311D01*
X118181932Y-134080598D01*
X118096081Y-134010142D01*
X117998134Y-133957788D01*
X117905775Y-133896076D01*
X117803150Y-133853567D01*
X117705204Y-133801214D01*
X117598926Y-133768975D01*
X117496301Y-133726466D01*
X117387356Y-133704796D01*
X117281077Y-133672556D01*
X117170549Y-133661670D01*
X117061606Y-133640000D01*
X116950525Y-133640000D01*
X116839999Y-133629114D01*
X116729473Y-133640000D01*
X112740000Y-133640000D01*
X112740000Y-132190525D01*
X112750886Y-132079999D01*
X112740000Y-131969472D01*
X112707444Y-131638923D01*
X112578786Y-131214796D01*
X112480869Y-131031606D01*
X112369858Y-130823918D01*
X112253181Y-130681748D01*
X112088688Y-130481312D01*
X112002831Y-130410851D01*
X110967691Y-129375711D01*
X110967689Y-129375708D01*
X110889144Y-129297163D01*
X110818688Y-129211312D01*
X110736987Y-129144262D01*
X110775127Y-129130848D01*
X110905385Y-128811687D01*
X110970875Y-128473245D01*
X110969080Y-128128530D01*
X110900068Y-127790788D01*
X110775127Y-127489152D01*
X110493463Y-127390091D01*
X109573553Y-128310000D01*
X109587696Y-128324143D01*
X109351838Y-128560000D01*
X109330528Y-128560000D01*
X109220000Y-128549114D01*
X109219999Y-128549114D01*
X109171811Y-128553860D01*
X109109472Y-128560000D01*
X109088162Y-128560000D01*
X108852305Y-128324143D01*
X108866447Y-128310000D01*
X107946537Y-127390091D01*
X107664873Y-127489152D01*
X107534615Y-127808313D01*
X107469125Y-128146755D01*
X107470920Y-128491470D01*
X107539932Y-128829212D01*
X107664873Y-129130848D01*
X107703014Y-129144262D01*
X107621313Y-129211312D01*
X107550861Y-129297158D01*
X107472311Y-129375708D01*
X107472309Y-129375711D01*
X106437169Y-130410851D01*
X106351312Y-130481312D01*
X106070142Y-130823919D01*
X105861214Y-131214797D01*
X105732556Y-131638924D01*
X105700000Y-131969472D01*
X105689114Y-132080000D01*
X105700000Y-132190525D01*
X105700000Y-133688020D01*
X105167169Y-134220851D01*
X105081312Y-134291312D01*
X105010851Y-134377169D01*
X103975711Y-135412309D01*
X103975708Y-135412311D01*
X103897163Y-135490856D01*
X103811312Y-135561312D01*
X103740856Y-135647163D01*
X103714863Y-135673156D01*
X103690848Y-135604873D01*
X103371687Y-135474615D01*
X103033245Y-135409125D01*
X102688530Y-135410920D01*
X102350788Y-135479932D01*
X102049152Y-135604873D01*
X101950091Y-135886537D01*
X102870000Y-136806447D01*
X102884143Y-136792305D01*
X103158324Y-137066486D01*
X103149114Y-137160000D01*
X103158324Y-137253514D01*
X102884143Y-137527696D01*
X102870000Y-137513553D01*
X101950091Y-138433463D01*
X102049152Y-138715127D01*
X102368313Y-138845385D01*
X102706755Y-138910875D01*
X103051470Y-138909080D01*
X103389212Y-138840068D01*
X103690848Y-138715127D01*
X103714863Y-138646844D01*
X103740856Y-138672837D01*
X103811312Y-138758688D01*
X103897163Y-138829144D01*
X103975708Y-138907689D01*
X104068068Y-138969402D01*
X104153919Y-139039858D01*
X104251866Y-139092212D01*
X104344225Y-139153924D01*
X104446850Y-139196433D01*
X104544796Y-139248786D01*
X104651074Y-139281025D01*
X104753699Y-139323534D01*
X104862644Y-139345204D01*
X104968923Y-139377444D01*
X105079451Y-139388330D01*
X105188394Y-139410000D01*
X105299475Y-139410000D01*
X105410000Y-139420886D01*
X105520525Y-139410000D01*
X115459475Y-139410000D01*
X115570000Y-139420886D01*
X115680525Y-139410000D01*
X115680528Y-139410000D01*
X116011077Y-139377444D01*
X116435204Y-139248786D01*
X116826081Y-139039858D01*
X117168688Y-138758688D01*
X117239149Y-138672831D01*
X118274289Y-137637691D01*
X118274292Y-137637689D01*
X118352837Y-137559144D01*
X118438688Y-137488688D01*
X118509146Y-137402835D01*
X118587689Y-137324292D01*
X118649400Y-137231934D01*
X118719858Y-137146082D01*
X118748025Y-137093386D01*
X118902311Y-137324292D01*
X119215708Y-137637689D01*
X119584225Y-137883924D01*
X119872001Y-138003125D01*
X116933351Y-140941776D01*
X116866577Y-140996576D01*
X116811777Y-141063350D01*
X116811775Y-141063352D01*
X116647888Y-141263048D01*
X116485389Y-141567064D01*
X116388827Y-141885388D01*
X116385322Y-141896941D01*
X116351533Y-142240000D01*
X116360001Y-142325975D01*
X116360000Y-154854035D01*
X116351533Y-154940000D01*
X116360000Y-155025965D01*
X116360000Y-155025967D01*
X116385321Y-155283059D01*
X116485388Y-155612935D01*
X116513611Y-155665736D01*
X116647888Y-155916952D01*
X116737497Y-156026140D01*
X116866576Y-156183424D01*
X116933355Y-156238229D01*
X119351776Y-158656650D01*
X119406576Y-158723424D01*
X119673048Y-158942112D01*
X119977064Y-159104612D01*
X120306940Y-159204679D01*
X120564032Y-159230000D01*
X120564041Y-159230000D01*
X120649999Y-159238466D01*
X120735957Y-159230000D01*
X121081846Y-159230000D01*
X121026466Y-159363699D01*
X120940000Y-159798394D01*
X120940000Y-160241606D01*
X121026466Y-160676301D01*
X121196076Y-161085775D01*
X121442311Y-161454292D01*
X121755708Y-161767689D01*
X122124225Y-162013924D01*
X122533699Y-162183534D01*
X122968394Y-162270000D01*
X123411606Y-162270000D01*
X123846301Y-162183534D01*
X124255775Y-162013924D01*
X124624292Y-161767689D01*
X124885137Y-161506844D01*
X124909152Y-161575127D01*
X125228313Y-161705385D01*
X125566755Y-161770875D01*
X125911470Y-161769080D01*
X126249212Y-161700068D01*
X126550848Y-161575127D01*
X126649909Y-161293463D01*
X125730000Y-160373553D01*
X125715858Y-160387696D01*
X125440000Y-160111838D01*
X125440000Y-159928162D01*
X125638162Y-159730000D01*
X125821838Y-159730000D01*
X126097696Y-160005858D01*
X126083553Y-160020000D01*
X127003463Y-160939909D01*
X127285127Y-160840848D01*
X127415385Y-160521687D01*
X127480875Y-160183245D01*
X127479080Y-159838530D01*
X127410068Y-159500788D01*
X127297905Y-159230000D01*
X128184035Y-159230000D01*
X128270000Y-159238467D01*
X128355965Y-159230000D01*
X128355968Y-159230000D01*
X128613060Y-159204679D01*
X128942936Y-159104612D01*
X129246952Y-158942112D01*
X129513424Y-158723424D01*
X129568229Y-158656645D01*
X131986651Y-156238223D01*
X132053424Y-156183424D01*
X132272112Y-155916952D01*
X132434612Y-155612936D01*
X132534679Y-155283060D01*
X132560000Y-155025968D01*
X132560000Y-155025959D01*
X132568466Y-154940001D01*
X132560000Y-154854043D01*
X132560000Y-151215957D01*
X132568466Y-151129999D01*
X132560000Y-151044041D01*
X132560000Y-151044032D01*
X132534679Y-150786940D01*
X132434612Y-150457064D01*
X132316700Y-150236466D01*
X132272112Y-150153047D01*
X132108225Y-149953351D01*
X132108224Y-149953350D01*
X132053424Y-149886576D01*
X131986650Y-149831776D01*
X125758229Y-143603356D01*
X125703424Y-143536576D01*
X125436952Y-143317888D01*
X125132936Y-143155388D01*
X124803060Y-143055321D01*
X124545968Y-143030000D01*
X124545965Y-143030000D01*
X124460000Y-143021533D01*
X124374035Y-143030000D01*
X122848602Y-143030000D01*
X122813534Y-142853699D01*
X122643924Y-142444225D01*
X122397689Y-142075708D01*
X122084292Y-141762311D01*
X121715775Y-141516076D01*
X121427998Y-141396875D01*
X126906651Y-135918223D01*
X126973424Y-135863424D01*
X127086445Y-135725708D01*
X127192112Y-135596953D01*
X127354611Y-135292937D01*
X127354612Y-135292936D01*
X127454679Y-134963060D01*
X127480000Y-134705968D01*
X127480000Y-134705959D01*
X127488466Y-134620001D01*
X127480000Y-134534043D01*
X127480000Y-130588394D01*
X129830000Y-130588394D01*
X129830000Y-131031606D01*
X129916466Y-131466301D01*
X130086076Y-131875775D01*
X130222535Y-132080000D01*
X130086076Y-132284225D01*
X129916466Y-132693699D01*
X129830000Y-133128394D01*
X129830000Y-133571606D01*
X129916466Y-134006301D01*
X130086076Y-134415775D01*
X130222535Y-134620000D01*
X130086076Y-134824225D01*
X129916466Y-135233699D01*
X129830000Y-135668394D01*
X129830000Y-136111606D01*
X129916466Y-136546301D01*
X130086076Y-136955775D01*
X130332311Y-137324292D01*
X130645708Y-137637689D01*
X131014225Y-137883924D01*
X131423699Y-138053534D01*
X131858394Y-138140000D01*
X132301606Y-138140000D01*
X132736301Y-138053534D01*
X133145775Y-137883924D01*
X133514292Y-137637689D01*
X133827689Y-137324292D01*
X134073924Y-136955775D01*
X134243534Y-136546301D01*
X134330000Y-136111606D01*
X134330000Y-135668394D01*
X134243534Y-135233699D01*
X134073924Y-134824225D01*
X133937465Y-134620000D01*
X134073924Y-134415775D01*
X134243534Y-134006301D01*
X134330000Y-133571606D01*
X134330000Y-133128394D01*
X134243534Y-132693699D01*
X134073924Y-132284225D01*
X133937465Y-132080000D01*
X134073924Y-131875775D01*
X134243534Y-131466301D01*
X134330000Y-131031606D01*
X134330000Y-130588394D01*
X134243534Y-130153699D01*
X134073924Y-129744225D01*
X133827689Y-129375708D01*
X133514292Y-129062311D01*
X133145775Y-128816076D01*
X132736301Y-128646466D01*
X132301606Y-128560000D01*
X131858394Y-128560000D01*
X131423699Y-128646466D01*
X131014225Y-128816076D01*
X130645708Y-129062311D01*
X130332311Y-129375708D01*
X130086076Y-129744225D01*
X129916466Y-130153699D01*
X129830000Y-130588394D01*
X127480000Y-130588394D01*
X127480000Y-113754873D01*
X128994874Y-112240000D01*
X129971846Y-112240000D01*
X129916466Y-112373699D01*
X129830000Y-112808394D01*
X129830000Y-113251606D01*
X129916466Y-113686301D01*
X130086076Y-114095775D01*
X130222535Y-114300000D01*
X130086076Y-114504225D01*
X129916466Y-114913699D01*
X129830000Y-115348394D01*
X129830000Y-115791606D01*
X129916466Y-116226301D01*
X130086076Y-116635775D01*
X130222535Y-116840000D01*
X130086076Y-117044225D01*
X129916466Y-117453699D01*
X129830000Y-117888394D01*
X129830000Y-118331606D01*
X129916466Y-118766301D01*
X130086076Y-119175775D01*
X130222535Y-119380000D01*
X130086076Y-119584225D01*
X129916466Y-119993699D01*
X129830000Y-120428394D01*
X129830000Y-120871606D01*
X129916466Y-121306301D01*
X130086076Y-121715775D01*
X130222535Y-121920000D01*
X130086076Y-122124225D01*
X129916466Y-122533699D01*
X129830000Y-122968394D01*
X129830000Y-123411606D01*
X129916466Y-123846301D01*
X130086076Y-124255775D01*
X130222535Y-124460000D01*
X130086076Y-124664225D01*
X129916466Y-125073699D01*
X129830000Y-125508394D01*
X129830000Y-125951606D01*
X129916466Y-126386301D01*
X130086076Y-126795775D01*
X130332311Y-127164292D01*
X130645708Y-127477689D01*
X131014225Y-127723924D01*
X131423699Y-127893534D01*
X131858394Y-127980000D01*
X132301606Y-127980000D01*
X132736301Y-127893534D01*
X133145775Y-127723924D01*
X133514292Y-127477689D01*
X133827689Y-127164292D01*
X134073924Y-126795775D01*
X134243534Y-126386301D01*
X134330000Y-125951606D01*
X134330000Y-125508394D01*
X134243534Y-125073699D01*
X134073924Y-124664225D01*
X133937465Y-124460000D01*
X134073924Y-124255775D01*
X134243534Y-123846301D01*
X134330000Y-123411606D01*
X134330000Y-122968394D01*
X134243534Y-122533699D01*
X134073924Y-122124225D01*
X133937465Y-121920000D01*
X134073924Y-121715775D01*
X134243534Y-121306301D01*
X134330000Y-120871606D01*
X134330000Y-120428394D01*
X134243534Y-119993699D01*
X134073924Y-119584225D01*
X133937465Y-119380000D01*
X134073924Y-119175775D01*
X134243534Y-118766301D01*
X134330000Y-118331606D01*
X134330000Y-117888394D01*
X134243534Y-117453699D01*
X134073924Y-117044225D01*
X133937465Y-116840000D01*
X134073924Y-116635775D01*
X134243534Y-116226301D01*
X134330000Y-115791606D01*
X134330000Y-115348394D01*
X134243534Y-114913699D01*
X134073924Y-114504225D01*
X133937465Y-114300000D01*
X134073924Y-114095775D01*
X134243534Y-113686301D01*
X134330000Y-113251606D01*
X134330000Y-112808394D01*
X134243534Y-112373699D01*
X134073924Y-111964225D01*
X133937465Y-111760000D01*
X134073924Y-111555775D01*
X134243534Y-111146301D01*
X134330000Y-110711606D01*
X134330000Y-110268394D01*
X134243534Y-109833699D01*
X134073924Y-109424225D01*
X133937465Y-109220000D01*
X134073924Y-109015775D01*
X134243534Y-108606301D01*
X134330000Y-108171606D01*
X134330000Y-107728394D01*
X134243534Y-107293699D01*
X134073924Y-106884225D01*
X133937465Y-106680000D01*
X134073924Y-106475775D01*
X134243534Y-106066301D01*
X134330000Y-105631606D01*
X134330000Y-105188394D01*
X134243534Y-104753699D01*
X134073924Y-104344225D01*
X133937465Y-104140000D01*
X134073924Y-103935775D01*
X134243534Y-103526301D01*
X134330000Y-103091606D01*
X134330000Y-102648394D01*
X134243534Y-102213699D01*
X134073924Y-101804225D01*
X133937465Y-101600000D01*
X134073924Y-101395775D01*
X134243534Y-100986301D01*
X134330000Y-100551606D01*
X134330000Y-100108394D01*
X134243534Y-99673699D01*
X134073924Y-99264225D01*
X133827689Y-98895708D01*
X133514292Y-98582311D01*
X133145775Y-98336076D01*
X132736301Y-98166466D01*
X132301606Y-98080000D01*
X131858394Y-98080000D01*
X131423699Y-98166466D01*
X131014225Y-98336076D01*
X130645708Y-98582311D01*
X130332311Y-98895708D01*
X130086076Y-99264225D01*
X129916466Y-99673699D01*
X129830000Y-100108394D01*
X129830000Y-100551606D01*
X129916466Y-100986301D01*
X130086076Y-101395775D01*
X130222535Y-101600000D01*
X130086076Y-101804225D01*
X129916466Y-102213699D01*
X129830000Y-102648394D01*
X129830000Y-103091606D01*
X129864964Y-103267384D01*
X129818970Y-103181334D01*
X129732112Y-103018834D01*
X129568225Y-102819138D01*
X129568224Y-102819137D01*
X129513424Y-102752363D01*
X129446650Y-102697563D01*
X123362442Y-96613356D01*
X123310447Y-96550000D01*
X134590000Y-96550000D01*
X134590001Y-154401522D01*
X126461523Y-162530000D01*
X110740000Y-162530000D01*
X110740000Y-142240000D01*
X110735196Y-142191227D01*
X110720970Y-142144329D01*
X110697867Y-142101107D01*
X110666777Y-142063223D01*
X110628893Y-142032133D01*
X110585671Y-142009030D01*
X110538773Y-141994804D01*
X110490000Y-141990000D01*
X99090000Y-141990000D01*
X99090000Y-136996755D01*
X101119125Y-136996755D01*
X101120920Y-137341470D01*
X101189932Y-137679212D01*
X101314873Y-137980848D01*
X101596537Y-138079909D01*
X102516447Y-137160000D01*
X101596537Y-136240091D01*
X101314873Y-136339152D01*
X101184615Y-136658313D01*
X101119125Y-136996755D01*
X99090000Y-136996755D01*
X99090000Y-130588394D01*
X99350000Y-130588394D01*
X99350000Y-131031606D01*
X99436466Y-131466301D01*
X99606076Y-131875775D01*
X99852311Y-132244292D01*
X100165708Y-132557689D01*
X100534225Y-132803924D01*
X100943699Y-132973534D01*
X101378394Y-133060000D01*
X101821606Y-133060000D01*
X102256301Y-132973534D01*
X102665775Y-132803924D01*
X103034292Y-132557689D01*
X103347689Y-132244292D01*
X103593924Y-131875775D01*
X103763534Y-131466301D01*
X103850000Y-131031606D01*
X103850000Y-130588394D01*
X103763534Y-130153699D01*
X103593924Y-129744225D01*
X103347689Y-129375708D01*
X103116436Y-129144455D01*
X103155127Y-129130848D01*
X103285385Y-128811687D01*
X103350875Y-128473245D01*
X103349080Y-128128530D01*
X103280068Y-127790788D01*
X103155127Y-127489152D01*
X102873463Y-127390091D01*
X101953553Y-128310000D01*
X101967696Y-128324143D01*
X101731838Y-128560000D01*
X101468162Y-128560000D01*
X101232305Y-128324143D01*
X101246447Y-128310000D01*
X100326537Y-127390091D01*
X100044873Y-127489152D01*
X99914615Y-127808313D01*
X99849125Y-128146755D01*
X99850920Y-128491470D01*
X99919932Y-128829212D01*
X100044873Y-129130848D01*
X100083564Y-129144455D01*
X99852311Y-129375708D01*
X99606076Y-129744225D01*
X99436466Y-130153699D01*
X99350000Y-130588394D01*
X99090000Y-130588394D01*
X99090000Y-127036537D01*
X100680091Y-127036537D01*
X101600000Y-127956447D01*
X102519909Y-127036537D01*
X108300091Y-127036537D01*
X109220000Y-127956447D01*
X110139909Y-127036537D01*
X110040848Y-126754873D01*
X109721687Y-126624615D01*
X109383245Y-126559125D01*
X109038530Y-126560920D01*
X108700788Y-126629932D01*
X108399152Y-126754873D01*
X108300091Y-127036537D01*
X102519909Y-127036537D01*
X102420848Y-126754873D01*
X102101687Y-126624615D01*
X101763245Y-126559125D01*
X101418530Y-126560920D01*
X101080788Y-126629932D01*
X100779152Y-126754873D01*
X100680091Y-127036537D01*
X99090000Y-127036537D01*
X99090000Y-120343463D01*
X101950091Y-120343463D01*
X102049152Y-120625127D01*
X102368313Y-120755385D01*
X102706755Y-120820875D01*
X103051470Y-120819080D01*
X103389212Y-120750068D01*
X103690848Y-120625127D01*
X103789909Y-120343463D01*
X102870000Y-119423553D01*
X101950091Y-120343463D01*
X99090000Y-120343463D01*
X99090000Y-118906755D01*
X101119125Y-118906755D01*
X101120920Y-119251470D01*
X101189932Y-119589212D01*
X101314873Y-119890848D01*
X101596537Y-119989909D01*
X102516447Y-119070000D01*
X101596537Y-118150091D01*
X101314873Y-118249152D01*
X101184615Y-118568313D01*
X101119125Y-118906755D01*
X99090000Y-118906755D01*
X99090000Y-96550000D01*
X109243766Y-96550000D01*
X109191776Y-96613350D01*
%TA.AperFunction,Conductor*%
D16*
G36*
X109191776Y-96613350D02*
G01*
X107724315Y-98080811D01*
X107293699Y-98166466D01*
X106884225Y-98336076D01*
X106515708Y-98582311D01*
X106202311Y-98895708D01*
X105956076Y-99264225D01*
X105786466Y-99673699D01*
X105700000Y-100108394D01*
X105700000Y-100551606D01*
X105786466Y-100986301D01*
X105956076Y-101395775D01*
X106200000Y-101760834D01*
X106200001Y-104054025D01*
X106191533Y-104140000D01*
X106207715Y-104304292D01*
X106225322Y-104483060D01*
X106307420Y-104753699D01*
X106325389Y-104812936D01*
X106487888Y-105116952D01*
X106633198Y-105294012D01*
X106706577Y-105383424D01*
X106773351Y-105438224D01*
X110583351Y-109248225D01*
X110771963Y-109403015D01*
X110841840Y-109488160D01*
X111032177Y-109644366D01*
X111249331Y-109760437D01*
X111484957Y-109831913D01*
X111730000Y-109856048D01*
X112430000Y-109856048D01*
X112675043Y-109831913D01*
X112910669Y-109760437D01*
X113030000Y-109696653D01*
X113149331Y-109760437D01*
X113384957Y-109831913D01*
X113630000Y-109856048D01*
X114330000Y-109856048D01*
X114575043Y-109831913D01*
X114691887Y-109796469D01*
X114676466Y-109833699D01*
X114590000Y-110268394D01*
X114590000Y-110711606D01*
X114676466Y-111146301D01*
X114846076Y-111555775D01*
X114982535Y-111760000D01*
X114846076Y-111964225D01*
X114676466Y-112373699D01*
X114590000Y-112808394D01*
X114590000Y-113251606D01*
X114676466Y-113686301D01*
X114846076Y-114095775D01*
X114982535Y-114300000D01*
X114846076Y-114504225D01*
X114676466Y-114913699D01*
X114590000Y-115348394D01*
X114590000Y-115791606D01*
X114676466Y-116226301D01*
X114846076Y-116635775D01*
X114982535Y-116840000D01*
X114846076Y-117044225D01*
X114676466Y-117453699D01*
X114590000Y-117888394D01*
X114590000Y-118331606D01*
X114676466Y-118766301D01*
X114846076Y-119175775D01*
X114982535Y-119380000D01*
X114846076Y-119584225D01*
X114676466Y-119993699D01*
X114590000Y-120428394D01*
X114590000Y-120871606D01*
X114676466Y-121306301D01*
X114846076Y-121715775D01*
X114982535Y-121920000D01*
X114846076Y-122124225D01*
X114676466Y-122533699D01*
X114590000Y-122968394D01*
X114590000Y-123411606D01*
X114676466Y-123846301D01*
X114846076Y-124255775D01*
X114982535Y-124460000D01*
X114966291Y-124484310D01*
X107660000Y-117178020D01*
X107660000Y-116950525D01*
X107670886Y-116839999D01*
X107660000Y-116729472D01*
X107660000Y-114410527D01*
X107670886Y-114300001D01*
X107660000Y-114189472D01*
X107660000Y-108060517D01*
X107670885Y-107949999D01*
X107660000Y-107839481D01*
X107660000Y-107839472D01*
X107627444Y-107508923D01*
X107498786Y-107084796D01*
X107289858Y-106693919D01*
X107008688Y-106351312D01*
X106922837Y-106280856D01*
X105120000Y-104478020D01*
X105120000Y-100108394D01*
X105098330Y-99999451D01*
X105087444Y-99888923D01*
X105055204Y-99782644D01*
X105033534Y-99673699D01*
X104991025Y-99571074D01*
X104958786Y-99464796D01*
X104906433Y-99366850D01*
X104863924Y-99264225D01*
X104802212Y-99171866D01*
X104749858Y-99073919D01*
X104679402Y-98988068D01*
X104617689Y-98895708D01*
X104539144Y-98817163D01*
X104468688Y-98731312D01*
X104382837Y-98660856D01*
X104304292Y-98582311D01*
X104211932Y-98520598D01*
X104126081Y-98450142D01*
X104028134Y-98397788D01*
X103935775Y-98336076D01*
X103833150Y-98293567D01*
X103735204Y-98241214D01*
X103628926Y-98208975D01*
X103526301Y-98166466D01*
X103417356Y-98144796D01*
X103311077Y-98112556D01*
X103200549Y-98101670D01*
X103091606Y-98080000D01*
X102980528Y-98080000D01*
X102870000Y-98069114D01*
X102759472Y-98080000D01*
X102648394Y-98080000D01*
X102539451Y-98101670D01*
X102428924Y-98112556D01*
X102322646Y-98144795D01*
X102213699Y-98166466D01*
X102111071Y-98208976D01*
X102004797Y-98241214D01*
X101906854Y-98293566D01*
X101804225Y-98336076D01*
X101711862Y-98397791D01*
X101613920Y-98450142D01*
X101528073Y-98520595D01*
X101435708Y-98582311D01*
X101357159Y-98660860D01*
X101271313Y-98731312D01*
X101200861Y-98817158D01*
X101122311Y-98895708D01*
X101060594Y-98988074D01*
X100990143Y-99073919D01*
X100937793Y-99171859D01*
X100876076Y-99264225D01*
X100833564Y-99366858D01*
X100781215Y-99464796D01*
X100748979Y-99571064D01*
X100706466Y-99673699D01*
X100684794Y-99782653D01*
X100652557Y-99888923D01*
X100641672Y-99999441D01*
X100620000Y-100108394D01*
X100620000Y-100551606D01*
X100620001Y-100551611D01*
X100620000Y-105299474D01*
X100609114Y-105410000D01*
X100620000Y-105520525D01*
X100620000Y-105520527D01*
X100652556Y-105851076D01*
X100781214Y-106275203D01*
X100990142Y-106666081D01*
X101271312Y-107008688D01*
X101357168Y-107079148D01*
X103160001Y-108881982D01*
X103160000Y-113320000D01*
X102648394Y-113320000D01*
X102539451Y-113341670D01*
X102428923Y-113352556D01*
X102322644Y-113384796D01*
X102213699Y-113406466D01*
X102111074Y-113448975D01*
X102004796Y-113481214D01*
X101906850Y-113533567D01*
X101804225Y-113576076D01*
X101711866Y-113637788D01*
X101613919Y-113690142D01*
X101528068Y-113760598D01*
X101435708Y-113822311D01*
X101357164Y-113900855D01*
X101271312Y-113971312D01*
X101200856Y-114057163D01*
X101122311Y-114135708D01*
X101060598Y-114228068D01*
X100990142Y-114313919D01*
X100937788Y-114411866D01*
X100876076Y-114504225D01*
X100833567Y-114606850D01*
X100781214Y-114704796D01*
X100748975Y-114811074D01*
X100706466Y-114913699D01*
X100684796Y-115022644D01*
X100652556Y-115128923D01*
X100641670Y-115239451D01*
X100620000Y-115348394D01*
X100620000Y-115459472D01*
X100609114Y-115570000D01*
X100620000Y-115680528D01*
X100620000Y-115791606D01*
X100641670Y-115900549D01*
X100652556Y-116011077D01*
X100684796Y-116117356D01*
X100706466Y-116226301D01*
X100748975Y-116328926D01*
X100781214Y-116435204D01*
X100833567Y-116533150D01*
X100876076Y-116635775D01*
X100937788Y-116728134D01*
X100990142Y-116826081D01*
X101060598Y-116911932D01*
X101122311Y-117004292D01*
X101200854Y-117082835D01*
X101271312Y-117168688D01*
X101357163Y-117239144D01*
X101435708Y-117317689D01*
X101528068Y-117379402D01*
X101613919Y-117449858D01*
X101711866Y-117502212D01*
X101804225Y-117563924D01*
X101906850Y-117606433D01*
X101999528Y-117655970D01*
X101950091Y-117796537D01*
X102870000Y-118716447D01*
X102884143Y-118702305D01*
X103237696Y-119055858D01*
X103223553Y-119070000D01*
X103578232Y-119424678D01*
X103740855Y-119622835D01*
X103811313Y-119708688D01*
X103897164Y-119779144D01*
X113900856Y-129782837D01*
X113971312Y-129868688D01*
X114057163Y-129939144D01*
X114057164Y-129939145D01*
X114313918Y-130149858D01*
X114509358Y-130254322D01*
X114642315Y-130325389D01*
X114590000Y-130588394D01*
X114590000Y-131031606D01*
X114676466Y-131466301D01*
X114846076Y-131875775D01*
X115092311Y-132244292D01*
X115405708Y-132557689D01*
X115774225Y-132803924D01*
X116183699Y-132973534D01*
X116618394Y-133060000D01*
X117061606Y-133060000D01*
X117496301Y-132973534D01*
X117905775Y-132803924D01*
X118274292Y-132557689D01*
X118587689Y-132244292D01*
X118833924Y-131875775D01*
X119003534Y-131466301D01*
X119090000Y-131031606D01*
X119090000Y-130588394D01*
X119003534Y-130153699D01*
X118833924Y-129744225D01*
X118702388Y-129547368D01*
X118719858Y-129526081D01*
X118772212Y-129428134D01*
X118833924Y-129335775D01*
X118876433Y-129233150D01*
X118928786Y-129135204D01*
X118961025Y-129028926D01*
X119003534Y-128926301D01*
X119025204Y-128817356D01*
X119057444Y-128711077D01*
X119068330Y-128600549D01*
X119090000Y-128491606D01*
X119090000Y-128380528D01*
X119100886Y-128270000D01*
X119090000Y-128159472D01*
X119090000Y-128048394D01*
X119068330Y-127939451D01*
X119057444Y-127828923D01*
X119025204Y-127722644D01*
X119003534Y-127613699D01*
X118961025Y-127511074D01*
X118928786Y-127404796D01*
X118876433Y-127306850D01*
X118833924Y-127204225D01*
X118772212Y-127111866D01*
X118719858Y-127013919D01*
X118702388Y-126992632D01*
X118833924Y-126795775D01*
X119003534Y-126386301D01*
X119090000Y-125951606D01*
X119090000Y-125508394D01*
X119003534Y-125073699D01*
X118833924Y-124664225D01*
X118697465Y-124460000D01*
X118833924Y-124255775D01*
X119003534Y-123846301D01*
X119090000Y-123411606D01*
X119090000Y-122968394D01*
X119003534Y-122533699D01*
X118833924Y-122124225D01*
X118697465Y-121920000D01*
X118833924Y-121715775D01*
X119003534Y-121306301D01*
X119090000Y-120871606D01*
X119090000Y-120428394D01*
X119003534Y-119993699D01*
X118833924Y-119584225D01*
X118697465Y-119380000D01*
X118833924Y-119175775D01*
X119003534Y-118766301D01*
X119090000Y-118331606D01*
X119090000Y-117888394D01*
X119003534Y-117453699D01*
X118833924Y-117044225D01*
X118697465Y-116840000D01*
X118833924Y-116635775D01*
X119003534Y-116226301D01*
X119090000Y-115791606D01*
X119090000Y-115348394D01*
X119003534Y-114913699D01*
X118833924Y-114504225D01*
X118697465Y-114300000D01*
X118833924Y-114095775D01*
X119003534Y-113686301D01*
X119090000Y-113251606D01*
X119090000Y-112808394D01*
X119003534Y-112373699D01*
X118833924Y-111964225D01*
X118697465Y-111760000D01*
X118833924Y-111555775D01*
X119003534Y-111146301D01*
X119090000Y-110711606D01*
X119090000Y-110268394D01*
X119003534Y-109833699D01*
X118833924Y-109424225D01*
X118697465Y-109220000D01*
X118833924Y-109015775D01*
X119003534Y-108606301D01*
X119090000Y-108171606D01*
X119090000Y-107728394D01*
X119003534Y-107293699D01*
X118833924Y-106884225D01*
X118697465Y-106680000D01*
X118833924Y-106475775D01*
X119003534Y-106066301D01*
X119090000Y-105631606D01*
X119090000Y-105188394D01*
X119003534Y-104753699D01*
X118833924Y-104344225D01*
X118697465Y-104140000D01*
X118833924Y-103935775D01*
X119003534Y-103526301D01*
X119090000Y-103091606D01*
X119090000Y-102648394D01*
X119003534Y-102213699D01*
X118948154Y-102080000D01*
X119925127Y-102080000D01*
X123480811Y-105635685D01*
X123566466Y-106066301D01*
X123736076Y-106475775D01*
X123982311Y-106844292D01*
X124295708Y-107157689D01*
X124664225Y-107403924D01*
X124952001Y-107523125D01*
X122013351Y-110461776D01*
X121946577Y-110516576D01*
X121891777Y-110583350D01*
X121891775Y-110583352D01*
X121727888Y-110783048D01*
X121565389Y-111087064D01*
X121468827Y-111405388D01*
X121465322Y-111416941D01*
X121431533Y-111760000D01*
X121440001Y-111845975D01*
X121440000Y-132625126D01*
X120743356Y-133321771D01*
X120743351Y-133321775D01*
X120424315Y-133640811D01*
X119993699Y-133726466D01*
X119584225Y-133896076D01*
X119215708Y-134142311D01*
X118902311Y-134455708D01*
X118748024Y-134686615D01*
X118719858Y-134633919D01*
X118649402Y-134548068D01*
X118587689Y-134455708D01*
X118509144Y-134377163D01*
X118438688Y-134291312D01*
X118352836Y-134220855D01*
X118274292Y-134142311D01*
X118181932Y-134080598D01*
X118096081Y-134010142D01*
X117998134Y-133957788D01*
X117905775Y-133896076D01*
X117803150Y-133853567D01*
X117705204Y-133801214D01*
X117598926Y-133768975D01*
X117496301Y-133726466D01*
X117387356Y-133704796D01*
X117281077Y-133672556D01*
X117170549Y-133661670D01*
X117061606Y-133640000D01*
X116950525Y-133640000D01*
X116839999Y-133629114D01*
X116729473Y-133640000D01*
X112740000Y-133640000D01*
X112740000Y-132190525D01*
X112750886Y-132079999D01*
X112740000Y-131969472D01*
X112707444Y-131638923D01*
X112578786Y-131214796D01*
X112480869Y-131031606D01*
X112369858Y-130823918D01*
X112253181Y-130681748D01*
X112088688Y-130481312D01*
X112002831Y-130410851D01*
X110967691Y-129375711D01*
X110967689Y-129375708D01*
X110889144Y-129297163D01*
X110818688Y-129211312D01*
X110736987Y-129144262D01*
X110775127Y-129130848D01*
X110905385Y-128811687D01*
X110970875Y-128473245D01*
X110969080Y-128128530D01*
X110900068Y-127790788D01*
X110775127Y-127489152D01*
X110493463Y-127390091D01*
X109573553Y-128310000D01*
X109587696Y-128324143D01*
X109351838Y-128560000D01*
X109330528Y-128560000D01*
X109220000Y-128549114D01*
X109219999Y-128549114D01*
X109171811Y-128553860D01*
X109109472Y-128560000D01*
X109088162Y-128560000D01*
X108852305Y-128324143D01*
X108866447Y-128310000D01*
X107946537Y-127390091D01*
X107664873Y-127489152D01*
X107534615Y-127808313D01*
X107469125Y-128146755D01*
X107470920Y-128491470D01*
X107539932Y-128829212D01*
X107664873Y-129130848D01*
X107703014Y-129144262D01*
X107621313Y-129211312D01*
X107550861Y-129297158D01*
X107472311Y-129375708D01*
X107472309Y-129375711D01*
X106437169Y-130410851D01*
X106351312Y-130481312D01*
X106070142Y-130823919D01*
X105861214Y-131214797D01*
X105732556Y-131638924D01*
X105700000Y-131969472D01*
X105689114Y-132080000D01*
X105700000Y-132190525D01*
X105700000Y-133688020D01*
X105167169Y-134220851D01*
X105081312Y-134291312D01*
X105010851Y-134377169D01*
X103975711Y-135412309D01*
X103975708Y-135412311D01*
X103897163Y-135490856D01*
X103811312Y-135561312D01*
X103740856Y-135647163D01*
X103714863Y-135673156D01*
X103690848Y-135604873D01*
X103371687Y-135474615D01*
X103033245Y-135409125D01*
X102688530Y-135410920D01*
X102350788Y-135479932D01*
X102049152Y-135604873D01*
X101950091Y-135886537D01*
X102870000Y-136806447D01*
X102884143Y-136792305D01*
X103158324Y-137066486D01*
X103149114Y-137160000D01*
X103158324Y-137253514D01*
X102884143Y-137527696D01*
X102870000Y-137513553D01*
X101950091Y-138433463D01*
X102049152Y-138715127D01*
X102368313Y-138845385D01*
X102706755Y-138910875D01*
X103051470Y-138909080D01*
X103389212Y-138840068D01*
X103690848Y-138715127D01*
X103714863Y-138646844D01*
X103740856Y-138672837D01*
X103811312Y-138758688D01*
X103897163Y-138829144D01*
X103975708Y-138907689D01*
X104068068Y-138969402D01*
X104153919Y-139039858D01*
X104251866Y-139092212D01*
X104344225Y-139153924D01*
X104446850Y-139196433D01*
X104544796Y-139248786D01*
X104651074Y-139281025D01*
X104753699Y-139323534D01*
X104862644Y-139345204D01*
X104968923Y-139377444D01*
X105079451Y-139388330D01*
X105188394Y-139410000D01*
X105299475Y-139410000D01*
X105410000Y-139420886D01*
X105520525Y-139410000D01*
X115459475Y-139410000D01*
X115570000Y-139420886D01*
X115680525Y-139410000D01*
X115680528Y-139410000D01*
X116011077Y-139377444D01*
X116435204Y-139248786D01*
X116826081Y-139039858D01*
X117168688Y-138758688D01*
X117239149Y-138672831D01*
X118274289Y-137637691D01*
X118274292Y-137637689D01*
X118352837Y-137559144D01*
X118438688Y-137488688D01*
X118509146Y-137402835D01*
X118587689Y-137324292D01*
X118649400Y-137231934D01*
X118719858Y-137146082D01*
X118748025Y-137093386D01*
X118902311Y-137324292D01*
X119215708Y-137637689D01*
X119584225Y-137883924D01*
X119872001Y-138003125D01*
X116933351Y-140941776D01*
X116866577Y-140996576D01*
X116811777Y-141063350D01*
X116811775Y-141063352D01*
X116647888Y-141263048D01*
X116485389Y-141567064D01*
X116388827Y-141885388D01*
X116385322Y-141896941D01*
X116351533Y-142240000D01*
X116360001Y-142325975D01*
X116360000Y-154854035D01*
X116351533Y-154940000D01*
X116360000Y-155025965D01*
X116360000Y-155025967D01*
X116385321Y-155283059D01*
X116485388Y-155612935D01*
X116513611Y-155665736D01*
X116647888Y-155916952D01*
X116737497Y-156026140D01*
X116866576Y-156183424D01*
X116933355Y-156238229D01*
X119351776Y-158656650D01*
X119406576Y-158723424D01*
X119673048Y-158942112D01*
X119977064Y-159104612D01*
X120306940Y-159204679D01*
X120564032Y-159230000D01*
X120564041Y-159230000D01*
X120649999Y-159238466D01*
X120735957Y-159230000D01*
X121081846Y-159230000D01*
X121026466Y-159363699D01*
X120940000Y-159798394D01*
X120940000Y-160241606D01*
X121026466Y-160676301D01*
X121196076Y-161085775D01*
X121442311Y-161454292D01*
X121755708Y-161767689D01*
X122124225Y-162013924D01*
X122533699Y-162183534D01*
X122968394Y-162270000D01*
X123411606Y-162270000D01*
X123846301Y-162183534D01*
X124255775Y-162013924D01*
X124624292Y-161767689D01*
X124885137Y-161506844D01*
X124909152Y-161575127D01*
X125228313Y-161705385D01*
X125566755Y-161770875D01*
X125911470Y-161769080D01*
X126249212Y-161700068D01*
X126550848Y-161575127D01*
X126649909Y-161293463D01*
X125730000Y-160373553D01*
X125715858Y-160387696D01*
X125440000Y-160111838D01*
X125440000Y-159928162D01*
X125638162Y-159730000D01*
X125821838Y-159730000D01*
X126097696Y-160005858D01*
X126083553Y-160020000D01*
X127003463Y-160939909D01*
X127285127Y-160840848D01*
X127415385Y-160521687D01*
X127480875Y-160183245D01*
X127479080Y-159838530D01*
X127410068Y-159500788D01*
X127297905Y-159230000D01*
X128184035Y-159230000D01*
X128270000Y-159238467D01*
X128355965Y-159230000D01*
X128355968Y-159230000D01*
X128613060Y-159204679D01*
X128942936Y-159104612D01*
X129246952Y-158942112D01*
X129513424Y-158723424D01*
X129568229Y-158656645D01*
X131986651Y-156238223D01*
X132053424Y-156183424D01*
X132272112Y-155916952D01*
X132434612Y-155612936D01*
X132534679Y-155283060D01*
X132560000Y-155025968D01*
X132560000Y-155025959D01*
X132568466Y-154940001D01*
X132560000Y-154854043D01*
X132560000Y-151215957D01*
X132568466Y-151129999D01*
X132560000Y-151044041D01*
X132560000Y-151044032D01*
X132534679Y-150786940D01*
X132434612Y-150457064D01*
X132316700Y-150236466D01*
X132272112Y-150153047D01*
X132108225Y-149953351D01*
X132108224Y-149953350D01*
X132053424Y-149886576D01*
X131986650Y-149831776D01*
X125758229Y-143603356D01*
X125703424Y-143536576D01*
X125436952Y-143317888D01*
X125132936Y-143155388D01*
X124803060Y-143055321D01*
X124545968Y-143030000D01*
X124545965Y-143030000D01*
X124460000Y-143021533D01*
X124374035Y-143030000D01*
X122848602Y-143030000D01*
X122813534Y-142853699D01*
X122643924Y-142444225D01*
X122397689Y-142075708D01*
X122084292Y-141762311D01*
X121715775Y-141516076D01*
X121427998Y-141396875D01*
X126906651Y-135918223D01*
X126973424Y-135863424D01*
X127086445Y-135725708D01*
X127192112Y-135596953D01*
X127354611Y-135292937D01*
X127354612Y-135292936D01*
X127454679Y-134963060D01*
X127480000Y-134705968D01*
X127480000Y-134705959D01*
X127488466Y-134620001D01*
X127480000Y-134534043D01*
X127480000Y-130588394D01*
X129830000Y-130588394D01*
X129830000Y-131031606D01*
X129916466Y-131466301D01*
X130086076Y-131875775D01*
X130222535Y-132080000D01*
X130086076Y-132284225D01*
X129916466Y-132693699D01*
X129830000Y-133128394D01*
X129830000Y-133571606D01*
X129916466Y-134006301D01*
X130086076Y-134415775D01*
X130222535Y-134620000D01*
X130086076Y-134824225D01*
X129916466Y-135233699D01*
X129830000Y-135668394D01*
X129830000Y-136111606D01*
X129916466Y-136546301D01*
X130086076Y-136955775D01*
X130332311Y-137324292D01*
X130645708Y-137637689D01*
X131014225Y-137883924D01*
X131423699Y-138053534D01*
X131858394Y-138140000D01*
X132301606Y-138140000D01*
X132736301Y-138053534D01*
X133145775Y-137883924D01*
X133514292Y-137637689D01*
X133827689Y-137324292D01*
X134073924Y-136955775D01*
X134243534Y-136546301D01*
X134330000Y-136111606D01*
X134330000Y-135668394D01*
X134243534Y-135233699D01*
X134073924Y-134824225D01*
X133937465Y-134620000D01*
X134073924Y-134415775D01*
X134243534Y-134006301D01*
X134330000Y-133571606D01*
X134330000Y-133128394D01*
X134243534Y-132693699D01*
X134073924Y-132284225D01*
X133937465Y-132080000D01*
X134073924Y-131875775D01*
X134243534Y-131466301D01*
X134330000Y-131031606D01*
X134330000Y-130588394D01*
X134243534Y-130153699D01*
X134073924Y-129744225D01*
X133827689Y-129375708D01*
X133514292Y-129062311D01*
X133145775Y-128816076D01*
X132736301Y-128646466D01*
X132301606Y-128560000D01*
X131858394Y-128560000D01*
X131423699Y-128646466D01*
X131014225Y-128816076D01*
X130645708Y-129062311D01*
X130332311Y-129375708D01*
X130086076Y-129744225D01*
X129916466Y-130153699D01*
X129830000Y-130588394D01*
X127480000Y-130588394D01*
X127480000Y-113754873D01*
X128994874Y-112240000D01*
X129971846Y-112240000D01*
X129916466Y-112373699D01*
X129830000Y-112808394D01*
X129830000Y-113251606D01*
X129916466Y-113686301D01*
X130086076Y-114095775D01*
X130222535Y-114300000D01*
X130086076Y-114504225D01*
X129916466Y-114913699D01*
X129830000Y-115348394D01*
X129830000Y-115791606D01*
X129916466Y-116226301D01*
X130086076Y-116635775D01*
X130222535Y-116840000D01*
X130086076Y-117044225D01*
X129916466Y-117453699D01*
X129830000Y-117888394D01*
X129830000Y-118331606D01*
X129916466Y-118766301D01*
X130086076Y-119175775D01*
X130222535Y-119380000D01*
X130086076Y-119584225D01*
X129916466Y-119993699D01*
X129830000Y-120428394D01*
X129830000Y-120871606D01*
X129916466Y-121306301D01*
X130086076Y-121715775D01*
X130222535Y-121920000D01*
X130086076Y-122124225D01*
X129916466Y-122533699D01*
X129830000Y-122968394D01*
X129830000Y-123411606D01*
X129916466Y-123846301D01*
X130086076Y-124255775D01*
X130222535Y-124460000D01*
X130086076Y-124664225D01*
X129916466Y-125073699D01*
X129830000Y-125508394D01*
X129830000Y-125951606D01*
X129916466Y-126386301D01*
X130086076Y-126795775D01*
X130332311Y-127164292D01*
X130645708Y-127477689D01*
X131014225Y-127723924D01*
X131423699Y-127893534D01*
X131858394Y-127980000D01*
X132301606Y-127980000D01*
X132736301Y-127893534D01*
X133145775Y-127723924D01*
X133514292Y-127477689D01*
X133827689Y-127164292D01*
X134073924Y-126795775D01*
X134243534Y-126386301D01*
X134330000Y-125951606D01*
X134330000Y-125508394D01*
X134243534Y-125073699D01*
X134073924Y-124664225D01*
X133937465Y-124460000D01*
X134073924Y-124255775D01*
X134243534Y-123846301D01*
X134330000Y-123411606D01*
X134330000Y-122968394D01*
X134243534Y-122533699D01*
X134073924Y-122124225D01*
X133937465Y-121920000D01*
X134073924Y-121715775D01*
X134243534Y-121306301D01*
X134330000Y-120871606D01*
X134330000Y-120428394D01*
X134243534Y-119993699D01*
X134073924Y-119584225D01*
X133937465Y-119380000D01*
X134073924Y-119175775D01*
X134243534Y-118766301D01*
X134330000Y-118331606D01*
X134330000Y-117888394D01*
X134243534Y-117453699D01*
X134073924Y-117044225D01*
X133937465Y-116840000D01*
X134073924Y-116635775D01*
X134243534Y-116226301D01*
X134330000Y-115791606D01*
X134330000Y-115348394D01*
X134243534Y-114913699D01*
X134073924Y-114504225D01*
X133937465Y-114300000D01*
X134073924Y-114095775D01*
X134243534Y-113686301D01*
X134330000Y-113251606D01*
X134330000Y-112808394D01*
X134243534Y-112373699D01*
X134073924Y-111964225D01*
X133937465Y-111760000D01*
X134073924Y-111555775D01*
X134243534Y-111146301D01*
X134330000Y-110711606D01*
X134330000Y-110268394D01*
X134243534Y-109833699D01*
X134073924Y-109424225D01*
X133937465Y-109220000D01*
X134073924Y-109015775D01*
X134243534Y-108606301D01*
X134330000Y-108171606D01*
X134330000Y-107728394D01*
X134243534Y-107293699D01*
X134073924Y-106884225D01*
X133937465Y-106680000D01*
X134073924Y-106475775D01*
X134243534Y-106066301D01*
X134330000Y-105631606D01*
X134330000Y-105188394D01*
X134243534Y-104753699D01*
X134073924Y-104344225D01*
X133937465Y-104140000D01*
X134073924Y-103935775D01*
X134243534Y-103526301D01*
X134330000Y-103091606D01*
X134330000Y-102648394D01*
X134243534Y-102213699D01*
X134073924Y-101804225D01*
X133937465Y-101600000D01*
X134073924Y-101395775D01*
X134243534Y-100986301D01*
X134330000Y-100551606D01*
X134330000Y-100108394D01*
X134243534Y-99673699D01*
X134073924Y-99264225D01*
X133827689Y-98895708D01*
X133514292Y-98582311D01*
X133145775Y-98336076D01*
X132736301Y-98166466D01*
X132301606Y-98080000D01*
X131858394Y-98080000D01*
X131423699Y-98166466D01*
X131014225Y-98336076D01*
X130645708Y-98582311D01*
X130332311Y-98895708D01*
X130086076Y-99264225D01*
X129916466Y-99673699D01*
X129830000Y-100108394D01*
X129830000Y-100551606D01*
X129916466Y-100986301D01*
X130086076Y-101395775D01*
X130222535Y-101600000D01*
X130086076Y-101804225D01*
X129916466Y-102213699D01*
X129830000Y-102648394D01*
X129830000Y-103091606D01*
X129864964Y-103267384D01*
X129818970Y-103181334D01*
X129732112Y-103018834D01*
X129568225Y-102819138D01*
X129568224Y-102819137D01*
X129513424Y-102752363D01*
X129446650Y-102697563D01*
X123362442Y-96613356D01*
X123310447Y-96550000D01*
X134590000Y-96550000D01*
X134590001Y-154401522D01*
X126461523Y-162530000D01*
X110740000Y-162530000D01*
X110740000Y-142240000D01*
X110735196Y-142191227D01*
X110720970Y-142144329D01*
X110697867Y-142101107D01*
X110666777Y-142063223D01*
X110628893Y-142032133D01*
X110585671Y-142009030D01*
X110538773Y-141994804D01*
X110490000Y-141990000D01*
X99090000Y-141990000D01*
X99090000Y-136996755D01*
X101119125Y-136996755D01*
X101120920Y-137341470D01*
X101189932Y-137679212D01*
X101314873Y-137980848D01*
X101596537Y-138079909D01*
X102516447Y-137160000D01*
X101596537Y-136240091D01*
X101314873Y-136339152D01*
X101184615Y-136658313D01*
X101119125Y-136996755D01*
X99090000Y-136996755D01*
X99090000Y-130588394D01*
X99350000Y-130588394D01*
X99350000Y-131031606D01*
X99436466Y-131466301D01*
X99606076Y-131875775D01*
X99852311Y-132244292D01*
X100165708Y-132557689D01*
X100534225Y-132803924D01*
X100943699Y-132973534D01*
X101378394Y-133060000D01*
X101821606Y-133060000D01*
X102256301Y-132973534D01*
X102665775Y-132803924D01*
X103034292Y-132557689D01*
X103347689Y-132244292D01*
X103593924Y-131875775D01*
X103763534Y-131466301D01*
X103850000Y-131031606D01*
X103850000Y-130588394D01*
X103763534Y-130153699D01*
X103593924Y-129744225D01*
X103347689Y-129375708D01*
X103116436Y-129144455D01*
X103155127Y-129130848D01*
X103285385Y-128811687D01*
X103350875Y-128473245D01*
X103349080Y-128128530D01*
X103280068Y-127790788D01*
X103155127Y-127489152D01*
X102873463Y-127390091D01*
X101953553Y-128310000D01*
X101967696Y-128324143D01*
X101731838Y-128560000D01*
X101468162Y-128560000D01*
X101232305Y-128324143D01*
X101246447Y-128310000D01*
X100326537Y-127390091D01*
X100044873Y-127489152D01*
X99914615Y-127808313D01*
X99849125Y-128146755D01*
X99850920Y-128491470D01*
X99919932Y-128829212D01*
X100044873Y-129130848D01*
X100083564Y-129144455D01*
X99852311Y-129375708D01*
X99606076Y-129744225D01*
X99436466Y-130153699D01*
X99350000Y-130588394D01*
X99090000Y-130588394D01*
X99090000Y-127036537D01*
X100680091Y-127036537D01*
X101600000Y-127956447D01*
X102519909Y-127036537D01*
X108300091Y-127036537D01*
X109220000Y-127956447D01*
X110139909Y-127036537D01*
X110040848Y-126754873D01*
X109721687Y-126624615D01*
X109383245Y-126559125D01*
X109038530Y-126560920D01*
X108700788Y-126629932D01*
X108399152Y-126754873D01*
X108300091Y-127036537D01*
X102519909Y-127036537D01*
X102420848Y-126754873D01*
X102101687Y-126624615D01*
X101763245Y-126559125D01*
X101418530Y-126560920D01*
X101080788Y-126629932D01*
X100779152Y-126754873D01*
X100680091Y-127036537D01*
X99090000Y-127036537D01*
X99090000Y-120343463D01*
X101950091Y-120343463D01*
X102049152Y-120625127D01*
X102368313Y-120755385D01*
X102706755Y-120820875D01*
X103051470Y-120819080D01*
X103389212Y-120750068D01*
X103690848Y-120625127D01*
X103789909Y-120343463D01*
X102870000Y-119423553D01*
X101950091Y-120343463D01*
X99090000Y-120343463D01*
X99090000Y-118906755D01*
X101119125Y-118906755D01*
X101120920Y-119251470D01*
X101189932Y-119589212D01*
X101314873Y-119890848D01*
X101596537Y-119989909D01*
X102516447Y-119070000D01*
X101596537Y-118150091D01*
X101314873Y-118249152D01*
X101184615Y-118568313D01*
X101119125Y-118906755D01*
X99090000Y-118906755D01*
X99090000Y-96550000D01*
X109243766Y-96550000D01*
X109191776Y-96613350D01*
G37*
%TD.AperFunction*%
%TD*%
M02*
